Georama-iXp-XLt.ufo
<glyph name="ampersand" format="2">
  <advance width="1058"/>
  <unicode hex="0026"/>
  <outline>
    <contour>
      <point x="410" y="-10" type="curve" smooth="yes"/>
      <point x="603" y="-10"/>
      <point x="784" y="48"/>
      <point x="861" y="279" type="curve"/>
      <point x="843" y="286" type="line"/>
      <point x="770" y="66"/>
      <point x="596" y="9"/>
      <point x="410" y="9" type="curve" smooth="yes"/>
      <point x="206" y="9"/>
      <point x="100" y="83"/>
      <point x="100" y="172" type="curve" smooth="yes"/>
      <point x="100" y="322"/>
      <point x="310" y="350"/>
      <point x="490" y="350" type="curve" smooth="yes"/>
      <point x="496" y="350" type="line"/>
      <point x="496" y="370" type="line"/>
      <point x="491" y="370" type="line" smooth="yes"/>
      <point x="336" y="370"/>
      <point x="218" y="428"/>
      <point x="218" y="533" type="curve" smooth="yes"/>
      <point x="218" y="608"/>
      <point x="290" y="695"/>
      <point x="453" y="695" type="curve" smooth="yes"/>
      <point x="548" y="695"/>
      <point x="652" y="655"/>
      <point x="703" y="600" type="curve"/>
      <point x="716" y="614" type="line"/>
      <point x="664" y="670"/>
      <point x="553" y="710"/>
      <point x="452" y="710" type="curve" smooth="yes"/>
      <point x="275" y="710"/>
      <point x="198" y="616"/>
      <point x="198" y="533" type="curve" smooth="yes"/>
      <point x="198" y="434"/>
      <point x="293" y="369"/>
      <point x="413" y="362" type="curve"/>
      <point x="227" y="358"/>
      <point x="80" y="305"/>
      <point x="80" y="172" type="curve" smooth="yes"/>
      <point x="80" y="73"/>
      <point x="183" y="-10"/>
    </contour>
    <contour>
      <point x="594" y="215" type="line"/>
      <point x="597" y="284"/>
      <point x="649" y="319"/>
      <point x="700" y="319" type="curve" smooth="yes"/>
      <point x="803" y="319"/>
      <point x="834" y="260"/>
      <point x="938" y="260" type="curve" smooth="yes"/>
      <point x="1019" y="260"/>
      <point x="1071" y="320"/>
      <point x="1071" y="394" type="curve"/>
      <point x="1052" y="394" type="line"/>
      <point x="1052" y="330"/>
      <point x="1008" y="279"/>
      <point x="939" y="279" type="curve" smooth="yes"/>
      <point x="841" y="279"/>
      <point x="805" y="338"/>
      <point x="701" y="338" type="curve" smooth="yes"/>
      <point x="641" y="338"/>
      <point x="581" y="295"/>
      <point x="578" y="223" type="curve"/>
    </contour>
  </outline>
</glyph>
<glyph name="plus" format="2">
  <advance width="512"/>
  <unicode hex="002B"/>
  <outline>
    <contour>
      <point x="216" y="72" type="line"/>
      <point x="234" y="72" type="line"/>
      <point x="266" y="280" type="line"/>
      <point x="450" y="280" type="line"/>
      <point x="453" y="298" type="line"/>
      <point x="269" y="298" type="line"/>
      <point x="302" y="506" type="line"/>
      <point x="284" y="506" type="line"/>
      <point x="251" y="298" type="line"/>
      <point x="67" y="298" type="line"/>
      <point x="64" y="280" type="line"/>
      <point x="248" y="280" type="line"/>
    </contour>
  </outline>
</glyph>
<glyph name="comma" format="2">
  <advance width="215"/>
  <unicode hex="002C"/>
  <outline>
    <contour>
      <point x="60" y="28" type="line"/>
      <point x="64" y="14"/>
      <point x="66" y="-1"/>
      <point x="66" y="-16" type="curve" smooth="yes"/>
      <point x="66" y="-78"/>
      <point x="19" y="-158"/>
      <point x="-52" y="-183" type="curve"/>
      <point x="-46" y="-200" type="line"/>
      <point x="38" y="-173"/>
      <point x="87" y="-78"/>
      <point x="87" y="-9" type="curve" smooth="yes"/>
      <point x="87" y="8"/>
      <point x="84" y="24"/>
      <point x="79" y="37" type="curve"/>
    </contour>
  </outline>
</glyph>
<glyph name="hyphen" format="2">
  <advance width="478"/>
  <unicode hex="002D"/>
  <outline>
    <contour>
      <point x="79" y="255" type="line"/>
      <point x="393" y="255" type="line"/>
      <point x="396" y="274" type="line"/>
      <point x="82" y="274" type="line"/>
    </contour>
  </outline>
</glyph>
<glyph name="four" format="2">
  <advance width="1034"/>
  <unicode hex="0034"/>
  <outline>
    <contour>
      <point x="82" y="206" type="line"/>
      <point x="712" y="206" type="line"/>
      <point x="678" y="-7" type="line"/>
      <point x="696" y="-7" type="line"/>
      <point x="730" y="206" type="line"/>
      <point x="938" y="206" type="line"/>
      <point x="941" y="225" type="line"/>
      <point x="733" y="225" type="line"/>
      <point x="807" y="693" type="line"/>
      <point x="797" y="703" type="line"/>
      <point x="82" y="222" type="line"/>
    </contour>
    <contour>
      <point x="117" y="225" type="line"/>
      <point x="786" y="674" type="line"/>
      <point x="715" y="225" type="line"/>
    </contour>
  </outline>
</glyph>
<glyph name="nine" format="2">
  <advance width="1034"/>
  <unicode hex="0039"/>
  <outline>
    <contour>
      <point x="572" y="710" type="curve" smooth="yes"/>
      <point x="277" y="710"/>
      <point x="127" y="623"/>
      <point x="127" y="468" type="curve" smooth="yes"/>
      <point x="127" y="329"/>
      <point x="244" y="258"/>
      <point x="469" y="258" type="curve" smooth="yes"/>
      <point x="631" y="258"/>
      <point x="830" y="304"/>
      <point x="954" y="370" type="curve"/>
      <point x="955" y="396" type="line"/>
      <point x="838" y="325"/>
      <point x="642" y="277"/>
      <point x="471" y="277" type="curve" smooth="yes"/>
      <point x="260" y="277"/>
      <point x="147" y="343"/>
      <point x="147" y="466" type="curve" smooth="yes"/>
      <point x="147" y="611"/>
      <point x="288" y="691"/>
      <point x="561" y="691" type="curve" smooth="yes"/>
      <point x="826" y="691"/>
      <point x="952" y="609"/>
      <point x="952" y="422" type="curve" smooth="yes"/>
      <point x="952" y="279"/>
      <point x="895" y="165"/>
      <point x="788" y="94" type="curve" smooth="yes"/>
      <point x="704" y="38"/>
      <point x="589" y="9"/>
      <point x="453" y="9" type="curve" smooth="yes"/>
      <point x="331" y="9"/>
      <point x="225" y="23"/>
      <point x="114" y="55" type="curve"/>
      <point x="107" y="35" type="line"/>
      <point x="214" y="6"/>
      <point x="333" y="-10"/>
      <point x="449" y="-10" type="curve" smooth="yes"/>
      <point x="780" y="-10"/>
      <point x="973" y="152"/>
      <point x="973" y="429" type="curve" smooth="yes"/>
      <point x="973" y="620"/>
      <point x="837" y="710"/>
    </contour>
  </outline>
</glyph>
<glyph name="greater" format="2">
  <advance width="513"/>
  <unicode hex="003E"/>
  <outline>
    <contour>
      <point x="450" y="279" type="line"/>
      <point x="453" y="299" type="line"/>
      <point x="100" y="510" type="line"/>
      <point x="97" y="489" type="line"/>
      <point x="432" y="289" type="line"/>
      <point x="34" y="91" type="line"/>
      <point x="31" y="69" type="line"/>
    </contour>
  </outline>
</glyph>
<glyph name="question" format="2">
  <advance width="662"/>
  <unicode hex="003F"/>
  <outline>
    <contour>
      <point x="289" y="261" type="line"/>
      <point x="307" y="261" type="line"/>
      <point x="318" y="327" type="line"/>
      <point x="545" y="366"/>
      <point x="658" y="440"/>
      <point x="658" y="581" type="curve" smooth="yes"/>
      <point x="658" y="713"/>
      <point x="526" y="750"/>
      <point x="411" y="750" type="curve" smooth="yes"/>
      <point x="301" y="750"/>
      <point x="175" y="721"/>
      <point x="74" y="667" type="curve"/>
      <point x="81" y="652" type="line"/>
      <point x="180" y="701"/>
      <point x="302" y="733"/>
      <point x="408" y="733" type="curve" smooth="yes"/>
      <point x="524" y="733"/>
      <point x="637" y="699"/>
      <point x="637" y="576" type="curve" smooth="yes"/>
      <point x="637" y="471"/>
      <point x="563" y="383"/>
      <point x="302" y="343" type="curve"/>
    </contour>
    <contour>
      <point x="250" y="7" type="curve" smooth="yes"/>
      <point x="250" y="1"/>
      <point x="254" y="0"/>
      <point x="263" y="0" type="curve" smooth="yes"/>
      <point x="279" y="0"/>
      <point x="285" y="1"/>
      <point x="285" y="26" type="curve" smooth="yes"/>
      <point x="285" y="33"/>
      <point x="281" y="34"/>
      <point x="272" y="34" type="curve" smooth="yes"/>
      <point x="256" y="34"/>
      <point x="250" y="33"/>
    </contour>
  </outline>
</glyph>
<glyph name="A" format="2">
  <advance width="881"/>
  <unicode hex="0041"/>
  <anchor x="397.444" y="0" name="bottom"/>
  <anchor x="823" y="0" name="ogonek"/>
  <anchor x="509" y="700" name="top"/>
  <outline>
    <contour>
      <point x="-30" y="0" type="line"/>
      <point x="-6" y="0" type="line"/>
      <point x="161" y="222" type="line"/>
      <point x="705" y="222" type="line"/>
      <point x="800" y="0" type="line"/>
      <point x="823" y="0" type="line"/>
      <point x="514" y="710" type="line"/>
      <point x="504" y="710" type="line"/>
    </contour>
    <contour>
      <point x="175" y="241" type="line"/>
      <point x="507" y="683" type="line"/>
      <point x="697" y="241" type="line"/>
    </contour>
  </outline>
</glyph>
<glyph name="B" format="2">
  <advance width="987"/>
  <unicode hex="0042"/>
  <outline>
    <contour>
      <point x="95" y="5" type="line"/>
      <point x="279" y="-5"/>
      <point x="372" y="-10"/>
      <point x="494" y="-10" type="curve" smooth="yes"/>
      <point x="651" y="-10"/>
      <point x="899" y="-3"/>
      <point x="899" y="216" type="curve" smooth="yes"/>
      <point x="899" y="305"/>
      <point x="814" y="368"/>
      <point x="698" y="373" type="curve"/>
      <point x="799" y="387"/>
      <point x="897" y="452"/>
      <point x="897" y="557" type="curve" smooth="yes"/>
      <point x="897" y="677"/>
      <point x="791" y="710"/>
      <point x="575" y="710" type="curve" smooth="yes"/>
      <point x="492" y="710"/>
      <point x="400" y="706"/>
      <point x="204" y="695" type="curve"/>
    </contour>
    <contour>
      <point x="173" y="379" type="line"/>
      <point x="220" y="677" type="line"/>
      <point x="339" y="684"/>
      <point x="453" y="692"/>
      <point x="570" y="692" type="curve" smooth="yes"/>
      <point x="773" y="692"/>
      <point x="877" y="666"/>
      <point x="877" y="556" type="curve" smooth="yes"/>
      <point x="877" y="431"/>
      <point x="726" y="379"/>
      <point x="613" y="379" type="curve" smooth="yes"/>
    </contour>
    <contour>
      <point x="170" y="361" type="line"/>
      <point x="624" y="361" type="line" smooth="yes"/>
      <point x="720" y="361"/>
      <point x="880" y="336"/>
      <point x="880" y="213" type="curve" smooth="yes"/>
      <point x="880" y="25"/>
      <point x="654" y="9"/>
      <point x="500" y="9" type="curve" smooth="yes"/>
      <point x="350" y="9"/>
      <point x="265" y="17"/>
      <point x="117" y="24" type="curve"/>
    </contour>
  </outline>
</glyph>
<glyph name="D" format="2">
  <advance width="1073"/>
  <unicode hex="0044"/>
  <anchor x="463" y="0" name="bottom"/>
  <anchor x="519" y="350" name="center"/>
  <anchor x="566" y="700" name="top"/>
  <outline>
    <contour>
      <point x="441" y="-10" type="curve" smooth="yes"/>
      <point x="749" y="-10"/>
      <point x="1002" y="96"/>
      <point x="1002" y="373" type="curve" smooth="yes"/>
      <point x="1002" y="667"/>
      <point x="737" y="710"/>
      <point x="512" y="710" type="curve" smooth="yes"/>
      <point x="398" y="710"/>
      <point x="304" y="707"/>
      <point x="204" y="700" type="curve"/>
      <point x="93" y="0" type="line"/>
      <point x="219" y="-9"/>
      <point x="300" y="-10"/>
    </contour>
    <contour>
      <point x="434" y="9" type="curve" smooth="yes"/>
      <point x="311" y="9"/>
      <point x="221" y="11"/>
      <point x="115" y="18" type="curve"/>
      <point x="220" y="680" type="line"/>
      <point x="280" y="686"/>
      <point x="407" y="691"/>
      <point x="512" y="691" type="curve" smooth="yes"/>
      <point x="729" y="691"/>
      <point x="982" y="649"/>
      <point x="982" y="371" type="curve" smooth="yes"/>
      <point x="982" y="113"/>
      <point x="745" y="9"/>
    </contour>
  </outline>
</glyph>
<glyph name="I" format="2">
  <advance width="293"/>
  <unicode hex="0049"/>
  <anchor x="103.444" y="0" name="bottom"/>
  <anchor x="112" y="0" name="ogonek"/>
  <anchor x="214.313" y="700" name="top"/>
  <anchor x="117" y="700" name="topleft"/>
  <outline>
    <contour>
      <point x="93" y="0" type="line"/>
      <point x="112" y="0" type="line"/>
      <point x="223" y="700" type="line"/>
      <point x="204" y="700" type="line"/>
    </contour>
  </outline>
</glyph>
<glyph name="J" format="2">
  <advance width="733"/>
  <unicode hex="004A"/>
  <anchor x="320" y="0" name="bottom"/>
  <anchor x="431" y="700" name="top"/>
  <outline>
    <contour>
      <point x="-5" y="41" type="line"/>
      <point x="51" y="19"/>
      <point x="125" y="-10"/>
      <point x="272" y="-10" type="curve" smooth="yes"/>
      <point x="438" y="-10"/>
      <point x="582" y="70"/>
      <point x="616" y="275" type="curve" smooth="yes"/>
      <point x="683" y="700" type="line"/>
      <point x="171" y="700" type="line"/>
      <point x="168" y="681" type="line"/>
      <point x="661" y="681" type="line"/>
      <point x="596" y="275" type="line" smooth="yes"/>
      <point x="566" y="84"/>
      <point x="430" y="9"/>
      <point x="275" y="9" type="curve" smooth="yes"/>
      <point x="132" y="9"/>
      <point x="58" y="39"/>
      <point x="0" y="61" type="curve"/>
    </contour>
  </outline>
</glyph>
<glyph name="O" format="2">
  <advance width="1142"/>
  <unicode hex="004F"/>
  <note>
8
</note>
  <anchor x="527.444" y="0" name="bottom"/>
  <anchor x="582.879" y="350" name="center"/>
  <anchor x="621" y="0" name="ogonek"/>
  <anchor x="617" y="700" name="top"/>
  <anchor x="97" y="700" name="topleft"/>
  <anchor x="933" y="653" name="topright"/>
  <outline>
    <contour>
      <point x="572" y="-10" type="curve" smooth="yes"/>
      <point x="891" y="-10"/>
      <point x="1074" y="139"/>
      <point x="1074" y="398" type="curve" smooth="yes"/>
      <point x="1074" y="603"/>
      <point x="920" y="710"/>
      <point x="594" y="710" type="curve" smooth="yes"/>
      <point x="275" y="710"/>
      <point x="92" y="561"/>
      <point x="92" y="302" type="curve" smooth="yes"/>
      <point x="92" y="97"/>
      <point x="246" y="-10"/>
    </contour>
    <contour>
      <point x="572" y="9" type="curve" smooth="yes"/>
      <point x="257" y="9"/>
      <point x="111" y="108"/>
      <point x="111" y="304" type="curve" smooth="yes"/>
      <point x="111" y="551"/>
      <point x="283" y="691"/>
      <point x="594" y="691" type="curve" smooth="yes"/>
      <point x="909" y="691"/>
      <point x="1055" y="592"/>
      <point x="1055" y="396" type="curve" smooth="yes"/>
      <point x="1055" y="149"/>
      <point x="883" y="9"/>
    </contour>
  </outline>
</glyph>
<glyph name="P" format="2">
  <advance width="968"/>
  <unicode hex="0050"/>
  <outline>
    <contour>
      <point x="93" y="0" type="line"/>
      <point x="112" y="0" type="line"/>
      <point x="152" y="250" type="line"/>
      <point x="288" y="246"/>
      <point x="368" y="244"/>
      <point x="494" y="244" type="curve" smooth="yes"/>
      <point x="810" y="244"/>
      <point x="935" y="327"/>
      <point x="937" y="507" type="curve" smooth="yes"/>
      <point x="938" y="660"/>
      <point x="824" y="710"/>
      <point x="545" y="710" type="curve" smooth="yes"/>
      <point x="490" y="710"/>
      <point x="430" y="708"/>
      <point x="204" y="700" type="curve"/>
    </contour>
    <contour>
      <point x="220" y="681" type="line"/>
      <point x="386" y="688"/>
      <point x="472" y="691"/>
      <point x="542" y="691" type="curve" smooth="yes"/>
      <point x="818" y="691"/>
      <point x="918" y="652"/>
      <point x="918" y="502" type="curve" smooth="yes"/>
      <point x="918" y="339"/>
      <point x="797" y="263"/>
      <point x="499" y="263" type="curve" smooth="yes"/>
      <point x="381" y="263"/>
      <point x="295" y="266"/>
      <point x="155" y="269" type="curve"/>
    </contour>
  </outline>
</glyph>
<glyph name="Q" format="2">
  <advance width="1142"/>
  <unicode hex="0051"/>
  <note>
14
</note>
  <outline>
    <contour>
      <point x="788" y="-220" type="curve" smooth="yes"/>
      <point x="852" y="-220"/>
      <point x="899" y="-204"/>
      <point x="941" y="-178" type="curve"/>
      <point x="933" y="-161" type="line"/>
      <point x="884" y="-189"/>
      <point x="839" y="-201"/>
      <point x="787" y="-201" type="curve" smooth="yes"/>
      <point x="667" y="-201"/>
      <point x="573" y="-114"/>
      <point x="537" y="-5" type="curve"/>
      <point x="517" y="-4" type="line"/>
      <point x="563" y="-148"/>
      <point x="673" y="-220"/>
    </contour>
    <contour>
      <point x="572" y="-10" type="curve" smooth="yes"/>
      <point x="891" y="-10"/>
      <point x="1074" y="139"/>
      <point x="1074" y="398" type="curve" smooth="yes"/>
      <point x="1074" y="603"/>
      <point x="920" y="710"/>
      <point x="594" y="710" type="curve" smooth="yes"/>
      <point x="275" y="710"/>
      <point x="92" y="561"/>
      <point x="92" y="302" type="curve" smooth="yes"/>
      <point x="92" y="97"/>
      <point x="246" y="-10"/>
    </contour>
    <contour>
      <point x="572" y="9" type="curve" smooth="yes"/>
      <point x="257" y="9"/>
      <point x="111" y="108"/>
      <point x="111" y="304" type="curve" smooth="yes"/>
      <point x="111" y="551"/>
      <point x="283" y="691"/>
      <point x="594" y="691" type="curve" smooth="yes"/>
      <point x="909" y="691"/>
      <point x="1055" y="592"/>
      <point x="1055" y="396" type="curve" smooth="yes"/>
      <point x="1055" y="149"/>
      <point x="883" y="9"/>
    </contour>
  </outline>
</glyph>
<glyph name="R" format="2">
  <advance width="1003"/>
  <unicode hex="0052"/>
  <anchor x="492" y="0" name="bottom"/>
  <anchor x="514" y="700" name="top"/>
  <outline>
    <contour>
      <point x="94" y="0" type="line"/>
      <point x="113" y="0" type="line"/>
      <point x="163" y="312" type="line"/>
      <point x="305" y="309"/>
      <point x="423" y="307"/>
      <point x="594" y="307" type="curve"/>
      <point x="597" y="307" type="line"/>
      <point x="813" y="307"/>
      <point x="922" y="377"/>
      <point x="922" y="525" type="curve" smooth="yes"/>
      <point x="922" y="667"/>
      <point x="843" y="710"/>
      <point x="515" y="710" type="curve" smooth="yes"/>
      <point x="390" y="710"/>
      <point x="322" y="708"/>
      <point x="205" y="702" type="curve"/>
    </contour>
    <contour>
      <point x="966" y="-10" type="curve" smooth="yes"/>
      <point x="969" y="-10"/>
      <point x="975" y="-10"/>
      <point x="980" y="-9" type="curve"/>
      <point x="978" y="10" type="line"/>
      <point x="974" y="9"/>
      <point x="967" y="9"/>
      <point x="964" y="9" type="curve" smooth="yes"/>
      <point x="870" y="9"/>
      <point x="735" y="160"/>
      <point x="600" y="312" type="curve"/>
      <point x="576" y="312" type="line"/>
      <point x="708" y="156"/>
      <point x="857" y="-10"/>
    </contour>
    <contour>
      <point x="592" y="326" type="curve" smooth="yes"/>
      <point x="400" y="326"/>
      <point x="282" y="329"/>
      <point x="166" y="332" type="curve"/>
      <point x="221" y="683" type="line"/>
      <point x="339" y="689"/>
      <point x="387" y="691"/>
      <point x="512" y="691" type="curve" smooth="yes"/>
      <point x="827" y="691"/>
      <point x="902" y="652"/>
      <point x="902" y="524" type="curve" smooth="yes"/>
      <point x="902" y="391"/>
      <point x="802" y="326"/>
    </contour>
  </outline>
</glyph>
<glyph name="T" format="2">
  <advance width="774"/>
  <unicode hex="0054"/>
  <anchor x="343" y="0" name="bottom"/>
  <anchor x="398.879" y="350" name="center"/>
  <anchor x="454.313" y="700" name="top"/>
  <outline>
    <contour>
      <point x="830" y="681" type="line"/>
      <point x="833" y="700" type="line"/>
      <point x="75" y="700" type="line"/>
      <point x="72" y="681" type="line"/>
      <point x="442" y="681" type="line"/>
      <point x="334" y="0" type="line"/>
      <point x="353" y="0" type="line"/>
      <point x="461" y="681" type="line"/>
    </contour>
  </outline>
</glyph>
<glyph name="V" format="2">
  <advance width="880"/>
  <unicode hex="0056"/>
  <outline>
    <contour>
      <point x="388" y="0" type="line"/>
      <point x="864" y="561"/>
      <point x="916" y="632"/>
      <point x="916" y="679" type="curve" smooth="yes"/>
      <point x="916" y="686"/>
      <point x="915" y="695"/>
      <point x="913" y="700" type="curve"/>
      <point x="893" y="700" type="line"/>
      <point x="896" y="691"/>
      <point x="896" y="682"/>
      <point x="896" y="678" type="curve" smooth="yes"/>
      <point x="896" y="636"/>
      <point x="853" y="583"/>
      <point x="381" y="20" type="curve"/>
      <point x="93" y="711" type="line"/>
      <point x="76" y="702" type="line"/>
      <point x="368" y="0" type="line"/>
    </contour>
  </outline>
</glyph>
<glyph name="Y" format="2">
  <advance width="816"/>
  <unicode hex="0059"/>
  <anchor x="358" y="0" name="bottom"/>
  <anchor x="483" y="700" name="top"/>
  <anchor x="75" y="700" name="topleft"/>
  <outline>
    <contour>
      <point x="369" y="0" type="line"/>
      <point x="388" y="0" type="line"/>
      <point x="439" y="300" type="line"/>
      <point x="713" y="493"/>
      <point x="793" y="570"/>
      <point x="840" y="660" type="curve" smooth="yes"/>
      <point x="847" y="673"/>
      <point x="853" y="686"/>
      <point x="858" y="700" type="curve"/>
      <point x="841" y="709" type="line"/>
      <point x="835" y="693"/>
      <point x="828" y="679"/>
      <point x="820" y="664" type="curve" smooth="yes"/>
      <point x="776" y="585"/>
      <point x="708" y="514"/>
      <point x="430" y="315" type="curve"/>
      <point x="82" y="710" type="line"/>
      <point x="67" y="697" type="line"/>
      <point x="419" y="300" type="line"/>
    </contour>
  </outline>
</glyph>
<glyph name="asciicircum" format="2">
  <advance width="511"/>
  <unicode hex="005E"/>
  <outline>
    <contour>
      <point x="59" y="276" type="line"/>
      <point x="80" y="276" type="line"/>
      <point x="321" y="685" type="line"/>
      <point x="433" y="276" type="line"/>
      <point x="452" y="276" type="line"/>
      <point x="333" y="710" type="line"/>
      <point x="315" y="710" type="line"/>
    </contour>
  </outline>
</glyph>
<glyph name="a" format="2">
  <advance width="790"/>
  <unicode hex="0061"/>
  <note>
15
</note>
  <anchor x="334" y="0" name="bottom"/>
  <anchor x="735" y="0" name="ogonek"/>
  <anchor x="438" y="530" name="top"/>
  <outline>
    <contour>
      <point x="694" y="-10" type="curve" smooth="yes"/>
      <point x="709" y="-10"/>
      <point x="723" y="-8"/>
      <point x="736" y="-3" type="curve"/>
      <point x="734" y="14" type="line"/>
      <point x="724" y="10"/>
      <point x="712" y="8"/>
      <point x="698" y="8" type="curve" smooth="yes"/>
      <point x="657" y="8"/>
      <point x="637" y="33"/>
      <point x="637" y="85" type="curve" smooth="yes"/>
      <point x="637" y="92"/>
      <point x="674" y="324"/>
      <point x="702" y="496" type="curve"/>
      <point x="642" y="524"/>
      <point x="559" y="540"/>
      <point x="479" y="540" type="curve" smooth="yes"/>
      <point x="226" y="540"/>
      <point x="54" y="408"/>
      <point x="54" y="213" type="curve" smooth="yes"/>
      <point x="54" y="72"/>
      <point x="152" y="-10"/>
      <point x="319" y="-10" type="curve" smooth="yes"/>
      <point x="419" y="-10"/>
      <point x="540" y="27"/>
      <point x="620" y="83" type="curve"/>
      <point x="620" y="24"/>
      <point x="647" y="-10"/>
    </contour>
    <contour>
      <point x="618" y="103" type="line"/>
      <point x="537" y="47"/>
      <point x="422" y="9"/>
      <point x="324" y="9" type="curve" smooth="yes"/>
      <point x="165" y="9"/>
      <point x="74" y="85"/>
      <point x="74" y="216" type="curve" smooth="yes"/>
      <point x="74" y="394"/>
      <point x="237" y="522"/>
      <point x="468" y="522" type="curve" smooth="yes"/>
      <point x="553" y="522"/>
      <point x="627" y="509"/>
      <point x="679" y="484" type="curve"/>
    </contour>
  </outline>
</glyph>
<glyph name="d" format="2">
  <advance width="801"/>
  <unicode hex="0064"/>
  <note>
17
</note>
  <anchor x="331" y="0" name="bottom"/>
  <anchor x="395" y="275" name="center"/>
  <anchor x="479" y="740" name="top"/>
  <anchor x="858" y="740" name="topright"/>
  <outline>
    <contour>
      <point x="697" y="-10" type="curve" smooth="yes"/>
      <point x="707" y="-10"/>
      <point x="720" y="-8"/>
      <point x="735" y="-3" type="curve"/>
      <point x="730" y="14" type="line"/>
      <point x="720" y="10"/>
      <point x="708" y="8"/>
      <point x="694" y="8" type="curve" smooth="yes"/>
      <point x="655" y="8"/>
      <point x="633" y="33"/>
      <point x="633" y="76" type="curve" smooth="yes"/>
      <point x="633" y="82"/>
      <point x="738" y="740"/>
      <point x="738" y="740" type="curve"/>
      <point x="719" y="740" type="line"/>
      <point x="683" y="514" type="line"/>
      <point x="629" y="526"/>
      <point x="565" y="540"/>
      <point x="473" y="540" type="curve" smooth="yes"/>
      <point x="237" y="540"/>
      <point x="54" y="414"/>
      <point x="54" y="213" type="curve" smooth="yes"/>
      <point x="54" y="66"/>
      <point x="161" y="-10"/>
      <point x="312" y="-10" type="curve" smooth="yes"/>
      <point x="413" y="-10"/>
      <point x="544" y="27"/>
      <point x="615" y="72" type="curve"/>
      <point x="616" y="19"/>
      <point x="645" y="-10"/>
    </contour>
    <contour>
      <point x="315" y="9" type="curve" smooth="yes"/>
      <point x="174" y="9"/>
      <point x="74" y="80"/>
      <point x="74" y="218" type="curve" smooth="yes"/>
      <point x="74" y="398"/>
      <point x="247" y="522"/>
      <point x="462" y="522" type="curve" smooth="yes"/>
      <point x="561" y="522"/>
      <point x="629" y="506"/>
      <point x="680" y="495" type="curve"/>
      <point x="616" y="92" type="line"/>
      <point x="533" y="43"/>
      <point x="416" y="9"/>
    </contour>
  </outline>
</glyph>
<glyph name="e" format="2">
  <advance width="759"/>
  <unicode hex="0065"/>
  <note>
14 points
</note>
  <anchor x="377" y="0" name="bottom"/>
  <anchor x="537" y="13" name="ogonek"/>
  <anchor x="471" y="530" name="top"/>
  <outline>
    <contour>
      <point x="78" y="282" type="curve"/>
      <point x="74" y="265" type="line"/>
      <point x="147" y="250"/>
      <point x="244" y="240"/>
      <point x="333" y="240" type="curve" smooth="yes"/>
      <point x="583" y="240"/>
      <point x="714" y="286"/>
      <point x="714" y="394" type="curve" smooth="yes"/>
      <point x="714" y="488"/>
      <point x="612" y="540"/>
      <point x="453" y="540" type="curve" smooth="yes"/>
      <point x="215" y="540"/>
      <point x="61" y="423"/>
      <point x="61" y="224" type="curve" smooth="yes"/>
      <point x="61" y="85"/>
      <point x="180" y="-10"/>
      <point x="364" y="-10" type="curve" smooth="yes"/>
      <point x="469" y="-10"/>
      <point x="576" y="13"/>
      <point x="670" y="53" type="curve"/>
      <point x="664" y="71" type="line"/>
      <point x="563" y="30"/>
      <point x="463" y="9"/>
      <point x="365" y="9" type="curve" smooth="yes"/>
      <point x="192" y="9"/>
      <point x="80" y="96"/>
      <point x="80" y="224" type="curve" smooth="yes"/>
      <point x="80" y="410"/>
      <point x="228" y="521"/>
      <point x="452" y="521" type="curve" smooth="yes"/>
      <point x="603" y="521"/>
      <point x="695" y="475"/>
      <point x="695" y="391" type="curve" smooth="yes"/>
      <point x="695" y="299"/>
      <point x="567" y="259"/>
      <point x="339" y="259" type="curve" smooth="yes"/>
      <point x="248" y="259"/>
      <point x="153" y="266"/>
    </contour>
  </outline>
</glyph>
<glyph name="i" format="2">
  <advance width="267"/>
  <unicode hex="0069"/>
  <note>
Ajuster pts sur points
8
</note>
  <anchor x="89" y="0" name="bottom"/>
  <anchor x="99" y="0" name="ogonek"/>
  <anchor x="174" y="530" name="top"/>
  <outline>
    <contour>
      <point x="80" y="0" type="line"/>
      <point x="99" y="0" type="line"/>
      <point x="183" y="530" type="line"/>
      <point x="164" y="530" type="line"/>
    </contour>
    <contour>
      <point x="202" y="710" type="curve" smooth="yes"/>
      <point x="189" y="710"/>
      <point x="184" y="710"/>
      <point x="183" y="684" type="curve" smooth="yes"/>
      <point x="183" y="677"/>
      <point x="189" y="676"/>
      <point x="194" y="676" type="curve" smooth="yes"/>
      <point x="212" y="676"/>
      <point x="213" y="676"/>
      <point x="215" y="703" type="curve" smooth="yes"/>
      <point x="215" y="709"/>
      <point x="212" y="710"/>
    </contour>
  </outline>
</glyph>
<glyph name="j" format="2">
  <advance width="271"/>
  <unicode hex="006A"/>
  <note>
idem /i
12
</note>
  <outline>
    <contour>
      <point x="206" y="710" type="curve" smooth="yes"/>
      <point x="193" y="710"/>
      <point x="190" y="710"/>
      <point x="189" y="684" type="curve" smooth="yes"/>
      <point x="189" y="677"/>
      <point x="193" y="676"/>
      <point x="198" y="676" type="curve" smooth="yes"/>
      <point x="213" y="676"/>
      <point x="215" y="676"/>
      <point x="217" y="703" type="curve" smooth="yes"/>
      <point x="217" y="709"/>
      <point x="216" y="710"/>
    </contour>
    <contour>
      <point x="187" y="530" type="line"/>
      <point x="168" y="530" type="line"/>
      <point x="74" y="-66" type="line" smooth="yes"/>
      <point x="60" y="-154"/>
      <point x="31" y="-203"/>
      <point x="-30" y="-203" type="curve" smooth="yes"/>
      <point x="-45" y="-203"/>
      <point x="-67" y="-201"/>
      <point x="-93" y="-190" type="curve"/>
      <point x="-98" y="-207" type="line"/>
      <point x="-79" y="-217"/>
      <point x="-40" y="-220"/>
      <point x="-29" y="-220" type="curve" smooth="yes"/>
      <point x="42" y="-220"/>
      <point x="77" y="-166"/>
      <point x="92" y="-71" type="curve" smooth="yes"/>
    </contour>
  </outline>
</glyph>
<glyph name="k" format="2">
  <advance width="717"/>
  <unicode hex="006B"/>
  <anchor x="325" y="0" name="bottom"/>
  <anchor x="208" y="740" name="top"/>
  <outline>
    <contour>
      <point x="81" y="0" type="line"/>
      <point x="101" y="0" type="line"/>
      <point x="218" y="740" type="line"/>
      <point x="198" y="740" type="line"/>
    </contour>
    <contour>
      <point x="657" y="-10" type="curve" smooth="yes"/>
      <point x="666" y="-10"/>
      <point x="678" y="-7"/>
      <point x="684" y="-3" type="curve"/>
      <point x="678" y="11" type="line"/>
      <point x="672" y="8"/>
      <point x="663" y="7"/>
      <point x="657" y="7" type="curve" smooth="yes"/>
      <point x="621" y="7"/>
      <point x="569" y="45"/>
      <point x="411" y="179" type="curve" smooth="yes"/>
      <point x="152" y="399" type="line"/>
      <point x="149" y="376" type="line"/>
      <point x="409" y="155" type="line" smooth="yes"/>
      <point x="562" y="26"/>
      <point x="608" y="-10"/>
    </contour>
    <contour>
      <point x="290" y="264" type="line"/>
      <point x="481" y="333"/>
      <point x="629" y="427"/>
      <point x="707" y="528" type="curve"/>
      <point x="694" y="540" type="line"/>
      <point x="596" y="427"/>
      <point x="504" y="367"/>
      <point x="274" y="276" type="curve"/>
    </contour>
  </outline>
</glyph>
<glyph name="q" format="2">
  <advance width="788"/>
  <unicode hex="0071"/>
  <note>
12
</note>
  <outline>
    <contour>
      <point x="701" y="509" type="line"/>
      <point x="632" y="525"/>
      <point x="554" y="540"/>
      <point x="464" y="540" type="curve" smooth="yes"/>
      <point x="213" y="540"/>
      <point x="54" y="412"/>
      <point x="54" y="204" type="curve" smooth="yes"/>
      <point x="54" y="84"/>
      <point x="149" y="-10"/>
      <point x="300" y="-10" type="curve" smooth="yes"/>
      <point x="413" y="-10"/>
      <point x="514" y="29"/>
      <point x="619" y="107" type="curve"/>
      <point x="568" y="-210" type="line"/>
      <point x="587" y="-210" type="line"/>
    </contour>
    <contour>
      <point x="680" y="493" type="curve"/>
      <point x="622" y="129" type="line"/>
      <point x="499" y="40"/>
      <point x="405" y="9"/>
      <point x="302" y="9" type="curve" smooth="yes"/>
      <point x="168" y="9"/>
      <point x="74" y="85"/>
      <point x="74" y="209" type="curve" smooth="yes"/>
      <point x="74" y="400"/>
      <point x="226" y="521"/>
      <point x="461" y="521" type="curve" smooth="yes"/>
      <point x="550" y="521"/>
      <point x="629" y="504"/>
    </contour>
  </outline>
</glyph>
<glyph name="s" format="2">
  <advance width="716"/>
  <unicode hex="0073"/>
  <anchor x="327" y="0" name="bottom"/>
  <anchor x="401" y="530" name="top"/>
  <outline>
    <contour>
      <point x="16" y="42" type="line"/>
      <point x="88" y="16"/>
      <point x="198" y="-10"/>
      <point x="326" y="-10" type="curve" smooth="yes"/>
      <point x="529" y="-10"/>
      <point x="637" y="47"/>
      <point x="637" y="139" type="curve" smooth="yes"/>
      <point x="637" y="340"/>
      <point x="117" y="223"/>
      <point x="117" y="397" type="curve" smooth="yes"/>
      <point x="117" y="471"/>
      <point x="211" y="521"/>
      <point x="396" y="521" type="curve" smooth="yes"/>
      <point x="491" y="521"/>
      <point x="572" y="506"/>
      <point x="640" y="484" type="curve"/>
      <point x="647" y="503" type="line"/>
      <point x="581" y="525"/>
      <point x="483" y="540"/>
      <point x="402" y="540" type="curve" smooth="yes"/>
      <point x="199" y="540"/>
      <point x="98" y="483"/>
      <point x="98" y="393" type="curve" smooth="yes"/>
      <point x="98" y="204"/>
      <point x="618" y="315"/>
      <point x="618" y="137" type="curve" smooth="yes"/>
      <point x="618" y="62"/>
      <point x="516" y="9"/>
      <point x="334" y="9" type="curve" smooth="yes"/>
      <point x="204" y="9"/>
      <point x="93" y="35"/>
      <point x="25" y="62" type="curve"/>
    </contour>
  </outline>
</glyph>
<glyph name="v" format="2">
  <advance width="664"/>
  <unicode hex="0076"/>
  <outline>
    <contour>
      <point x="300" y="0" type="line"/>
      <point x="627" y="427"/>
      <point x="676" y="446"/>
      <point x="680" y="530" type="curve"/>
      <point x="662" y="530" type="line"/>
      <point x="655" y="442"/>
      <point x="600" y="423"/>
      <point x="293" y="19" type="curve"/>
      <point x="59" y="540" type="line"/>
      <point x="42" y="533" type="line"/>
      <point x="282" y="0" type="line"/>
    </contour>
  </outline>
</glyph>
<glyph name="x" format="2">
  <advance width="684"/>
  <unicode hex="0078"/>
  <outline>
    <contour>
      <point x="667" y="530" type="line"/>
      <point x="611" y="448"/>
      <point x="564" y="409"/>
      <point x="339" y="295" type="curve"/>
      <point x="99" y="541" type="line"/>
      <point x="85" y="528" type="line"/>
      <point x="320" y="288" type="line"/>
      <point x="79" y="158"/>
      <point x="26" y="87"/>
      <point x="-10" y="0" type="curve"/>
      <point x="9" y="0" type="line"/>
      <point x="45" y="67"/>
      <point x="63" y="128"/>
      <point x="334" y="274" type="curve"/>
      <point x="613" y="-10" type="line"/>
      <point x="625" y="3" type="line"/>
      <point x="353" y="281" type="line"/>
      <point x="597" y="404"/>
      <point x="648" y="461"/>
      <point x="684" y="530" type="curve"/>
    </contour>
  </outline>
</glyph>
<glyph name="y" format="2">
  <advance width="679"/>
  <unicode hex="0079"/>
  <anchor x="439" y="0" name="bottom"/>
  <anchor x="375" y="530" name="top"/>
  <outline>
    <contour>
      <point x="673" y="530" type="line"/>
      <point x="680" y="471"/>
      <point x="496" y="205"/>
      <point x="323" y="2" type="curve"/>
      <point x="59" y="540" type="line"/>
      <point x="42" y="533" type="line"/>
      <point x="310" y="-10" type="line"/>
      <point x="312" y="-10" type="line"/>
      <point x="238" y="-95"/>
      <point x="167" y="-167"/>
      <point x="115" y="-206" type="curve"/>
      <point x="127" y="-221" type="line"/>
      <point x="314" y="-85"/>
      <point x="713" y="453"/>
      <point x="691" y="530" type="curve"/>
    </contour>
  </outline>
</glyph>
<glyph name="z" format="2">
  <advance width="728"/>
  <unicode hex="007A"/>
  <anchor x="339" y="0" name="bottom"/>
  <anchor x="359" y="275" name="center"/>
  <anchor x="390" y="530" name="top"/>
  <outline>
    <contour>
      <point x="28" y="0" type="line"/>
      <point x="649" y="0" type="line"/>
      <point x="652" y="19" type="line"/>
      <point x="64" y="19" type="line"/>
      <point x="695" y="512" type="line"/>
      <point x="698" y="530" type="line"/>
      <point x="116" y="530" type="line"/>
      <point x="113" y="511" type="line"/>
      <point x="662" y="511" type="line"/>
      <point x="30" y="18" type="line"/>
    </contour>
  </outline>
</glyph>
<glyph name="braceleft" format="2">
  <advance width="460"/>
  <unicode hex="007B"/>
  <outline>
    <contour>
      <point x="138" y="-100" type="curve" smooth="yes"/>
      <point x="138" y="-159"/>
      <point x="170" y="-210"/>
      <point x="283" y="-210" type="curve" smooth="yes"/>
      <point x="344" y="-210" type="line"/>
      <point x="347" y="-190" type="line"/>
      <point x="286" y="-190" type="line" smooth="yes"/>
      <point x="187" y="-190"/>
      <point x="158" y="-146"/>
      <point x="158" y="-96" type="curve" smooth="yes"/>
      <point x="158" y="-5"/>
      <point x="230" y="79"/>
      <point x="230" y="190" type="curve" smooth="yes"/>
      <point x="230" y="224"/>
      <point x="215" y="252"/>
      <point x="184" y="264" type="curve"/>
      <point x="248" y="274"/>
      <point x="267" y="347"/>
      <point x="267" y="437" type="curve" smooth="yes"/>
      <point x="267" y="478"/>
      <point x="263" y="518"/>
      <point x="263" y="549" type="curve" smooth="yes"/>
      <point x="263" y="618"/>
      <point x="281" y="720"/>
      <point x="431" y="720" type="curve" smooth="yes"/>
      <point x="492" y="720" type="line"/>
      <point x="495" y="740" type="line"/>
      <point x="434" y="740" type="line" smooth="yes"/>
      <point x="269" y="740"/>
      <point x="242" y="629"/>
      <point x="242" y="549" type="curve" smooth="yes"/>
      <point x="242" y="520"/>
      <point x="246" y="474"/>
      <point x="246" y="428" type="curve" smooth="yes"/>
      <point x="246" y="340"/>
      <point x="227" y="274"/>
      <point x="154" y="274" type="curve" smooth="yes"/>
      <point x="136" y="274" type="line"/>
      <point x="133" y="255" type="line"/>
      <point x="152" y="255" type="line" smooth="yes"/>
      <point x="193" y="255"/>
      <point x="211" y="226"/>
      <point x="211" y="192" type="curve" smooth="yes"/>
      <point x="211" y="75"/>
      <point x="138" y="-2"/>
    </contour>
  </outline>
</glyph>
<glyph name="bar" format="2">
  <advance width="302"/>
  <unicode hex="007C"/>
  <outline>
    <contour>
      <point x="242" y="790" type="line"/>
      <point x="224" y="790" type="line"/>
      <point x="65" y="-210" type="line"/>
      <point x="83" y="-210" type="line"/>
    </contour>
  </outline>
</glyph>
<glyph name="asciitilde" format="2">
  <advance width="515"/>
  <unicode hex="007E"/>
  <outline>
    <contour>
      <point x="439" y="271" type="curve"/>
      <point x="443" y="295" type="line"/>
      <point x="417" y="275"/>
      <point x="388" y="248"/>
      <point x="350" y="248" type="curve" smooth="yes"/>
      <point x="277" y="248"/>
      <point x="250" y="350"/>
      <point x="169" y="350" type="curve" smooth="yes"/>
      <point x="139" y="350"/>
      <point x="105" y="328"/>
      <point x="80" y="309" type="curve"/>
      <point x="76" y="284" type="line"/>
      <point x="99" y="301"/>
      <point x="130" y="330"/>
      <point x="168" y="330" type="curve" smooth="yes"/>
      <point x="242" y="330"/>
      <point x="268" y="228"/>
      <point x="349" y="228" type="curve" smooth="yes"/>
      <point x="388" y="228"/>
      <point x="415" y="251"/>
    </contour>
  </outline>
</glyph>
<glyph name="yen" format="2">
  <advance width="1034"/>
  <unicode hex="00A5"/>
  <outline>
    <contour>
      <point x="197" y="366" type="line"/>
      <point x="528" y="366" type="line"/>
      <point x="502" y="196" type="line"/>
      <point x="171" y="196" type="line"/>
      <point x="167" y="176" type="line"/>
      <point x="498" y="176" type="line"/>
      <point x="471" y="0" type="line"/>
      <point x="489" y="0" type="line"/>
      <point x="516" y="176" type="line"/>
      <point x="848" y="176" type="line"/>
      <point x="852" y="196" type="line"/>
      <point x="520" y="196" type="line"/>
      <point x="546" y="366" type="line"/>
      <point x="878" y="366" type="line"/>
      <point x="882" y="386" type="line"/>
      <point x="550" y="386" type="line"/>
      <point x="963" y="692" type="line"/>
      <point x="955" y="708" type="line"/>
      <point x="543" y="404" type="line"/>
      <point x="217" y="708" type="line"/>
      <point x="203" y="692" type="line"/>
      <point x="532" y="386" type="line"/>
      <point x="201" y="386" type="line"/>
    </contour>
  </outline>
</glyph>
<glyph name="ordfeminine" format="2">
  <advance width="535"/>
  <unicode hex="00AA"/>
  <outline>
    <contour>
      <point x="60" y="275" type="line"/>
      <point x="450" y="275" type="line"/>
      <point x="453" y="293" type="line"/>
      <point x="63" y="293" type="line"/>
    </contour>
    <contour>
      <point x="466" y="652" type="curve"/>
      <point x="430" y="669"/>
      <point x="382" y="678"/>
      <point x="336" y="678" type="curve" smooth="yes"/>
      <point x="206" y="678"/>
      <point x="90" y="616"/>
      <point x="90" y="491" type="curve" smooth="yes"/>
      <point x="90" y="404"/>
      <point x="156" y="364"/>
      <point x="244" y="364" type="curve" smooth="yes"/>
      <point x="308" y="364"/>
      <point x="372" y="388"/>
      <point x="413" y="414" type="curve"/>
      <point x="415" y="381"/>
      <point x="433" y="364"/>
      <point x="458" y="364" type="curve" smooth="yes"/>
      <point x="467" y="364"/>
      <point x="476" y="365"/>
      <point x="485" y="369" type="curve"/>
      <point x="484" y="385" type="line"/>
      <point x="471" y="381"/>
      <point x="465" y="380"/>
      <point x="460" y="380" type="curve" smooth="yes"/>
      <point x="438" y="380"/>
      <point x="429" y="394"/>
      <point x="429" y="420" type="curve" smooth="yes"/>
      <point x="429" y="428"/>
      <point x="466" y="652"/>
    </contour>
    <contour>
      <point x="108" y="491" type="curve" smooth="yes"/>
      <point x="108" y="613"/>
      <point x="227" y="662"/>
      <point x="329" y="662" type="curve" smooth="yes"/>
      <point x="383" y="662"/>
      <point x="422" y="653"/>
      <point x="447" y="641" type="curve"/>
      <point x="413" y="433" type="line"/>
      <point x="367" y="402"/>
      <point x="301" y="381"/>
      <point x="247" y="381" type="curve" smooth="yes"/>
      <point x="167" y="381"/>
      <point x="108" y="417"/>
    </contour>
  </outline>
</glyph>
<glyph name="logicalnot" format="2">
  <advance width="513"/>
  <unicode hex="00AC"/>
  <outline>
    <contour>
      <point x="80" y="384" type="line"/>
      <point x="448" y="384" type="line"/>
      <point x="416" y="177" type="line"/>
      <point x="434" y="177" type="line"/>
      <point x="469" y="402" type="line"/>
      <point x="83" y="402" type="line"/>
    </contour>
  </outline>
</glyph>
<glyph name="registered" format="2">
  <advance width="984"/>
  <unicode hex="00AE"/>
  <outline>
    <contour>
      <point x="525" y="212" type="curve" smooth="yes"/>
      <point x="798" y="212"/>
      <point x="953" y="345"/>
      <point x="953" y="579" type="curve" smooth="yes"/>
      <point x="953" y="784"/>
      <point x="814" y="890"/>
      <point x="546" y="890" type="curve" smooth="yes"/>
      <point x="273" y="890"/>
      <point x="118" y="757"/>
      <point x="118" y="523" type="curve" smooth="yes"/>
      <point x="118" y="318"/>
      <point x="257" y="212"/>
    </contour>
    <contour>
      <point x="525" y="230" type="curve" smooth="yes"/>
      <point x="268" y="230"/>
      <point x="137" y="329"/>
      <point x="137" y="523" type="curve" smooth="yes"/>
      <point x="137" y="747"/>
      <point x="283" y="872"/>
      <point x="546" y="872" type="curve" smooth="yes"/>
      <point x="803" y="872"/>
      <point x="934" y="773"/>
      <point x="934" y="579" type="curve" smooth="yes"/>
      <point x="934" y="355"/>
      <point x="788" y="230"/>
    </contour>
    <contour>
      <point x="354" y="400" type="line"/>
      <point x="370" y="400" type="line"/>
      <point x="393" y="539" type="line"/>
      <point x="447" y="538"/>
      <point x="483" y="537"/>
      <point x="557" y="538" type="curve"/>
      <point x="564" y="538" type="line"/>
      <point x="669" y="541"/>
      <point x="706" y="566"/>
      <point x="706" y="632" type="curve" smooth="yes"/>
      <point x="706" y="693"/>
      <point x="653" y="713"/>
      <point x="534" y="713" type="curve" smooth="yes"/>
      <point x="482" y="713"/>
      <point x="454" y="713"/>
      <point x="403" y="710" type="curve"/>
    </contour>
    <contour>
      <point x="528" y="556" type="curve" smooth="yes"/>
      <point x="484" y="556"/>
      <point x="448" y="557"/>
      <point x="396" y="558" type="curve"/>
      <point x="417" y="690" type="line"/>
      <point x="467" y="694"/>
      <point x="479" y="694"/>
      <point x="531" y="694" type="curve" smooth="yes"/>
      <point x="643" y="694"/>
      <point x="688" y="680"/>
      <point x="688" y="629" type="curve" smooth="yes"/>
      <point x="688" y="572"/>
      <point x="653" y="556"/>
    </contour>
    <contour>
      <point x="733" y="399" type="curve" smooth="yes"/>
      <point x="735" y="399"/>
      <point x="738" y="399"/>
      <point x="740" y="399" type="curve"/>
      <point x="742" y="418" type="line"/>
      <point x="741" y="418"/>
      <point x="739" y="418"/>
      <point x="738" y="418" type="curve" smooth="yes"/>
      <point x="696" y="418"/>
      <point x="625" y="472"/>
      <point x="569" y="544" type="curve"/>
      <point x="546" y="543" type="line"/>
      <point x="605" y="464"/>
      <point x="685" y="399"/>
    </contour>
  </outline>
</glyph>
<glyph name="plusminus" format="2">
  <advance width="513"/>
  <unicode hex="00B1"/>
  <outline>
    <contour>
      <point x="418" y="74" type="line"/>
      <point x="421" y="92" type="line"/>
      <point x="237" y="92" type="line"/>
      <point x="269" y="299" type="line"/>
      <point x="453" y="299" type="line"/>
      <point x="456" y="317" type="line"/>
      <point x="272" y="317" type="line"/>
      <point x="305" y="525" type="line"/>
      <point x="287" y="525" type="line"/>
      <point x="254" y="317" type="line"/>
      <point x="70" y="317" type="line"/>
      <point x="67" y="299" type="line"/>
      <point x="251" y="299" type="line"/>
      <point x="219" y="92" type="line"/>
      <point x="35" y="92" type="line"/>
      <point x="32" y="74" type="line"/>
    </contour>
  </outline>
</glyph>
<glyph name="uni00B3" format="2">
  <advance width="561"/>
  <unicode hex="00B3"/>
  <outline>
    <contour>
      <point x="47" y="420" type="line"/>
      <point x="111" y="381"/>
      <point x="185" y="364"/>
      <point x="303" y="364" type="curve" smooth="yes"/>
      <point x="467" y="364"/>
      <point x="544" y="401"/>
      <point x="544" y="486" type="curve" smooth="yes"/>
      <point x="544" y="537"/>
      <point x="500" y="572"/>
      <point x="424" y="582" type="curve"/>
      <point x="489" y="596"/>
      <point x="531" y="631"/>
      <point x="531" y="675" type="curve" smooth="yes"/>
      <point x="531" y="735"/>
      <point x="462" y="770"/>
      <point x="335" y="770" type="curve" smooth="yes"/>
      <point x="284" y="770"/>
      <point x="203" y="760"/>
      <point x="140" y="746" type="curve"/>
      <point x="145" y="730" type="line"/>
      <point x="207" y="744"/>
      <point x="285" y="754"/>
      <point x="333" y="754" type="curve" smooth="yes"/>
      <point x="447" y="754"/>
      <point x="514" y="725"/>
      <point x="514" y="676" type="curve" smooth="yes"/>
      <point x="514" y="623"/>
      <point x="437" y="587"/>
      <point x="359" y="587" type="curve" smooth="yes"/>
      <point x="208" y="587" type="line"/>
      <point x="206" y="571" type="line"/>
      <point x="350" y="571" type="line" smooth="yes"/>
      <point x="466" y="571"/>
      <point x="526" y="541"/>
      <point x="526" y="483" type="curve" smooth="yes"/>
      <point x="526" y="412"/>
      <point x="452" y="380"/>
      <point x="302" y="380" type="curve" smooth="yes"/>
      <point x="191" y="380"/>
      <point x="120" y="397"/>
      <point x="58" y="435" type="curve"/>
    </contour>
  </outline>
</glyph>
<glyph name="uni00B5" format="2">
  <advance width="806"/>
  <unicode hex="00B5"/>
  <outline>
    <contour>
      <point x="49" y="-210" type="line"/>
      <point x="68" y="-210" type="line"/>
      <point x="115" y="93" type="line"/>
      <point x="132" y="29"/>
      <point x="187" y="-10"/>
      <point x="283" y="-10" type="curve" smooth="yes"/>
      <point x="409" y="-10"/>
      <point x="503" y="26"/>
      <point x="626" y="89" type="curve"/>
      <point x="626" y="17"/>
      <point x="653" y="-10"/>
      <point x="703" y="-10" type="curve" smooth="yes"/>
      <point x="711" y="-10"/>
      <point x="731" y="-7"/>
      <point x="745" y="0" type="curve"/>
      <point x="742" y="17" type="line"/>
      <point x="728" y="12"/>
      <point x="711" y="9"/>
      <point x="704" y="9" type="curve" smooth="yes"/>
      <point x="666" y="9"/>
      <point x="645" y="28"/>
      <point x="645" y="86" type="curve" smooth="yes"/>
      <point x="645" y="100"/>
      <point x="646" y="130"/>
      <point x="710" y="530" type="curve"/>
      <point x="690" y="530" type="line"/>
      <point x="627" y="108" type="line"/>
      <point x="502" y="45"/>
      <point x="412" y="9"/>
      <point x="287" y="9" type="curve" smooth="yes"/>
      <point x="179" y="9"/>
      <point x="127" y="60"/>
      <point x="127" y="140" type="curve" smooth="yes"/>
      <point x="127" y="154"/>
      <point x="128" y="182"/>
      <point x="183" y="530" type="curve"/>
      <point x="164" y="530" type="line"/>
    </contour>
  </outline>
</glyph>
<glyph name="paragraph" format="2">
  <advance width="726"/>
  <unicode hex="00B6"/>
  <outline>
    <contour>
      <point x="501" y="-210" type="line"/>
      <point x="519" y="-210" type="line"/>
      <point x="669" y="740" type="line"/>
      <point x="651" y="740" type="line"/>
    </contour>
    <contour>
      <point x="307" y="204" type="line"/>
      <point x="194" y="214"/>
      <point x="109" y="291"/>
      <point x="109" y="408" type="curve" smooth="yes"/>
      <point x="109" y="592"/>
      <point x="230" y="722"/>
      <point x="475" y="725" type="curve"/>
      <point x="328" y="-210" type="line"/>
      <point x="346" y="-210" type="line"/>
      <point x="496" y="740" type="line"/>
      <point x="485" y="740" type="line" smooth="yes"/>
      <point x="231" y="740"/>
      <point x="89" y="617"/>
      <point x="89" y="402" type="curve" smooth="yes"/>
      <point x="89" y="277"/>
      <point x="179" y="196"/>
      <point x="302" y="186" type="curve"/>
    </contour>
  </outline>
</glyph>
<glyph name="periodcentered" format="2">
  <advance width="215"/>
  <unicode hex="00B7"/>
  <outline>
    <contour>
      <point x="92" y="280" type="curve" smooth="yes"/>
      <point x="91" y="271"/>
      <point x="95" y="270"/>
      <point x="105" y="270" type="curve" smooth="yes"/>
      <point x="123" y="270"/>
      <point x="124" y="271"/>
      <point x="127" y="294" type="curve" smooth="yes"/>
      <point x="128" y="303"/>
      <point x="124" y="304"/>
      <point x="114" y="304" type="curve" smooth="yes"/>
      <point x="96" y="304"/>
      <point x="95" y="303"/>
    </contour>
  </outline>
</glyph>
<glyph name="uni00B9" format="2">
  <advance width="509"/>
  <unicode hex="00B9"/>
  <outline>
    <contour>
      <point x="39" y="370" type="line"/>
      <point x="511" y="370" type="line"/>
      <point x="513" y="386" type="line"/>
      <point x="309" y="386" type="line"/>
      <point x="371" y="768" type="line"/>
      <point x="361" y="768" type="line"/>
      <point x="81" y="650" type="line"/>
      <point x="83" y="634" type="line"/>
      <point x="352" y="745" type="line"/>
      <point x="292" y="386" type="line"/>
      <point x="40" y="386" type="line"/>
    </contour>
  </outline>
</glyph>
<glyph name="ordmasculine" format="2">
  <advance width="493"/>
  <unicode hex="00BA"/>
  <outline>
    <contour>
      <point x="48" y="275" type="line"/>
      <point x="438" y="275" type="line"/>
      <point x="441" y="293" type="line"/>
      <point x="51" y="293" type="line"/>
    </contour>
    <contour>
      <point x="297" y="678" type="curve" smooth="yes"/>
      <point x="152" y="678"/>
      <point x="81" y="626"/>
      <point x="81" y="514" type="curve" smooth="yes"/>
      <point x="81" y="419"/>
      <point x="151" y="364"/>
      <point x="274" y="364" type="curve" smooth="yes"/>
      <point x="419" y="364"/>
      <point x="490" y="416"/>
      <point x="490" y="528" type="curve" smooth="yes"/>
      <point x="490" y="623"/>
      <point x="420" y="678"/>
    </contour>
    <contour>
      <point x="293" y="661" type="curve" smooth="yes"/>
      <point x="408" y="661"/>
      <point x="472" y="611"/>
      <point x="472" y="526" type="curve" smooth="yes"/>
      <point x="472" y="428"/>
      <point x="408" y="381"/>
      <point x="278" y="381" type="curve" smooth="yes"/>
      <point x="163" y="381"/>
      <point x="99" y="431"/>
      <point x="99" y="516" type="curve" smooth="yes"/>
      <point x="99" y="614"/>
      <point x="163" y="661"/>
    </contour>
  </outline>
</glyph>
<glyph name="AE" format="2">
  <advance width="1416"/>
  <unicode hex="00C6"/>
  <anchor x="664.444" y="0" name="bottom"/>
  <anchor x="765" y="700" name="top"/>
  <outline>
    <contour>
      <point x="614" y="0" type="line"/>
      <point x="1313" y="0" type="line"/>
      <point x="1316" y="19" type="line"/>
      <point x="636" y="19" type="line"/>
      <point x="688" y="347" type="line"/>
      <point x="1284" y="347" type="line"/>
      <point x="1287" y="366" type="line"/>
      <point x="691" y="366" type="line"/>
      <point x="741" y="681" type="line"/>
      <point x="1394" y="681" type="line"/>
      <point x="1397" y="700" type="line"/>
      <point x="716" y="700" type="line"/>
      <point x="-39" y="0" type="line"/>
      <point x="-12" y="0" type="line"/>
      <point x="362" y="347" type="line"/>
      <point x="669" y="347" type="line"/>
    </contour>
    <contour>
      <point x="382" y="366" type="line"/>
      <point x="722" y="681" type="line"/>
      <point x="672" y="366" type="line"/>
    </contour>
  </outline>
</glyph>
<glyph name="Oslash" format="2">
  <advance width="1142"/>
  <unicode hex="00D8"/>
  <anchor x="617" y="700" name="top"/>
  <outline>
    <contour>
      <point x="1165" y="710" type="line"/>
      <point x="1132" y="710" type="line"/>
      <point x="972" y="608" type="line"/>
      <point x="972" y="608" type="line"/>
      <point x="182" y="105" type="line"/>
      <point x="182" y="105" type="line"/>
      <point x="1" y="-10" type="line"/>
      <point x="34" y="-10" type="line"/>
      <point x="196" y="93" type="line"/>
      <point x="196" y="93" type="line"/>
      <point x="986" y="596" type="line"/>
      <point x="986" y="596" type="line"/>
    </contour>
    <contour>
      <point x="572" y="-10" type="curve" smooth="yes"/>
      <point x="891" y="-10"/>
      <point x="1074" y="139"/>
      <point x="1074" y="398" type="curve" smooth="yes"/>
      <point x="1074" y="603"/>
      <point x="920" y="710"/>
      <point x="594" y="710" type="curve" smooth="yes"/>
      <point x="275" y="710"/>
      <point x="92" y="561"/>
      <point x="92" y="302" type="curve" smooth="yes"/>
      <point x="92" y="97"/>
      <point x="246" y="-10"/>
    </contour>
    <contour>
      <point x="572" y="9" type="curve" smooth="yes"/>
      <point x="257" y="9"/>
      <point x="111" y="108"/>
      <point x="111" y="304" type="curve" smooth="yes"/>
      <point x="111" y="551"/>
      <point x="283" y="691"/>
      <point x="594" y="691" type="curve" smooth="yes"/>
      <point x="909" y="691"/>
      <point x="1055" y="592"/>
      <point x="1055" y="396" type="curve" smooth="yes"/>
      <point x="1055" y="149"/>
      <point x="883" y="9"/>
    </contour>
  </outline>
</glyph>
<glyph name="Thorn" format="2">
  <advance width="968"/>
  <unicode hex="00DE"/>
  <outline>
    <contour>
      <point x="94" y="0" type="line"/>
      <point x="113" y="0" type="line"/>
      <point x="140" y="170" type="line"/>
      <point x="280" y="166"/>
      <point x="358" y="165"/>
      <point x="492" y="165" type="curve" smooth="yes"/>
      <point x="796" y="165"/>
      <point x="924" y="245"/>
      <point x="924" y="439" type="curve" smooth="yes"/>
      <point x="924" y="575"/>
      <point x="812" y="630"/>
      <point x="533" y="630" type="curve" smooth="yes"/>
      <point x="476" y="630"/>
      <point x="399" y="628"/>
      <point x="210" y="620" type="curve"/>
      <point x="223" y="700" type="line"/>
      <point x="204" y="700" type="line"/>
    </contour>
    <contour>
      <point x="491" y="183" type="curve" smooth="yes"/>
      <point x="353" y="183"/>
      <point x="279" y="184"/>
      <point x="143" y="189" type="curve"/>
      <point x="208" y="601" type="line"/>
      <point x="398" y="609"/>
      <point x="469" y="611"/>
      <point x="530" y="611" type="curve" smooth="yes"/>
      <point x="807" y="611"/>
      <point x="905" y="565"/>
      <point x="905" y="435" type="curve" smooth="yes"/>
      <point x="905" y="256"/>
      <point x="786" y="183"/>
    </contour>
  </outline>
</glyph>
<glyph name="divide" format="2">
  <advance width="513"/>
  <unicode hex="00F7"/>
  <outline>
    <contour>
      <point x="209" y="81" type="curve" smooth="yes"/>
      <point x="208" y="72"/>
      <point x="212" y="71"/>
      <point x="222" y="71" type="curve" smooth="yes"/>
      <point x="240" y="71"/>
      <point x="241" y="72"/>
      <point x="244" y="95" type="curve" smooth="yes"/>
      <point x="245" y="104"/>
      <point x="241" y="105"/>
      <point x="231" y="105" type="curve" smooth="yes"/>
      <point x="213" y="105"/>
      <point x="212" y="104"/>
    </contour>
    <contour>
      <point x="274" y="483" type="curve" smooth="yes"/>
      <point x="273" y="474"/>
      <point x="277" y="473"/>
      <point x="287" y="473" type="curve" smooth="yes"/>
      <point x="305" y="473"/>
      <point x="306" y="474"/>
      <point x="309" y="497" type="curve" smooth="yes"/>
      <point x="310" y="506"/>
      <point x="306" y="507"/>
      <point x="296" y="507" type="curve" smooth="yes"/>
      <point x="278" y="507"/>
      <point x="277" y="506"/>
    </contour>
    <contour>
      <point x="64" y="279" type="line"/>
      <point x="450" y="279" type="line"/>
      <point x="454" y="299" type="line"/>
      <point x="68" y="299" type="line"/>
    </contour>
  </outline>
</glyph>
<glyph name="Dcroat" format="2">
  <advance width="1073"/>
  <unicode hex="0110"/>
  <outline>
    <contour>
      <point x="25" y="352" type="line"/>
      <point x="378" y="352" type="line"/>
      <point x="381" y="370" type="line"/>
      <point x="30" y="370" type="line"/>
    </contour>
    <contour>
      <point x="441" y="-10" type="curve" smooth="yes"/>
      <point x="749" y="-10"/>
      <point x="1002" y="96"/>
      <point x="1002" y="373" type="curve" smooth="yes"/>
      <point x="1002" y="667"/>
      <point x="737" y="710"/>
      <point x="512" y="710" type="curve" smooth="yes"/>
      <point x="398" y="710"/>
      <point x="304" y="707"/>
      <point x="204" y="700" type="curve"/>
      <point x="93" y="0" type="line"/>
      <point x="219" y="-9"/>
      <point x="300" y="-10"/>
    </contour>
    <contour>
      <point x="434" y="9" type="curve" smooth="yes"/>
      <point x="311" y="9"/>
      <point x="221" y="11"/>
      <point x="115" y="18" type="curve"/>
      <point x="220" y="680" type="line"/>
      <point x="280" y="686"/>
      <point x="407" y="691"/>
      <point x="512" y="691" type="curve" smooth="yes"/>
      <point x="729" y="691"/>
      <point x="982" y="649"/>
      <point x="982" y="371" type="curve" smooth="yes"/>
      <point x="982" y="113"/>
      <point x="745" y="9"/>
    </contour>
  </outline>
</glyph>
<glyph name="dcroat" format="2">
  <advance width="788"/>
  <unicode hex="0111"/>
  <outline>
    <contour>
      <point x="464" y="618" type="line"/>
      <point x="858" y="618" type="line"/>
      <point x="861" y="636" type="line"/>
      <point x="467" y="636" type="line"/>
    </contour>
    <component base="d"/>
  </outline>
</glyph>
<glyph name="Hbar" format="2">
  <advance width="1108"/>
  <unicode hex="0126"/>
  <outline>
    <contour>
      <point x="74" y="500" type="line"/>
      <point x="1106" y="500" type="line"/>
      <point x="1109" y="520" type="line"/>
      <point x="77" y="520" type="line"/>
    </contour>
    <contour>
      <point x="94" y="0" type="line"/>
      <point x="113" y="0" type="line"/>
      <point x="159" y="291" type="line"/>
      <point x="954" y="291" type="line"/>
      <point x="908" y="0" type="line"/>
      <point x="927" y="0" type="line"/>
      <point x="1038" y="700" type="line"/>
      <point x="1019" y="700" type="line"/>
      <point x="957" y="310" type="line"/>
      <point x="162" y="310" type="line"/>
      <point x="224" y="700" type="line"/>
      <point x="205" y="700" type="line"/>
    </contour>
  </outline>
</glyph>
<glyph name="hbar" format="2">
  <advance width="830"/>
  <unicode hex="0127"/>
  <outline>
    <contour>
      <point x="51" y="618" type="line"/>
      <point x="468" y="618" type="line"/>
      <point x="471" y="636" type="line"/>
      <point x="54" y="636" type="line"/>
    </contour>
    <contour>
      <point x="678" y="69" type="curve" smooth="yes"/>
      <point x="678" y="120"/>
      <point x="718" y="304"/>
      <point x="718" y="381" type="curve" smooth="yes"/>
      <point x="718" y="482"/>
      <point x="657" y="540"/>
      <point x="531" y="540" type="curve" smooth="yes"/>
      <point x="396" y="540"/>
      <point x="290" y="490"/>
      <point x="168" y="434" type="curve"/>
      <point x="217" y="740" type="line"/>
      <point x="198" y="740" type="line"/>
      <point x="81" y="0" type="line"/>
      <point x="100" y="0" type="line"/>
      <point x="165" y="411" type="line"/>
      <point x="295" y="473"/>
      <point x="393" y="521"/>
      <point x="528" y="521" type="curve" smooth="yes"/>
      <point x="649" y="521"/>
      <point x="698" y="466"/>
      <point x="698" y="382" type="curve" smooth="yes"/>
      <point x="698" y="286"/>
      <point x="659" y="120"/>
      <point x="659" y="66" type="curve" smooth="yes"/>
      <point x="659" y="15"/>
      <point x="689" y="-10"/>
      <point x="734" y="-10" type="curve" smooth="yes"/>
      <point x="747" y="-10"/>
      <point x="768" y="-8"/>
      <point x="784" y="-1" type="curve"/>
      <point x="780" y="17" type="line"/>
      <point x="767" y="12"/>
      <point x="749" y="9"/>
      <point x="733" y="9" type="curve" smooth="yes"/>
      <point x="701" y="9"/>
      <point x="678" y="29"/>
    </contour>
  </outline>
</glyph>
<glyph name="Idotaccent" format="2">
  <advance width="293"/>
  <unicode hex="0130"/>
  <outline>
    <contour>
      <point x="242" y="871" type="curve" smooth="yes"/>
      <point x="229" y="871"/>
      <point x="224" y="871"/>
      <point x="223" y="845" type="curve" smooth="yes"/>
      <point x="223" y="838"/>
      <point x="229" y="837"/>
      <point x="234" y="837" type="curve" smooth="yes"/>
      <point x="252" y="837"/>
      <point x="253" y="837"/>
      <point x="255" y="864" type="curve" smooth="yes"/>
      <point x="255" y="870"/>
      <point x="252" y="871"/>
    </contour>
    <contour>
      <point x="93" y="0" type="line"/>
      <point x="112" y="0" type="line"/>
      <point x="223" y="700" type="line"/>
      <point x="204" y="700" type="line"/>
    </contour>
  </outline>
</glyph>
<glyph name="dotlessi" format="2">
  <advance width="267"/>
  <unicode hex="0131"/>
  <anchor x="89" y="0" name="bottom"/>
  <anchor x="99" y="0" name="ogonek"/>
  <anchor x="174" y="530" name="top"/>
  <outline>
    <contour>
      <point x="99" y="0" type="line"/>
      <point x="183" y="530" type="line"/>
      <point x="164" y="530" type="line"/>
      <point x="80" y="0" type="line"/>
    </contour>
  </outline>
</glyph>
<glyph name="kgreenlandic" format="2">
  <advance width="717"/>
  <unicode hex="0138"/>
  <anchor x="335" y="0" name="bottom"/>
  <anchor x="403" y="530" name="top"/>
  <outline>
    <contour>
      <point x="81" y="0" type="line"/>
      <point x="101" y="0" type="line"/>
      <point x="184" y="530" type="line"/>
      <point x="164" y="530" type="line"/>
    </contour>
    <contour>
      <point x="657" y="-10" type="curve" smooth="yes"/>
      <point x="666" y="-10"/>
      <point x="678" y="-7"/>
      <point x="684" y="-3" type="curve"/>
      <point x="678" y="11" type="line"/>
      <point x="672" y="8"/>
      <point x="663" y="7"/>
      <point x="657" y="7" type="curve" smooth="yes"/>
      <point x="621" y="7"/>
      <point x="569" y="45"/>
      <point x="411" y="179" type="curve" smooth="yes"/>
      <point x="152" y="399" type="line"/>
      <point x="149" y="376" type="line"/>
      <point x="409" y="155" type="line" smooth="yes"/>
      <point x="562" y="26"/>
      <point x="608" y="-10"/>
    </contour>
    <contour>
      <point x="290" y="264" type="line"/>
      <point x="481" y="333"/>
      <point x="629" y="427"/>
      <point x="707" y="528" type="curve"/>
      <point x="694" y="540" type="line"/>
      <point x="596" y="427"/>
      <point x="504" y="367"/>
      <point x="274" y="276" type="curve"/>
    </contour>
  </outline>
</glyph>
<glyph name="Ldot" format="2">
  <advance width="797"/>
  <unicode hex="013F"/>
  <outline>
    <contour>
      <point x="556" y="362" type="curve" smooth="yes"/>
      <point x="555" y="353"/>
      <point x="559" y="352"/>
      <point x="569" y="352" type="curve" smooth="yes"/>
      <point x="587" y="352"/>
      <point x="588" y="353"/>
      <point x="591" y="376" type="curve" smooth="yes"/>
      <point x="592" y="385"/>
      <point x="588" y="386"/>
      <point x="578" y="386" type="curve" smooth="yes"/>
      <point x="560" y="386"/>
      <point x="559" y="385"/>
    </contour>
    <contour>
      <point x="93" y="0" type="line"/>
      <point x="736" y="0" type="line"/>
      <point x="739" y="19" type="line"/>
      <point x="115" y="19" type="line"/>
      <point x="223" y="700" type="line"/>
      <point x="204" y="700" type="line"/>
    </contour>
  </outline>
</glyph>
<glyph name="ldot" format="2">
  <advance width="337"/>
  <unicode hex="0140"/>
  <outline>
    <contour>
      <point x="299" y="350" type="curve" smooth="yes"/>
      <point x="298" y="341"/>
      <point x="302" y="340"/>
      <point x="312" y="340" type="curve" smooth="yes"/>
      <point x="330" y="340"/>
      <point x="331" y="341"/>
      <point x="334" y="364" type="curve" smooth="yes"/>
      <point x="335" y="373"/>
      <point x="331" y="374"/>
      <point x="321" y="374" type="curve" smooth="yes"/>
      <point x="303" y="374"/>
      <point x="302" y="373"/>
    </contour>
    <component base="l"/>
  </outline>
</glyph>
<glyph name="lslash" format="2">
  <advance width="337"/>
  <unicode hex="0142"/>
  <outline>
    <contour>
      <point x="24" y="150" type="line"/>
      <point x="307" y="432" type="line"/>
      <point x="311" y="460" type="line"/>
      <point x="28" y="178" type="line"/>
    </contour>
    <component base="l"/>
  </outline>
</glyph>
<glyph name="Eng" format="2">
  <advance width="1109"/>
  <unicode hex="014A"/>
  <outline>
    <contour>
      <point x="93" y="0" type="line"/>
      <point x="113" y="0" type="line"/>
      <point x="221" y="684" type="line"/>
      <point x="904" y="-6" type="line"/>
      <point x="861" y="-160"/>
      <point x="739" y="-201"/>
      <point x="617" y="-201" type="curve" smooth="yes"/>
      <point x="559" y="-201"/>
      <point x="498" y="-192"/>
      <point x="447" y="-182" type="curve"/>
      <point x="443" y="-202" type="line"/>
      <point x="494" y="-212"/>
      <point x="554" y="-220"/>
      <point x="614" y="-220" type="curve" smooth="yes"/>
      <point x="780" y="-220"/>
      <point x="904" y="-143"/>
      <point x="933" y="36" type="curve" smooth="yes"/>
      <point x="1039" y="700" type="line"/>
      <point x="1019" y="700" type="line"/>
      <point x="911" y="14" type="line"/>
      <point x="224" y="710" type="line"/>
      <point x="206" y="710" type="line"/>
    </contour>
  </outline>
</glyph>
<glyph name="eng" format="2">
  <advance width="827"/>
  <unicode hex="014B"/>
  <outline>
    <contour>
      <point x="645" y="-77" type="curve"/>
      <point x="645" y="-77"/>
      <point x="718" y="347"/>
      <point x="718" y="381" type="curve" smooth="yes"/>
      <point x="718" y="482"/>
      <point x="657" y="540"/>
      <point x="531" y="540" type="curve" smooth="yes"/>
      <point x="396" y="540"/>
      <point x="298" y="495"/>
      <point x="168" y="433" type="curve"/>
      <point x="183" y="530" type="line"/>
      <point x="164" y="530" type="line"/>
      <point x="81" y="0" type="line"/>
      <point x="100" y="0" type="line"/>
      <point x="165" y="411" type="line"/>
      <point x="301" y="476"/>
      <point x="393" y="521"/>
      <point x="528" y="521" type="curve" smooth="yes"/>
      <point x="648" y="521"/>
      <point x="697" y="465"/>
      <point x="697" y="376" type="curve" smooth="yes"/>
      <point x="697" y="338"/>
      <point x="627" y="-72"/>
      <point x="627" y="-72" type="curve"/>
      <point x="613" y="-160"/>
      <point x="584" y="-209"/>
      <point x="523" y="-209" type="curve" smooth="yes"/>
      <point x="508" y="-209"/>
      <point x="486" y="-207"/>
      <point x="460" y="-196" type="curve"/>
      <point x="455" y="-213" type="line"/>
      <point x="474" y="-223"/>
      <point x="513" y="-226"/>
      <point x="524" y="-226" type="curve" smooth="yes"/>
      <point x="595" y="-226"/>
      <point x="630" y="-172"/>
    </contour>
  </outline>
</glyph>
<glyph name="OE" format="2">
  <advance width="1671"/>
  <unicode hex="0152"/>
  <outline>
    <contour>
      <point x="1568" y="0" type="line"/>
      <point x="1571" y="19" type="line"/>
      <point x="892" y="19" type="line"/>
      <point x="948" y="374" type="line"/>
      <point x="1571" y="374" type="line"/>
      <point x="1574" y="393" type="line"/>
      <point x="951" y="393" type="line"/>
      <point x="997" y="681" type="line"/>
      <point x="1649" y="681" type="line"/>
      <point x="1652" y="700" type="line"/>
      <point x="1000" y="700" type="line"/>
      <point x="872" y="707"/>
      <point x="728" y="710"/>
      <point x="642" y="710" type="curve" smooth="yes"/>
      <point x="301" y="710"/>
      <point x="91" y="556"/>
      <point x="91" y="307" type="curve" smooth="yes"/>
      <point x="91" y="93"/>
      <point x="242" y="-10"/>
      <point x="555" y="-10" type="curve" smooth="yes"/>
      <point x="663" y="-10"/>
      <point x="764" y="-7"/>
      <point x="889" y="0" type="curve"/>
    </contour>
    <contour>
      <point x="873" y="20" type="line"/>
      <point x="761" y="13"/>
      <point x="675" y="9"/>
      <point x="567" y="9" type="curve" smooth="yes"/>
      <point x="257" y="9"/>
      <point x="111" y="105"/>
      <point x="111" y="310" type="curve" smooth="yes"/>
      <point x="111" y="543"/>
      <point x="319" y="691"/>
      <point x="647" y="691" type="curve" smooth="yes"/>
      <point x="692" y="691"/>
      <point x="920" y="687"/>
      <point x="978" y="682" type="curve"/>
    </contour>
  </outline>
</glyph>
<glyph name="oe" format="2">
  <advance width="1446"/>
  <unicode hex="0153"/>
  <outline>
    <contour>
      <point x="404" y="-10" type="curve" smooth="yes"/>
      <point x="583" y="-10"/>
      <point x="698" y="51"/>
      <point x="742" y="167" type="curve"/>
      <point x="759" y="51"/>
      <point x="856" y="-10"/>
      <point x="1021" y="-10" type="curve" smooth="yes"/>
      <point x="1126" y="-10"/>
      <point x="1263" y="16"/>
      <point x="1357" y="53" type="curve"/>
      <point x="1351" y="71" type="line"/>
      <point x="1250" y="33"/>
      <point x="1120" y="9"/>
      <point x="1022" y="9" type="curve" smooth="yes"/>
      <point x="852" y="9"/>
      <point x="758" y="80"/>
      <point x="758" y="207" type="curve" smooth="yes"/>
      <point x="758" y="390"/>
      <point x="914" y="521"/>
      <point x="1155" y="521" type="curve" smooth="yes"/>
      <point x="1302" y="521"/>
      <point x="1382" y="479"/>
      <point x="1382" y="401" type="curve" smooth="yes"/>
      <point x="1382" y="310"/>
      <point x="1254" y="259"/>
      <point x="1026" y="259" type="curve" smooth="yes"/>
      <point x="935" y="259"/>
      <point x="830" y="269"/>
      <point x="755" y="285" type="curve"/>
      <point x="751" y="265" type="line"/>
      <point x="824" y="250"/>
      <point x="931" y="240"/>
      <point x="1020" y="240" type="curve" smooth="yes"/>
      <point x="1270" y="240"/>
      <point x="1401" y="297"/>
      <point x="1401" y="405" type="curve" smooth="yes"/>
      <point x="1401" y="490"/>
      <point x="1311" y="540"/>
      <point x="1156" y="540" type="curve" smooth="yes"/>
      <point x="956" y="540"/>
      <point x="814" y="456"/>
      <point x="762" y="326" type="curve"/>
      <point x="752" y="465"/>
      <point x="635" y="540"/>
      <point x="424" y="540" type="curve" smooth="yes"/>
      <point x="188" y="540"/>
      <point x="64" y="434"/>
      <point x="64" y="233" type="curve" smooth="yes"/>
      <point x="64" y="72"/>
      <point x="180" y="-10"/>
    </contour>
    <contour>
      <point x="404" y="9" type="curve" smooth="yes"/>
      <point x="194" y="9"/>
      <point x="83" y="86"/>
      <point x="83" y="233" type="curve" smooth="yes"/>
      <point x="83" y="423"/>
      <point x="198" y="521"/>
      <point x="424" y="521" type="curve" smooth="yes"/>
      <point x="637" y="521"/>
      <point x="745" y="444"/>
      <point x="745" y="297" type="curve" smooth="yes"/>
      <point x="745" y="107"/>
      <point x="630" y="9"/>
    </contour>
  </outline>
</glyph>
<glyph name="uni0162" format="2">
  <advance width="774"/>
  <unicode hex="0162"/>
  <anchor x="343" y="0" name="_bottom"/>
  <anchor x="304" y="-220" name="bottom"/>
  <outline>
    <contour>
      <point x="173" y="-180" type="line"/>
      <point x="216" y="-208"/>
      <point x="255" y="-220"/>
      <point x="313" y="-220" type="curve" smooth="yes"/>
      <point x="396" y="-220"/>
      <point x="445" y="-173"/>
      <point x="445" y="-104" type="curve" smooth="yes"/>
      <point x="445" y="-48"/>
      <point x="406" y="-10"/>
      <point x="348" y="5" type="curve"/>
      <point x="334" y="0" type="line"/>
      <point x="396" y="-22"/>
      <point x="425" y="-51"/>
      <point x="425" y="-106" type="curve" smooth="yes"/>
      <point x="425" y="-166"/>
      <point x="382" y="-202"/>
      <point x="310" y="-202" type="curve" smooth="yes"/>
      <point x="261" y="-202"/>
      <point x="224" y="-188"/>
      <point x="182" y="-163" type="curve"/>
    </contour>
    <contour>
      <point x="830" y="681" type="line"/>
      <point x="833" y="700" type="line"/>
      <point x="75" y="700" type="line"/>
      <point x="72" y="681" type="line"/>
      <point x="442" y="681" type="line"/>
      <point x="334" y="0" type="line"/>
      <point x="353" y="0" type="line"/>
      <point x="461" y="681" type="line"/>
    </contour>
  </outline>
</glyph>
<glyph name="tbar" format="2">
  <advance width="556"/>
  <unicode hex="0167"/>
  <outline>
    <contour>
      <point x="52" y="314" type="line"/>
      <point x="454" y="314" type="line"/>
      <point x="457" y="332" type="line"/>
      <point x="55" y="332" type="line"/>
    </contour>
    <contour>
      <point x="491" y="49" type="line"/>
      <point x="429" y="26"/>
      <point x="360" y="9"/>
      <point x="294" y="9" type="curve" smooth="yes"/>
      <point x="190" y="9"/>
      <point x="157" y="58"/>
      <point x="157" y="128" type="curve" smooth="yes"/>
      <point x="157" y="143"/>
      <point x="158" y="159"/>
      <point x="161" y="175" type="curve" smooth="yes"/>
      <point x="214" y="513" type="line"/>
      <point x="547" y="513" type="line"/>
      <point x="550" y="530" type="line"/>
      <point x="217" y="530" type="line"/>
      <point x="239" y="665" type="line"/>
      <point x="228" y="665" type="line"/>
      <point x="198" y="530" type="line"/>
      <point x="37" y="524" type="line"/>
      <point x="34" y="513" type="line"/>
      <point x="195" y="513" type="line"/>
      <point x="142" y="175" type="line" smooth="yes"/>
      <point x="139" y="157"/>
      <point x="137" y="135"/>
      <point x="137" y="124" type="curve" smooth="yes"/>
      <point x="137" y="28"/>
      <point x="195" y="-10"/>
      <point x="287" y="-10" type="curve" smooth="yes"/>
      <point x="341" y="-10"/>
      <point x="418" y="1"/>
      <point x="497" y="31" type="curve"/>
    </contour>
  </outline>
</glyph>
<glyph name="uni018F" format="2">
  <advance width="983"/>
  <unicode hex="018F"/>
  <outline>
    <contour>
      <point x="409" y="-10" type="curve" smooth="yes"/>
      <point x="690" y="-10"/>
      <point x="921" y="169"/>
      <point x="921" y="428" type="curve" smooth="yes"/>
      <point x="921" y="627"/>
      <point x="776" y="710"/>
      <point x="551" y="710" type="curve" smooth="yes"/>
      <point x="371" y="710"/>
      <point x="217" y="674"/>
      <point x="110" y="627" type="curve"/>
      <point x="118" y="605" type="line"/>
      <point x="223" y="651"/>
      <point x="365" y="691"/>
      <point x="553" y="691" type="curve" smooth="yes"/>
      <point x="758" y="691"/>
      <point x="902" y="615"/>
      <point x="902" y="429" type="curve" smooth="yes"/>
      <point x="902" y="180"/>
      <point x="675" y="9"/>
      <point x="405" y="9" type="curve" smooth="yes"/>
      <point x="204" y="9"/>
      <point x="70" y="74"/>
      <point x="70" y="171" type="curve" smooth="yes"/>
      <point x="70" y="291"/>
      <point x="251" y="364"/>
      <point x="548" y="364" type="curve" smooth="yes"/>
      <point x="665" y="364"/>
      <point x="798" y="350"/>
      <point x="895" y="327" type="curve"/>
      <point x="901" y="347" type="line"/>
      <point x="815" y="364"/>
      <point x="682" y="383"/>
      <point x="553" y="383" type="curve" smooth="yes"/>
      <point x="221" y="383"/>
      <point x="51" y="301"/>
      <point x="51" y="166" type="curve" smooth="yes"/>
      <point x="51" y="55"/>
      <point x="183" y="-10"/>
    </contour>
  </outline>
</glyph>
<glyph name="florin" format="2">
  <advance width="1034"/>
  <unicode hex="0192"/>
  <outline>
    <contour>
      <point x="332" y="366" type="line"/>
      <point x="847" y="366" type="line"/>
      <point x="850" y="386" type="line"/>
      <point x="335" y="386" type="line"/>
      <point x="338" y="401" type="line"/>
      <point x="366" y="578"/>
      <point x="511" y="692"/>
      <point x="708" y="692" type="curve" smooth="yes"/>
      <point x="799" y="692"/>
      <point x="881" y="676"/>
      <point x="927" y="665" type="curve"/>
      <point x="933" y="683" type="line"/>
      <point x="887" y="694"/>
      <point x="805" y="710"/>
      <point x="719" y="710" type="curve" smooth="yes"/>
      <point x="500" y="710"/>
      <point x="351" y="595"/>
      <point x="321" y="403" type="curve" smooth="yes"/>
      <point x="318" y="386" type="line"/>
      <point x="169" y="386" type="line"/>
      <point x="166" y="366" type="line"/>
      <point x="315" y="366" type="line"/>
      <point x="224" y="-210" type="line"/>
      <point x="241" y="-210" type="line"/>
    </contour>
  </outline>
</glyph>
<glyph name="uni0237" format="2">
  <advance width="271"/>
  <unicode hex="0237"/>
  <anchor x="-25" y="-210" name="bottom"/>
  <anchor x="178" y="530" name="top"/>
  <outline>
    <contour>
      <point x="187" y="530" type="line"/>
      <point x="168" y="530" type="line"/>
      <point x="74" y="-66" type="line" smooth="yes"/>
      <point x="60" y="-154"/>
      <point x="31" y="-203"/>
      <point x="-30" y="-203" type="curve" smooth="yes"/>
      <point x="-45" y="-203"/>
      <point x="-67" y="-201"/>
      <point x="-93" y="-190" type="curve"/>
      <point x="-98" y="-207" type="line"/>
      <point x="-79" y="-217"/>
      <point x="-40" y="-220"/>
      <point x="-29" y="-220" type="curve" smooth="yes"/>
      <point x="42" y="-220"/>
      <point x="77" y="-166"/>
      <point x="92" y="-71" type="curve" smooth="yes"/>
    </contour>
  </outline>
</glyph>
<glyph name="uni0259" format="2">
  <advance width="776"/>
  <unicode hex="0259"/>
  <outline>
    <contour>
      <point x="697" y="247" type="curve"/>
      <point x="701" y="266" type="line"/>
      <point x="628" y="281"/>
      <point x="521" y="291"/>
      <point x="432" y="291" type="curve" smooth="yes"/>
      <point x="182" y="291"/>
      <point x="51" y="234"/>
      <point x="51" y="126" type="curve" smooth="yes"/>
      <point x="51" y="41"/>
      <point x="141" y="-9"/>
      <point x="296" y="-9" type="curve" smooth="yes"/>
      <point x="551" y="-9"/>
      <point x="713" y="118"/>
      <point x="713" y="314" type="curve" smooth="yes"/>
      <point x="713" y="456"/>
      <point x="615" y="541"/>
      <point x="431" y="541" type="curve" smooth="yes"/>
      <point x="296" y="541"/>
      <point x="187" y="516"/>
      <point x="95" y="478" type="curve"/>
      <point x="101" y="460" type="line"/>
      <point x="193" y="499"/>
      <point x="302" y="522"/>
      <point x="430" y="522" type="curve" smooth="yes"/>
      <point x="600" y="522"/>
      <point x="694" y="444"/>
      <point x="694" y="314" type="curve" smooth="yes"/>
      <point x="694" y="128"/>
      <point x="538" y="10"/>
      <point x="297" y="10" type="curve" smooth="yes"/>
      <point x="150" y="10"/>
      <point x="70" y="52"/>
      <point x="70" y="130" type="curve" smooth="yes"/>
      <point x="70" y="221"/>
      <point x="198" y="273"/>
      <point x="426" y="273" type="curve" smooth="yes"/>
      <point x="517" y="273"/>
      <point x="622" y="263"/>
    </contour>
  </outline>
</glyph>
<glyph name="gravecomb" format="2">
  <unicode hex="0300"/>
  <anchor x="-387" y="530" name="_top"/>
  <anchor x="-452" y="730" name="top"/>
  <outline>
    <contour>
      <point x="-376" y="596" type="line"/>
      <point x="-353" y="596" type="line"/>
      <point x="-538" y="790" type="line"/>
      <point x="-564" y="790" type="line"/>
    </contour>
  </outline>
</glyph>
<glyph name="uni0302" format="2">
  <unicode hex="0302"/>
  <anchor x="-387" y="530" name="_top"/>
  <anchor x="-358" y="713" name="top"/>
  <anchor x="-193" y="660" name="top_viet"/>
  <outline>
    <contour>
      <point x="-597" y="596" type="line"/>
      <point x="-572" y="596" type="line"/>
      <point x="-346" y="775" type="line"/>
      <point x="-176" y="596" type="line"/>
      <point x="-153" y="596" type="line"/>
      <point x="-328" y="790" type="line"/>
      <point x="-360" y="790" type="line"/>
    </contour>
  </outline>
</glyph>
<glyph name="uni030B" format="2">
  <unicode hex="030B"/>
  <anchor x="-387" y="530" name="_top"/>
  <anchor x="-258" y="790" name="top"/>
  <outline>
    <contour>
      <point x="-306" y="596" type="line"/>
      <point x="-281" y="596" type="line"/>
      <point x="-28" y="790" type="line"/>
      <point x="-59" y="790" type="line"/>
    </contour>
    <contour>
      <point x="-518" y="596" type="line"/>
      <point x="-493" y="596" type="line"/>
      <point x="-240" y="790" type="line"/>
      <point x="-271" y="790" type="line"/>
    </contour>
  </outline>
</glyph>
<glyph name="uni030F" format="2">
  <unicode hex="030F"/>
  <anchor x="-387" y="530" name="_top"/>
  <anchor x="-449" y="790" name="top"/>
  <outline>
    <contour>
      <point x="-492" y="596" type="line"/>
      <point x="-469" y="596" type="line"/>
      <point x="-634" y="790" type="line"/>
      <point x="-660" y="790" type="line"/>
    </contour>
    <contour>
      <point x="-302" y="596" type="line"/>
      <point x="-279" y="596" type="line"/>
      <point x="-444" y="790" type="line"/>
      <point x="-470" y="790" type="line"/>
    </contour>
  </outline>
</glyph>
<glyph name="uni0328" format="2">
  <unicode hex="0328"/>
  <anchor x="-339" y="0" name="_ogonek"/>
  <outline>
    <contour>
      <point x="-356" y="9" type="line"/>
      <point x="-452" y="-24"/>
      <point x="-503" y="-72"/>
      <point x="-503" y="-134" type="curve" smooth="yes"/>
      <point x="-503" y="-200"/>
      <point x="-457" y="-220"/>
      <point x="-409" y="-220" type="curve" smooth="yes"/>
      <point x="-386" y="-220"/>
      <point x="-365" y="-217"/>
      <point x="-347" y="-212" type="curve"/>
      <point x="-350" y="-195" type="line"/>
      <point x="-369" y="-200"/>
      <point x="-385" y="-202"/>
      <point x="-407" y="-202" type="curve" smooth="yes"/>
      <point x="-451" y="-202"/>
      <point x="-484" y="-183"/>
      <point x="-484" y="-134" type="curve" smooth="yes"/>
      <point x="-484" y="-80"/>
      <point x="-436" y="-32"/>
      <point x="-339" y="0" type="curve"/>
    </contour>
  </outline>
</glyph>
<glyph name="uni0335" format="2">
  <unicode hex="0335"/>
  <anchor x="-135" y="350" name="_center"/>
  <outline>
    <contour>
      <point x="-276" y="340" type="line"/>
      <point x="1" y="340" type="line"/>
      <point x="5" y="360" type="line"/>
      <point x="-272" y="360" type="line"/>
    </contour>
  </outline>
</glyph>
<glyph name="quoteleft" format="2">
  <advance width="205"/>
  <unicode hex="2018"/>
  <outline>
    <contour>
      <point x="94" y="430" type="curve"/>
      <point x="113" y="430" type="line"/>
      <point x="127" y="557"/>
      <point x="164" y="624"/>
      <point x="237" y="700" type="curve"/>
      <point x="216" y="700" type="line"/>
      <point x="143" y="625"/>
      <point x="107" y="551"/>
    </contour>
  </outline>
</glyph>
<glyph name="quoteright" format="2">
  <advance width="205"/>
  <unicode hex="2019"/>
  <outline>
    <contour>
      <point x="203" y="700" type="curve"/>
      <point x="184" y="700" type="line"/>
      <point x="170" y="573"/>
      <point x="133" y="506"/>
      <point x="60" y="430" type="curve"/>
      <point x="81" y="430" type="line"/>
      <point x="154" y="505"/>
      <point x="190" y="579"/>
    </contour>
  </outline>
</glyph>
<glyph name="dagger" format="2">
  <advance width="574"/>
  <unicode hex="2020"/>
  <outline>
    <contour>
      <point x="202" y="-210" type="line"/>
      <point x="220" y="-210" type="line"/>
      <point x="335" y="520" type="line"/>
      <point x="553" y="520" type="line"/>
      <point x="556" y="540" type="line"/>
      <point x="338" y="540" type="line"/>
      <point x="370" y="740" type="line"/>
      <point x="352" y="740" type="line"/>
      <point x="320" y="540" type="line"/>
      <point x="102" y="540" type="line"/>
      <point x="99" y="520" type="line"/>
      <point x="317" y="520" type="line"/>
    </contour>
  </outline>
</glyph>
<glyph name="daggerdbl" format="2">
  <advance width="574"/>
  <unicode hex="2021"/>
  <outline>
    <contour>
      <point x="471" y="0" type="line"/>
      <point x="474" y="20" type="line"/>
      <point x="256" y="20" type="line"/>
      <point x="334" y="510" type="line"/>
      <point x="552" y="510" type="line"/>
      <point x="555" y="530" type="line"/>
      <point x="337" y="530" type="line"/>
      <point x="370" y="740" type="line"/>
      <point x="352" y="740" type="line"/>
      <point x="319" y="530" type="line"/>
      <point x="101" y="530" type="line"/>
      <point x="98" y="510" type="line"/>
      <point x="316" y="510" type="line"/>
      <point x="238" y="20" type="line"/>
      <point x="20" y="20" type="line"/>
      <point x="17" y="0" type="line"/>
      <point x="235" y="0" type="line"/>
      <point x="202" y="-210" type="line"/>
      <point x="220" y="-210" type="line"/>
      <point x="253" y="0" type="line"/>
    </contour>
  </outline>
</glyph>
<glyph name="bullet" format="2">
  <advance width="340"/>
  <unicode hex="2022"/>
  <outline>
    <contour>
      <point x="151" y="200" type="curve" smooth="yes"/>
      <point x="219" y="200"/>
      <point x="285" y="262"/>
      <point x="285" y="334" type="curve" smooth="yes"/>
      <point x="285" y="389"/>
      <point x="245" y="432"/>
      <point x="188" y="432" type="curve" smooth="yes"/>
      <point x="118" y="432"/>
      <point x="54" y="369"/>
      <point x="54" y="296" type="curve" smooth="yes"/>
      <point x="54" y="242"/>
      <point x="95" y="200"/>
    </contour>
  </outline>
</glyph>
<glyph name="minute" format="2">
  <advance width="181"/>
  <unicode hex="2032"/>
  <outline>
    <contour>
      <point x="68" y="429" type="line"/>
      <point x="80" y="429" type="line"/>
      <point x="205" y="700" type="line"/>
      <point x="183" y="700" type="line"/>
    </contour>
  </outline>
</glyph>
<glyph name="guilsinglleft" format="2">
  <advance width="400"/>
  <unicode hex="2039"/>
  <outline>
    <contour>
      <point x="298" y="8" type="line"/>
      <point x="310" y="20" type="line"/>
      <point x="65" y="270" type="line"/>
      <point x="391" y="522" type="line"/>
      <point x="381" y="536" type="line"/>
      <point x="49" y="282" type="line"/>
      <point x="46" y="262" type="line"/>
    </contour>
  </outline>
</glyph>
<glyph name="guilsinglright" format="2">
  <advance width="400"/>
  <unicode hex="203A"/>
  <outline>
    <contour>
      <point x="8" y="22" type="line"/>
      <point x="18" y="8" type="line"/>
      <point x="350" y="262" type="line"/>
      <point x="353" y="282" type="line"/>
      <point x="101" y="536" type="line"/>
      <point x="89" y="524" type="line"/>
      <point x="334" y="274" type="line"/>
    </contour>
  </outline>
</glyph>
<glyph name="fraction" format="2">
  <advance width="192"/>
  <unicode hex="2044"/>
  <outline>
    <contour>
      <point x="-171" y="-11" type="line"/>
      <point x="406" y="728" type="line"/>
      <point x="390" y="739" type="line"/>
      <point x="-186" y="0" type="line"/>
    </contour>
  </outline>
</glyph>
<glyph name="uni2052" format="2">
  <advance width="1034"/>
  <unicode hex="2052"/>
  <outline>
    <contour>
      <point x="80" y="14" type="line"/>
      <point x="91" y="-2" type="line"/>
      <point x="977" y="686" type="line"/>
      <point x="966" y="702" type="line"/>
    </contour>
    <contour>
      <point x="204" y="676" type="curve" smooth="yes"/>
      <point x="203" y="667"/>
      <point x="207" y="666"/>
      <point x="217" y="666" type="curve" smooth="yes"/>
      <point x="235" y="666"/>
      <point x="236" y="667"/>
      <point x="239" y="690" type="curve" smooth="yes"/>
      <point x="240" y="699"/>
      <point x="236" y="700"/>
      <point x="226" y="700" type="curve" smooth="yes"/>
      <point x="208" y="700"/>
      <point x="207" y="699"/>
    </contour>
    <contour>
      <point x="818" y="10" type="curve" smooth="yes"/>
      <point x="817" y="1"/>
      <point x="821" y="0"/>
      <point x="831" y="0" type="curve" smooth="yes"/>
      <point x="849" y="0"/>
      <point x="850" y="1"/>
      <point x="853" y="24" type="curve" smooth="yes"/>
      <point x="854" y="33"/>
      <point x="850" y="34"/>
      <point x="840" y="34" type="curve" smooth="yes"/>
      <point x="822" y="34"/>
      <point x="821" y="33"/>
    </contour>
  </outline>
</glyph>
<glyph name="uni2070" format="2">
  <advance width="571"/>
  <unicode hex="2070"/>
  <outline>
    <contour>
      <point x="77" y="567" type="curve" smooth="yes"/>
      <point x="77" y="442"/>
      <point x="166" y="364"/>
      <point x="330" y="364" type="curve" smooth="yes"/>
      <point x="490" y="364"/>
      <point x="589" y="441"/>
      <point x="589" y="581" type="curve" smooth="yes"/>
      <point x="589" y="706"/>
      <point x="500" y="781"/>
      <point x="336" y="781" type="curve" smooth="yes"/>
      <point x="176" y="781"/>
      <point x="77" y="707"/>
    </contour>
    <contour>
      <point x="333" y="763" type="curve" smooth="yes"/>
      <point x="488" y="763"/>
      <point x="571" y="695"/>
      <point x="571" y="578" type="curve" smooth="yes"/>
      <point x="571" y="448"/>
      <point x="477" y="382"/>
      <point x="333" y="382" type="curve" smooth="yes"/>
      <point x="178" y="382"/>
      <point x="95" y="450"/>
      <point x="95" y="567" type="curve" smooth="yes"/>
      <point x="95" y="699"/>
      <point x="189" y="763"/>
    </contour>
  </outline>
</glyph>
<glyph name="uni2074" format="2">
  <advance width="562"/>
  <unicode hex="2074"/>
  <outline>
    <contour>
      <point x="67" y="486" type="line"/>
      <point x="426" y="486" type="line"/>
      <point x="407" y="370" type="line"/>
      <point x="425" y="370" type="line"/>
      <point x="445" y="486" type="line"/>
      <point x="561" y="486" type="line"/>
      <point x="563" y="504" type="line"/>
      <point x="447" y="504" type="line"/>
      <point x="490" y="761" type="line"/>
      <point x="478" y="770" type="line"/>
      <point x="67" y="501" type="line"/>
    </contour>
    <contour>
      <point x="100" y="504" type="line"/>
      <point x="468" y="743" type="line"/>
      <point x="428" y="504" type="line"/>
    </contour>
  </outline>
</glyph>
<glyph name="uni2075" format="2">
  <advance width="580"/>
  <unicode hex="2075"/>
  <outline>
    <contour>
      <point x="66" y="420" type="line"/>
      <point x="123" y="385"/>
      <point x="199" y="364"/>
      <point x="304" y="364" type="curve" smooth="yes"/>
      <point x="501" y="364"/>
      <point x="563" y="424"/>
      <point x="563" y="503" type="curve" smooth="yes"/>
      <point x="563" y="574"/>
      <point x="508" y="609"/>
      <point x="367" y="609" type="curve" smooth="yes"/>
      <point x="146" y="609" type="line"/>
      <point x="195" y="751" type="line"/>
      <point x="565" y="751" type="line"/>
      <point x="567" y="768" type="line"/>
      <point x="184" y="768" type="line"/>
      <point x="125" y="601" type="line"/>
      <point x="132" y="593" type="line"/>
      <point x="358" y="593" type="line" smooth="yes"/>
      <point x="495" y="593"/>
      <point x="545" y="566"/>
      <point x="545" y="499" type="curve" smooth="yes"/>
      <point x="545" y="427"/>
      <point x="467" y="380"/>
      <point x="307" y="380" type="curve" smooth="yes"/>
      <point x="208" y="380"/>
      <point x="132" y="402"/>
      <point x="77" y="435" type="curve"/>
    </contour>
  </outline>
</glyph>
<glyph name="uni207A" format="2">
  <advance width="377"/>
  <unicode hex="207A"/>
  <outline>
    <contour>
      <point x="202" y="408" type="line"/>
      <point x="220" y="408" type="line"/>
      <point x="237" y="526" type="line"/>
      <point x="342" y="526" type="line"/>
      <point x="344" y="544" type="line"/>
      <point x="240" y="544" type="line"/>
      <point x="259" y="661" type="line"/>
      <point x="240" y="661" type="line"/>
      <point x="222" y="544" type="line"/>
      <point x="118" y="544" type="line"/>
      <point x="116" y="526" type="line"/>
      <point x="219" y="526" type="line"/>
    </contour>
  </outline>
</glyph>
<glyph name="uni207B" format="2">
  <advance width="377"/>
  <unicode hex="207B"/>
  <outline>
    <contour>
      <point x="115" y="526" type="line"/>
      <point x="342" y="526" type="line"/>
      <point x="344" y="544" type="line"/>
      <point x="118" y="544" type="line"/>
    </contour>
  </outline>
</glyph>
<glyph name="colonmonetary" format="2">
  <advance width="1034"/>
  <unicode hex="20A1"/>
  <outline>
    <contour>
      <point x="597" y="-10" type="curve" smooth="yes"/>
      <point x="734" y="-10"/>
      <point x="850" y="7"/>
      <point x="939" y="41" type="curve"/>
      <point x="933" y="58" type="line"/>
      <point x="845" y="26"/>
      <point x="730" y="9"/>
      <point x="598" y="9" type="curve" smooth="yes"/>
      <point x="314" y="9"/>
      <point x="141" y="117"/>
      <point x="141" y="309" type="curve" smooth="yes"/>
      <point x="141" y="544"/>
      <point x="336" y="691"/>
      <point x="667" y="691" type="curve" smooth="yes"/>
      <point x="789" y="691"/>
      <point x="882" y="678"/>
      <point x="997" y="646" type="curve"/>
      <point x="1003" y="664" type="line"/>
      <point x="885" y="697"/>
      <point x="792" y="710"/>
      <point x="669" y="710" type="curve" smooth="yes"/>
      <point x="323" y="710"/>
      <point x="122" y="557"/>
      <point x="122" y="311" type="curve" smooth="yes"/>
      <point x="122" y="104"/>
      <point x="301" y="-10"/>
    </contour>
    <contour>
      <point x="639" y="700" type="line"/>
      <point x="659" y="698" type="line"/>
      <point x="688" y="805" type="line"/>
      <point x="668" y="805" type="line"/>
    </contour>
    <contour>
      <point x="779" y="699" type="line"/>
      <point x="799" y="698" type="line"/>
      <point x="828" y="805" type="line"/>
      <point x="808" y="805" type="line"/>
    </contour>
    <contour>
      <point x="428" y="-105" type="line"/>
      <point x="448" y="-105" type="line"/>
      <point x="478" y="8" type="line"/>
      <point x="458" y="8" type="line"/>
    </contour>
    <contour>
      <point x="568" y="-105" type="line"/>
      <point x="588" y="-105" type="line"/>
      <point x="615" y="-5" type="line"/>
      <point x="595" y="-5" type="line"/>
    </contour>
  </outline>
</glyph>
<glyph name="franc" format="2">
  <advance width="1034"/>
  <unicode hex="20A3"/>
  <outline>
    <contour>
      <point x="158" y="0" type="line"/>
      <point x="177" y="0" type="line"/>
      <point x="285" y="681" type="line"/>
      <point x="996" y="681" type="line"/>
      <point x="999" y="700" type="line"/>
      <point x="269" y="700" type="line"/>
    </contour>
    <contour>
      <point x="67" y="216" type="line"/>
      <point x="743" y="216" type="line"/>
      <point x="746" y="236" type="line"/>
      <point x="70" y="236" type="line"/>
    </contour>
    <contour>
      <point x="93" y="383" type="line"/>
      <point x="769" y="383" type="line"/>
      <point x="772" y="403" type="line"/>
      <point x="96" y="403" type="line"/>
    </contour>
  </outline>
</glyph>
<glyph name="lira" format="2">
  <advance width="1034"/>
  <unicode hex="20A4"/>
  <outline>
    <contour>
      <point x="117" y="0" type="line"/>
      <point x="887" y="0" type="line"/>
      <point x="890" y="20" type="line"/>
      <point x="151" y="20" type="line"/>
      <point x="289" y="111"/>
      <point x="340" y="170"/>
      <point x="340" y="256" type="curve" smooth="yes"/>
      <point x="340" y="326"/>
      <point x="281" y="387"/>
      <point x="281" y="457" type="curve" smooth="yes"/>
      <point x="281" y="611"/>
      <point x="439" y="692"/>
      <point x="629" y="692" type="curve" smooth="yes"/>
      <point x="723" y="692"/>
      <point x="847" y="682"/>
      <point x="947" y="651" type="curve"/>
      <point x="954" y="668" type="line"/>
      <point x="855" y="702"/>
      <point x="712" y="710"/>
      <point x="629" y="710" type="curve" smooth="yes"/>
      <point x="428" y="710"/>
      <point x="262" y="625"/>
      <point x="262" y="456" type="curve" smooth="yes"/>
      <point x="262" y="381"/>
      <point x="321" y="322"/>
      <point x="321" y="254" type="curve" smooth="yes"/>
      <point x="321" y="163"/>
      <point x="237" y="101"/>
      <point x="120" y="20" type="curve"/>
    </contour>
    <contour>
      <point x="118" y="277" type="line"/>
      <point x="790" y="277" type="line"/>
      <point x="793" y="295" type="line"/>
      <point x="121" y="295" type="line"/>
    </contour>
    <contour>
      <point x="141" y="426" type="line"/>
      <point x="813" y="426" type="line"/>
      <point x="816" y="444" type="line"/>
      <point x="144" y="444" type="line"/>
    </contour>
  </outline>
</glyph>
<glyph name="uni20A6" format="2">
  <advance width="1034"/>
  <unicode hex="20A6"/>
  <outline>
    <contour>
      <point x="121" y="0" type="line"/>
      <point x="141" y="0" type="line"/>
      <point x="249" y="682" type="line"/>
      <point x="808" y="0" type="line"/>
      <point x="826" y="0" type="line"/>
      <point x="937" y="700" type="line"/>
      <point x="917" y="700" type="line"/>
      <point x="811" y="28" type="line"/>
      <point x="252" y="710" type="line"/>
      <point x="234" y="710" type="line"/>
    </contour>
    <contour>
      <point x="60" y="345" type="line"/>
      <point x="183" y="345" type="line"/>
      <point x="186" y="365" type="line"/>
      <point x="63" y="365" type="line"/>
    </contour>
    <contour>
      <point x="874" y="345" type="line"/>
      <point x="997" y="345" type="line"/>
      <point x="1000" y="365" type="line"/>
      <point x="877" y="365" type="line"/>
    </contour>
  </outline>
</glyph>
<glyph name="peseta" format="2">
  <advance width="1034"/>
  <unicode hex="20A7"/>
  <outline>
    <contour>
      <point x="123" y="0" type="line"/>
      <point x="142" y="0" type="line"/>
      <point x="182" y="250" type="line"/>
      <point x="291" y="246"/>
      <point x="371" y="243"/>
      <point x="497" y="243" type="curve" smooth="yes"/>
      <point x="779" y="243"/>
      <point x="897" y="327"/>
      <point x="900" y="517" type="curve" smooth="yes"/>
      <point x="902" y="660"/>
      <point x="793" y="710"/>
      <point x="548" y="710" type="curve" smooth="yes"/>
      <point x="493" y="710"/>
      <point x="433" y="708"/>
      <point x="234" y="700" type="curve"/>
    </contour>
    <contour>
      <point x="250" y="681" type="line"/>
      <point x="389" y="688"/>
      <point x="475" y="691"/>
      <point x="545" y="691" type="curve" smooth="yes"/>
      <point x="787" y="691"/>
      <point x="881" y="652"/>
      <point x="881" y="512" type="curve" smooth="yes"/>
      <point x="881" y="339"/>
      <point x="769" y="262"/>
      <point x="505" y="262" type="curve" smooth="yes"/>
      <point x="387" y="262"/>
      <point x="298" y="266"/>
      <point x="185" y="269" type="curve"/>
    </contour>
    <contour>
      <point x="66" y="471" type="line"/>
      <point x="205" y="471" type="line"/>
      <point x="208" y="491" type="line"/>
      <point x="69" y="491" type="line"/>
    </contour>
    <contour>
      <point x="890" y="471" type="line"/>
      <point x="1045" y="471" type="line"/>
      <point x="1048" y="491" type="line"/>
      <point x="893" y="491" type="line"/>
    </contour>
  </outline>
</glyph>
<glyph name="uni20A9" format="2">
  <advance width="1034"/>
  <unicode hex="20A9"/>
  <outline>
    <contour>
      <point x="223" y="0" type="line"/>
      <point x="238" y="0" type="line"/>
      <point x="574" y="636" type="line"/>
      <point x="708" y="0" type="line"/>
      <point x="723" y="0" type="line"/>
      <point x="1064" y="696" type="line"/>
      <point x="1044" y="701" type="line"/>
      <point x="722" y="37" type="line"/>
      <point x="588" y="662" type="line"/>
      <point x="567" y="662" type="line"/>
      <point x="236" y="38" type="line"/>
      <point x="124" y="701" type="line"/>
      <point x="104" y="696" type="line"/>
    </contour>
    <contour>
      <point x="22" y="335" type="line"/>
      <point x="176" y="335" type="line"/>
      <point x="175" y="355" type="line"/>
      <point x="25" y="355" type="line"/>
    </contour>
    <contour>
      <point x="878" y="335" type="line"/>
      <point x="1032" y="335" type="line"/>
      <point x="1035" y="355" type="line"/>
      <point x="891" y="355" type="line"/>
    </contour>
  </outline>
</glyph>
<glyph name="Euro" format="2">
  <advance width="1034"/>
  <unicode hex="20AC"/>
  <outline>
    <contour>
      <point x="237" y="302" type="curve" smooth="yes"/>
      <point x="237" y="87"/>
      <point x="375" y="-10"/>
      <point x="688" y="-10" type="curve" smooth="yes"/>
      <point x="756" y="-10"/>
      <point x="823" y="-3"/>
      <point x="885" y="15" type="curve"/>
      <point x="881" y="33" type="line"/>
      <point x="821" y="15"/>
      <point x="758" y="10"/>
      <point x="691" y="10" type="curve" smooth="yes"/>
      <point x="382" y="10"/>
      <point x="256" y="103"/>
      <point x="256" y="309" type="curve" smooth="yes"/>
      <point x="256" y="537"/>
      <point x="402" y="690"/>
      <point x="748" y="690" type="curve" smooth="yes"/>
      <point x="836" y="690"/>
      <point x="902" y="683"/>
      <point x="958" y="664" type="curve"/>
      <point x="964" y="683" type="line"/>
      <point x="907" y="702"/>
      <point x="842" y="710"/>
      <point x="752" y="710" type="curve" smooth="yes"/>
      <point x="388" y="710"/>
      <point x="237" y="550"/>
    </contour>
    <contour>
      <point x="779" y="435" type="line"/>
      <point x="782" y="455" type="line"/>
      <point x="142" y="455" type="line"/>
      <point x="139" y="435" type="line"/>
    </contour>
    <contour>
      <point x="749" y="245" type="line"/>
      <point x="752" y="265" type="line"/>
      <point x="112" y="265" type="line"/>
      <point x="109" y="245" type="line"/>
    </contour>
  </outline>
</glyph>
<glyph name="uni20B2" format="2">
  <advance width="1034"/>
  <unicode hex="20B2"/>
  <outline>
    <contour>
      <point x="546" y="-10" type="curve" smooth="yes"/>
      <point x="692" y="-10"/>
      <point x="816" y="19"/>
      <point x="895" y="52" type="curve"/>
      <point x="936" y="309" type="line"/>
      <point x="554" y="309" type="line"/>
      <point x="551" y="290" type="line"/>
      <point x="914" y="290" type="line"/>
      <point x="878" y="65" type="line"/>
      <point x="799" y="31"/>
      <point x="684" y="9"/>
      <point x="550" y="9" type="curve" smooth="yes"/>
      <point x="317" y="9"/>
      <point x="118" y="105"/>
      <point x="118" y="310" type="curve" smooth="yes"/>
      <point x="118" y="550"/>
      <point x="321" y="691"/>
      <point x="640" y="691" type="curve" smooth="yes"/>
      <point x="758" y="691"/>
      <point x="841" y="678"/>
      <point x="954" y="645" type="curve"/>
      <point x="960" y="662" type="line"/>
      <point x="868" y="693"/>
      <point x="757" y="710"/>
      <point x="644" y="710" type="curve" smooth="yes"/>
      <point x="308" y="710"/>
      <point x="99" y="564"/>
      <point x="99" y="305" type="curve" smooth="yes"/>
      <point x="99" y="94"/>
      <point x="304" y="-10"/>
    </contour>
    <contour>
      <point x="630" y="703" type="line"/>
      <point x="646" y="698" type="line"/>
      <point x="664" y="805" type="line"/>
      <point x="646" y="805" type="line"/>
    </contour>
    <contour>
      <point x="546" y="2" type="line"/>
      <point x="527" y="-3" type="line"/>
      <point x="511" y="-105" type="line"/>
      <point x="529" y="-105" type="line"/>
    </contour>
  </outline>
</glyph>
<glyph name="uni2113" format="2">
  <advance width="570"/>
  <unicode hex="2113"/>
  <outline>
    <contour>
      <point x="284" y="-10" type="curve" smooth="yes"/>
      <point x="347" y="-10"/>
      <point x="389" y="3"/>
      <point x="456" y="44" type="curve"/>
      <point x="449" y="60" type="line"/>
      <point x="387" y="23"/>
      <point x="343" y="10"/>
      <point x="286" y="10" type="curve" smooth="yes"/>
      <point x="203" y="10"/>
      <point x="145" y="67"/>
      <point x="126" y="168" type="curve"/>
      <point x="353" y="213"/>
      <point x="501" y="364"/>
      <point x="501" y="560" type="curve" smooth="yes"/>
      <point x="501" y="655"/>
      <point x="453" y="710"/>
      <point x="370" y="710" type="curve" smooth="yes"/>
      <point x="202" y="710"/>
      <point x="69" y="448"/>
      <point x="104" y="184" type="curve"/>
      <point x="75" y="180"/>
      <point x="47" y="178"/>
      <point x="21" y="178" type="curve"/>
      <point x="18" y="158" type="line"/>
      <point x="50" y="158"/>
      <point x="77" y="161"/>
      <point x="107" y="165" type="curve"/>
      <point x="128" y="53"/>
      <point x="191" y="-10"/>
    </contour>
    <contour>
      <point x="122" y="186" type="curve"/>
      <point x="90" y="429"/>
      <point x="219" y="690"/>
      <point x="370" y="690" type="curve" smooth="yes"/>
      <point x="440" y="690"/>
      <point x="481" y="641"/>
      <point x="481" y="560" type="curve" smooth="yes"/>
      <point x="481" y="374"/>
      <point x="341" y="229"/>
    </contour>
  </outline>
</glyph>
<glyph name="uni2117" format="2">
  <advance width="1002"/>
  <unicode hex="2117"/>
  <outline>
    <contour>
      <point x="486" y="10" type="curve" smooth="yes"/>
      <point x="293" y="10"/>
      <point x="104" y="85"/>
      <point x="104" y="306" type="curve" smooth="yes"/>
      <point x="104" y="563"/>
      <point x="270" y="690"/>
      <point x="531" y="690" type="curve" smooth="yes"/>
      <point x="729" y="690"/>
      <point x="922" y="615"/>
      <point x="922" y="391" type="curve" smooth="yes"/>
      <point x="922" y="132"/>
      <point x="749" y="10"/>
    </contour>
    <contour>
      <point x="483" y="-9" type="curve" smooth="yes"/>
      <point x="759" y="-9"/>
      <point x="941" y="120"/>
      <point x="941" y="397" type="curve" smooth="yes"/>
      <point x="941" y="630"/>
      <point x="740" y="709"/>
      <point x="533" y="709" type="curve" smooth="yes"/>
      <point x="260" y="709"/>
      <point x="85" y="577"/>
      <point x="85" y="302" type="curve" smooth="yes"/>
      <point x="85" y="68"/>
      <point x="284" y="-9"/>
    </contour>
    <contour>
      <point x="342" y="179" type="line"/>
      <point x="360" y="179" type="line"/>
      <point x="380" y="302" type="line"/>
      <point x="445" y="300"/>
      <point x="470" y="300"/>
      <point x="520" y="300" type="curve" smooth="yes"/>
      <point x="655" y="300"/>
      <point x="715" y="334"/>
      <point x="715" y="414" type="curve" smooth="yes"/>
      <point x="715" y="489"/>
      <point x="663" y="509"/>
      <point x="539" y="509" type="curve" smooth="yes"/>
      <point x="502" y="509"/>
      <point x="473" y="508"/>
      <point x="394" y="504" type="curve"/>
    </contour>
    <contour>
      <point x="523" y="318" type="curve" smooth="yes"/>
      <point x="464" y="318"/>
      <point x="445" y="318"/>
      <point x="383" y="320" type="curve"/>
      <point x="409" y="486" type="line"/>
      <point x="486" y="490"/>
      <point x="502" y="491"/>
      <point x="537" y="491" type="curve" smooth="yes"/>
      <point x="661" y="491"/>
      <point x="697" y="471"/>
      <point x="697" y="415" type="curve" smooth="yes"/>
      <point x="697" y="347"/>
      <point x="652" y="318"/>
    </contour>
  </outline>
</glyph>
<glyph name="uni2120" format="2">
  <advance width="1027"/>
  <unicode hex="2120"/>
  <outline>
    <contour>
      <point x="507" y="381" type="line"/>
      <point x="525" y="381" type="line"/>
      <point x="572" y="679" type="line"/>
      <point x="756" y="506" type="line"/>
      <point x="762" y="506" type="line"/>
      <point x="1001" y="675" type="line"/>
      <point x="955" y="381" type="line"/>
      <point x="973" y="381" type="line"/>
      <point x="1023" y="700" type="line"/>
      <point x="1005" y="700" type="line"/>
      <point x="762" y="525" type="line"/>
      <point x="573" y="700" type="line"/>
      <point x="557" y="700" type="line"/>
    </contour>
    <contour>
      <point x="444" y="688" type="line"/>
      <point x="426" y="695"/>
      <point x="374" y="711"/>
      <point x="302" y="711" type="curve" smooth="yes"/>
      <point x="177" y="711"/>
      <point x="112" y="675"/>
      <point x="112" y="618" type="curve" smooth="yes"/>
      <point x="112" y="513"/>
      <point x="419" y="563"/>
      <point x="419" y="469" type="curve" smooth="yes"/>
      <point x="419" y="398"/>
      <point x="304" y="393"/>
      <point x="248" y="393" type="curve" smooth="yes"/>
      <point x="186" y="393"/>
      <point x="113" y="408"/>
      <point x="70" y="424" type="curve"/>
      <point x="63" y="409" type="line"/>
      <point x="125" y="388"/>
      <point x="189" y="377"/>
      <point x="248" y="377" type="curve" smooth="yes"/>
      <point x="321" y="377"/>
      <point x="437" y="388"/>
      <point x="437" y="473" type="curve" smooth="yes"/>
      <point x="437" y="579"/>
      <point x="130" y="531"/>
      <point x="130" y="621" type="curve" smooth="yes"/>
      <point x="130" y="666"/>
      <point x="194" y="695"/>
      <point x="296" y="695" type="curve" smooth="yes"/>
      <point x="365" y="695"/>
      <point x="410" y="682"/>
      <point x="438" y="673" type="curve"/>
    </contour>
  </outline>
</glyph>
<glyph name="arrowup" format="2">
  <advance width="500"/>
  <unicode hex="2191"/>
  <outline>
    <contour>
      <point x="260" y="-11" type="line"/>
      <point x="260" y="587" type="line"/>
      <point x="441" y="397" type="line"/>
      <point x="456" y="412" type="line"/>
      <point x="250" y="629" type="line"/>
      <point x="44" y="412" type="line"/>
      <point x="59" y="397" type="line"/>
      <point x="240" y="587" type="line"/>
      <point x="240" y="-11" type="line"/>
    </contour>
  </outline>
</glyph>
<glyph name="uni2196" format="2">
  <advance width="507"/>
  <unicode hex="2196"/>
  <outline>
    <contour>
      <point x="344" y="423" type="line"/>
      <point x="344" y="444" type="line"/>
      <point x="44" y="445" type="line"/>
      <point x="44" y="145" type="line"/>
      <point x="66" y="145" type="line"/>
      <point x="66" y="409" type="line"/>
      <point x="448" y="26" type="line"/>
      <point x="463" y="41" type="line"/>
      <point x="80" y="423" type="line"/>
    </contour>
  </outline>
</glyph>
<glyph name="uni2199" format="2">
  <advance width="507"/>
  <unicode hex="2199"/>
  <outline>
    <contour>
      <point x="80" y="148" type="line"/>
      <point x="463" y="530" type="line"/>
      <point x="448" y="545" type="line"/>
      <point x="66" y="162" type="line"/>
      <point x="66" y="426" type="line"/>
      <point x="44" y="426" type="line"/>
      <point x="44" y="126" type="line"/>
      <point x="344" y="127" type="line"/>
      <point x="344" y="148" type="line"/>
    </contour>
  </outline>
</glyph>
<glyph name="radical" format="2">
  <advance width="893"/>
  <unicode hex="221A"/>
  <outline>
    <contour>
      <point x="48" y="511" type="line"/>
      <point x="271" y="511" type="line"/>
      <point x="423" y="-10" type="line"/>
      <point x="433" y="-10" type="line"/>
      <point x="957" y="750" type="line"/>
      <point x="936" y="750" type="line"/>
      <point x="432" y="21" type="line"/>
      <point x="287" y="530" type="line"/>
      <point x="51" y="530" type="line"/>
    </contour>
  </outline>
</glyph>
<glyph name="integral" format="2">
  <advance width="519"/>
  <unicode hex="222B"/>
  <outline>
    <contour>
      <point x="-24" y="-220" type="curve" smooth="yes"/>
      <point x="107" y="-220"/>
      <point x="200" y="-155"/>
      <point x="229" y="32" type="curve" smooth="yes"/>
      <point x="303" y="499" type="line" smooth="yes"/>
      <point x="329" y="658"/>
      <point x="403" y="731"/>
      <point x="539" y="731" type="curve" smooth="yes"/>
      <point x="566" y="731"/>
      <point x="599" y="727"/>
      <point x="625" y="720" type="curve"/>
      <point x="631" y="740" type="line"/>
      <point x="605" y="746"/>
      <point x="570" y="751"/>
      <point x="539" y="751" type="curve" smooth="yes"/>
      <point x="394" y="751"/>
      <point x="312" y="670"/>
      <point x="285" y="499" type="curve" smooth="yes"/>
      <point x="211" y="32" type="line" smooth="yes"/>
      <point x="185" y="-135"/>
      <point x="106" y="-200"/>
      <point x="-23" y="-200" type="curve" smooth="yes"/>
      <point x="-50" y="-200"/>
      <point x="-84" y="-196"/>
      <point x="-109" y="-189" type="curve"/>
      <point x="-115" y="-209" type="line"/>
      <point x="-89" y="-215"/>
      <point x="-55" y="-220"/>
    </contour>
  </outline>
</glyph>
<glyph name="lessequal" format="2">
  <advance width="513"/>
  <unicode hex="2264"/>
  <outline>
    <contour>
      <point x="423" y="108" type="line"/>
      <point x="426" y="128" type="line"/>
      <point x="89" y="308" type="line"/>
      <point x="483" y="487" type="line"/>
      <point x="487" y="509" type="line"/>
      <point x="70" y="318" type="line"/>
      <point x="67" y="298" type="line"/>
    </contour>
    <contour>
      <point x="32" y="74" type="line"/>
      <point x="418" y="74" type="line"/>
      <point x="421" y="92" type="line"/>
      <point x="35" y="92" type="line"/>
    </contour>
  </outline>
</glyph>
<glyph name="uni25A1" format="2">
  <advance width="694"/>
  <unicode hex="25A1"/>
  <outline>
    <contour>
      <point x="147" y="117" type="line"/>
      <point x="564" y="117" type="line"/>
      <point x="564" y="534" type="line"/>
      <point x="147" y="534" type="line"/>
    </contour>
    <contour>
      <point x="167" y="137" type="line"/>
      <point x="167" y="514" type="line"/>
      <point x="544" y="514" type="line"/>
      <point x="544" y="137" type="line"/>
    </contour>
  </outline>
</glyph>
<glyph name="triagup" format="2">
  <advance width="694"/>
  <unicode hex="25B2"/>
  <outline>
    <contour>
      <point x="121" y="42" type="line"/>
      <point x="590" y="42" type="line"/>
      <point x="356" y="556" type="line"/>
    </contour>
  </outline>
</glyph>
<glyph name="uni25BD" format="2">
  <advance width="694"/>
  <unicode hex="25BD"/>
  <outline>
    <contour>
      <point x="356" y="42" type="line"/>
      <point x="590" y="556" type="line"/>
      <point x="121" y="556" type="line"/>
    </contour>
    <contour>
      <point x="356" y="89" type="line"/>
      <point x="152" y="536" type="line"/>
      <point x="559" y="536" type="line"/>
    </contour>
  </outline>
</glyph>
<glyph name="uni25C0" format="2">
  <advance width="694"/>
  <unicode hex="25C0"/>
  <outline>
    <contour>
      <point x="68" y="299" type="line"/>
      <point x="582" y="65" type="line"/>
      <point x="582" y="534" type="line"/>
    </contour>
  </outline>
</glyph>
<glyph name="uni25C7" format="2">
  <advance width="694"/>
  <unicode hex="25C7"/>
  <outline>
    <contour>
      <point x="60" y="326" type="line"/>
      <point x="355" y="31" type="line"/>
      <point x="650" y="326" type="line"/>
      <point x="355" y="621" type="line"/>
    </contour>
    <contour>
      <point x="88" y="326" type="line"/>
      <point x="355" y="593" type="line"/>
      <point x="622" y="326" type="line"/>
      <point x="355" y="59" type="line"/>
    </contour>
  </outline>
</glyph>
<glyph name="uni2783" format="2">
  <advance width="1112"/>
  <unicode hex="2783"/>
  <outline>
    <contour>
      <point x="265" y="279" type="line"/>
      <point x="652" y="279" type="line"/>
      <point x="652" y="164" type="line"/>
      <point x="675" y="164" type="line"/>
      <point x="675" y="279" type="line"/>
      <point x="802" y="279" type="line"/>
      <point x="802" y="299" type="line"/>
      <point x="675" y="299" type="line"/>
      <point x="675" y="559" type="line"/>
      <point x="660" y="565" type="line"/>
      <point x="263" y="296" type="line"/>
    </contour>
    <contour>
      <point x="302" y="299" type="line"/>
      <point x="652" y="534" type="line"/>
      <point x="652" y="299" type="line"/>
    </contour>
    <contour>
      <point x="84" y="350" type="curve" smooth="yes"/>
      <point x="84" y="69"/>
      <point x="313" y="-10"/>
      <point x="568" y="-10" type="curve" smooth="yes"/>
      <point x="823" y="-10"/>
      <point x="1052" y="69"/>
      <point x="1052" y="350" type="curve" smooth="yes"/>
      <point x="1052" y="631"/>
      <point x="823" y="710"/>
      <point x="568" y="710" type="curve" smooth="yes"/>
      <point x="313" y="710"/>
      <point x="84" y="631"/>
    </contour>
    <contour>
      <point x="104" y="350" type="curve" smooth="yes"/>
      <point x="104" y="615"/>
      <point x="323" y="690"/>
      <point x="568" y="690" type="curve" smooth="yes"/>
      <point x="813" y="690"/>
      <point x="1032" y="615"/>
      <point x="1032" y="350" type="curve" smooth="yes"/>
      <point x="1032" y="85"/>
      <point x="813" y="10"/>
      <point x="568" y="10" type="curve" smooth="yes"/>
      <point x="323" y="10"/>
      <point x="104" y="85"/>
    </contour>
  </outline>
</glyph>
<glyph name="uni2787" format="2">
  <advance width="1112"/>
  <unicode hex="2787"/>
  <outline>
    <contour>
      <point x="565" y="157" type="curve" smooth="yes"/>
      <point x="742" y="157"/>
      <point x="840" y="198"/>
      <point x="840" y="279" type="curve" smooth="yes"/>
      <point x="840" y="467"/>
      <point x="344" y="318"/>
      <point x="344" y="467" type="curve" smooth="yes"/>
      <point x="344" y="520"/>
      <point x="419" y="548"/>
      <point x="563" y="548" type="curve" smooth="yes"/>
      <point x="707" y="548"/>
      <point x="782" y="522"/>
      <point x="782" y="468" type="curve" smooth="yes"/>
      <point x="782" y="434"/>
      <point x="762" y="401"/>
      <point x="660" y="369" type="curve"/>
      <point x="696" y="365" type="line"/>
      <point x="771" y="388"/>
      <point x="806" y="425"/>
      <point x="806" y="468" type="curve" smooth="yes"/>
      <point x="806" y="533"/>
      <point x="721" y="568"/>
      <point x="563" y="568" type="curve" smooth="yes"/>
      <point x="406" y="568"/>
      <point x="320" y="532"/>
      <point x="320" y="467" type="curve" smooth="yes"/>
      <point x="320" y="288"/>
      <point x="815" y="446"/>
      <point x="815" y="278" type="curve" smooth="yes"/>
      <point x="815" y="210"/>
      <point x="725" y="176"/>
      <point x="566" y="176" type="curve" smooth="yes"/>
      <point x="404" y="176"/>
      <point x="318" y="201"/>
      <point x="318" y="276" type="curve" smooth="yes"/>
      <point x="318" y="327"/>
      <point x="370" y="365"/>
      <point x="466" y="392" type="curve"/>
      <point x="424" y="396" type="line"/>
      <point x="339" y="370"/>
      <point x="293" y="324"/>
      <point x="293" y="276" type="curve" smooth="yes"/>
      <point x="293" y="188"/>
      <point x="386" y="157"/>
    </contour>
    <contour>
      <point x="568" y="-10" type="curve" smooth="yes"/>
      <point x="823" y="-10"/>
      <point x="1052" y="69"/>
      <point x="1052" y="350" type="curve" smooth="yes"/>
      <point x="1052" y="631"/>
      <point x="823" y="710"/>
      <point x="568" y="710" type="curve" smooth="yes"/>
      <point x="313" y="710"/>
      <point x="84" y="631"/>
      <point x="84" y="350" type="curve" smooth="yes"/>
      <point x="84" y="69"/>
      <point x="313" y="-10"/>
    </contour>
    <contour>
      <point x="568" y="690" type="curve" smooth="yes"/>
      <point x="813" y="690"/>
      <point x="1032" y="615"/>
      <point x="1032" y="350" type="curve" smooth="yes"/>
      <point x="1032" y="85"/>
      <point x="813" y="10"/>
      <point x="568" y="10" type="curve" smooth="yes"/>
      <point x="323" y="10"/>
      <point x="104" y="85"/>
      <point x="104" y="350" type="curve" smooth="yes"/>
      <point x="104" y="615"/>
      <point x="323" y="690"/>
    </contour>
  </outline>
</glyph>
<glyph name="uni278A" format="2">
  <advance width="1112"/>
  <unicode hex="278A"/>
  <outline>
    <contour>
      <point x="568" y="-10" type="curve" smooth="yes"/>
      <point x="823" y="-10"/>
      <point x="1052" y="69"/>
      <point x="1052" y="350" type="curve" smooth="yes"/>
      <point x="1052" y="631"/>
      <point x="823" y="710"/>
      <point x="568" y="710" type="curve" smooth="yes"/>
      <point x="313" y="710"/>
      <point x="84" y="631"/>
      <point x="84" y="350" type="curve" smooth="yes"/>
      <point x="84" y="69"/>
      <point x="313" y="-10"/>
    </contour>
    <contour>
      <point x="318" y="164" type="line"/>
      <point x="318" y="184" type="line"/>
      <point x="584" y="184" type="line"/>
      <point x="584" y="535" type="line"/>
      <point x="321" y="425" type="line"/>
      <point x="313" y="445" type="line"/>
      <point x="593" y="563" type="line"/>
      <point x="607" y="563" type="line"/>
      <point x="607" y="184" type="line"/>
      <point x="824" y="184" type="line"/>
      <point x="824" y="164" type="line"/>
    </contour>
  </outline>
</glyph>
<glyph name="Euro.tosf" format="2">
  <advance width="1034"/>
  <outline>
    <contour>
      <point x="231" y="212" type="curve" smooth="yes"/>
      <point x="231" y="40"/>
      <point x="381" y="-10"/>
      <point x="588" y="-10" type="curve" smooth="yes"/>
      <point x="656" y="-10"/>
      <point x="759" y="-3"/>
      <point x="820" y="15" type="curve"/>
      <point x="817" y="33" type="line"/>
      <point x="756" y="15"/>
      <point x="658" y="10"/>
      <point x="591" y="10" type="curve" smooth="yes"/>
      <point x="392" y="10"/>
      <point x="249" y="58"/>
      <point x="249" y="210" type="curve" smooth="yes"/>
      <point x="249" y="451"/>
      <point x="443" y="524"/>
      <point x="672" y="524" type="curve" smooth="yes"/>
      <point x="740" y="524"/>
      <point x="842" y="517"/>
      <point x="897" y="498" type="curve"/>
      <point x="904" y="517" type="line"/>
      <point x="846" y="536"/>
      <point x="745" y="544"/>
      <point x="675" y="544" type="curve" smooth="yes"/>
      <point x="444" y="544"/>
      <point x="231" y="468"/>
    </contour>
    <contour>
      <point x="813" y="311" type="line"/>
      <point x="816" y="331" type="line"/>
      <point x="167" y="331" type="line"/>
      <point x="164" y="311" type="line"/>
    </contour>
    <contour>
      <point x="782" y="184" type="line"/>
      <point x="786" y="204" type="line"/>
      <point x="137" y="204" type="line"/>
      <point x="133" y="184" type="line"/>
    </contour>
  </outline>
</glyph>
<glyph name="T_h.liga" format="2">
  <advance width="1451"/>
  <outline>
    <contour>
      <point x="1319" y="382" type="curve" smooth="yes"/>
      <point x="1319" y="286"/>
      <point x="1280" y="120"/>
      <point x="1280" y="66" type="curve" smooth="yes"/>
      <point x="1280" y="15"/>
      <point x="1310" y="-10"/>
      <point x="1355" y="-10" type="curve" smooth="yes"/>
      <point x="1368" y="-10"/>
      <point x="1389" y="-8"/>
      <point x="1405" y="-1" type="curve"/>
      <point x="1401" y="17" type="line"/>
      <point x="1388" y="12"/>
      <point x="1370" y="9"/>
      <point x="1354" y="9" type="curve" smooth="yes"/>
      <point x="1322" y="9"/>
      <point x="1299" y="29"/>
      <point x="1299" y="69" type="curve" smooth="yes"/>
      <point x="1299" y="120"/>
      <point x="1339" y="304"/>
      <point x="1339" y="381" type="curve" smooth="yes"/>
      <point x="1339" y="482"/>
      <point x="1278" y="540"/>
      <point x="1152" y="540" type="curve" smooth="yes"/>
      <point x="1017" y="540"/>
      <point x="911" y="490"/>
      <point x="789" y="434" type="curve"/>
      <point x="833" y="700" type="line"/>
      <point x="75" y="700" type="line"/>
      <point x="72" y="681" type="line"/>
      <point x="442" y="681" type="line"/>
      <point x="334" y="0" type="line"/>
      <point x="353" y="0" type="line"/>
      <point x="461" y="681" type="line"/>
      <point x="811" y="681" type="line"/>
      <point x="702" y="0" type="line"/>
      <point x="721" y="0" type="line"/>
      <point x="786" y="411" type="line"/>
      <point x="916" y="473"/>
      <point x="1014" y="521"/>
      <point x="1149" y="521" type="curve" smooth="yes"/>
      <point x="1270" y="521"/>
      <point x="1319" y="466"/>
    </contour>
  </outline>
</glyph>
<glyph name="a.sc" format="2">
  <advance width="780"/>
  <anchor x="346.444" y="0" name="bottom"/>
  <anchor x="722" y="0" name="ogonek"/>
  <anchor x="444" y="615" name="top"/>
  <outline>
    <contour>
      <point x="-30" y="0" type="line"/>
      <point x="-5" y="0" type="line"/>
      <point x="141" y="194" type="line"/>
      <point x="615" y="194" type="line"/>
      <point x="699" y="0" type="line"/>
      <point x="722" y="0" type="line"/>
      <point x="451" y="625" type="line"/>
      <point x="440" y="625" type="line"/>
    </contour>
    <contour>
      <point x="155" y="213" type="line"/>
      <point x="443" y="598" type="line"/>
      <point x="608" y="213" type="line"/>
    </contour>
  </outline>
</glyph>
<glyph name="acutecomb.case" format="2">
  <anchor x="-525" y="700" name="_top"/>
  <anchor x="-401" y="890" name="top"/>
  <outline>
    <contour>
      <point x="-546" y="756" type="line"/>
      <point x="-519" y="756" type="line"/>
      <point x="-267" y="950" type="line"/>
      <point x="-297" y="950" type="line"/>
    </contour>
  </outline>
</glyph>
<glyph name="at.sc" format="2">
  <advance width="747"/>
  <outline>
    <contour>
      <point x="319" y="-10" type="curve" smooth="yes"/>
      <point x="399" y="-10"/>
      <point x="486" y="11"/>
      <point x="558" y="49" type="curve"/>
      <point x="551" y="66" type="line"/>
      <point x="475" y="28"/>
      <point x="396" y="9"/>
      <point x="320" y="9" type="curve" smooth="yes"/>
      <point x="154" y="9"/>
      <point x="57" y="98"/>
      <point x="57" y="248" type="curve" smooth="yes"/>
      <point x="57" y="453"/>
      <point x="218" y="608"/>
      <point x="437" y="608" type="curve" smooth="yes"/>
      <point x="612" y="608"/>
      <point x="709" y="527"/>
      <point x="709" y="388" type="curve" smooth="yes"/>
      <point x="709" y="264"/>
      <point x="640" y="161"/>
      <point x="571" y="161" type="curve" smooth="yes"/>
      <point x="524" y="161"/>
      <point x="508" y="202"/>
      <point x="525" y="283" type="curve" smooth="yes"/>
      <point x="561" y="455" type="line"/>
      <point x="512" y="469"/>
      <point x="473" y="475"/>
      <point x="437" y="475" type="curve" smooth="yes"/>
      <point x="283" y="475"/>
      <point x="183" y="388"/>
      <point x="183" y="271" type="curve" smooth="yes"/>
      <point x="183" y="190"/>
      <point x="227" y="146"/>
      <point x="309" y="146" type="curve" smooth="yes"/>
      <point x="385" y="146"/>
      <point x="457" y="181"/>
      <point x="502" y="238" type="curve"/>
      <point x="497" y="174"/>
      <point x="523" y="143"/>
      <point x="570" y="143" type="curve" smooth="yes"/>
      <point x="652" y="143"/>
      <point x="727" y="261"/>
      <point x="727" y="390" type="curve" smooth="yes"/>
      <point x="727" y="542"/>
      <point x="624" y="626"/>
      <point x="439" y="626" type="curve" smooth="yes"/>
      <point x="206" y="626"/>
      <point x="38" y="466"/>
      <point x="38" y="243" type="curve" smooth="yes"/>
      <point x="38" y="86"/>
      <point x="144" y="-10"/>
    </contour>
    <contour>
      <point x="316" y="165" type="curve" smooth="yes"/>
      <point x="239" y="165"/>
      <point x="204" y="200"/>
      <point x="204" y="274" type="curve" smooth="yes"/>
      <point x="204" y="378"/>
      <point x="292" y="456"/>
      <point x="432" y="456" type="curve" smooth="yes"/>
      <point x="465" y="456"/>
      <point x="494" y="453"/>
      <point x="537" y="440" type="curve"/>
      <point x="503" y="267" type="line"/>
      <point x="468" y="204"/>
      <point x="382" y="165"/>
    </contour>
  </outline>
</glyph>
<glyph name="b.sc" format="2">
  <advance width="880"/>
  <outline>
    <contour>
      <point x="94" y="3" type="line"/>
      <point x="318" y="-8"/>
      <point x="308" y="-10"/>
      <point x="430" y="-10" type="curve" smooth="yes"/>
      <point x="698" y="-10"/>
      <point x="804" y="51"/>
      <point x="804" y="189" type="curve" smooth="yes"/>
      <point x="804" y="267"/>
      <point x="728" y="324"/>
      <point x="631" y="326" type="curve"/>
      <point x="714" y="341"/>
      <point x="802" y="389"/>
      <point x="802" y="482" type="curve" smooth="yes"/>
      <point x="802" y="580"/>
      <point x="722" y="625"/>
      <point x="519" y="625" type="curve" smooth="yes"/>
      <point x="446" y="625"/>
      <point x="363" y="620"/>
      <point x="190" y="611" type="curve"/>
    </contour>
    <contour>
      <point x="165" y="333" type="line"/>
      <point x="206" y="594" type="line"/>
      <point x="311" y="599"/>
      <point x="411" y="608"/>
      <point x="514" y="608" type="curve" smooth="yes"/>
      <point x="710" y="608"/>
      <point x="784" y="568"/>
      <point x="784" y="479" type="curve" smooth="yes"/>
      <point x="784" y="369"/>
      <point x="645" y="333"/>
      <point x="563" y="333" type="curve" smooth="yes"/>
    </contour>
    <contour>
      <point x="162" y="316" type="line"/>
      <point x="564" y="316" type="line" smooth="yes"/>
      <point x="649" y="316"/>
      <point x="786" y="293"/>
      <point x="786" y="186" type="curve" smooth="yes"/>
      <point x="786" y="67"/>
      <point x="684" y="9"/>
      <point x="457" y="9" type="curve" smooth="yes"/>
      <point x="325" y="9"/>
      <point x="246" y="16"/>
      <point x="116" y="22" type="curve"/>
    </contour>
  </outline>
</glyph>
<glyph name="braceleft.sc" format="2">
  <advance width="400"/>
  <outline>
    <contour>
      <point x="134" y="-24" type="curve" smooth="yes"/>
      <point x="134" y="-77"/>
      <point x="163" y="-124"/>
      <point x="265" y="-124" type="curve" smooth="yes"/>
      <point x="303" y="-124" type="line"/>
      <point x="305" y="-106" type="line"/>
      <point x="268" y="-106" type="line" smooth="yes"/>
      <point x="179" y="-106"/>
      <point x="152" y="-66"/>
      <point x="152" y="-20" type="curve" smooth="yes"/>
      <point x="152" y="63"/>
      <point x="217" y="138"/>
      <point x="217" y="239" type="curve" smooth="yes"/>
      <point x="217" y="271"/>
      <point x="204" y="295"/>
      <point x="176" y="305" type="curve"/>
      <point x="231" y="317"/>
      <point x="251" y="383"/>
      <point x="251" y="465" type="curve" smooth="yes"/>
      <point x="251" y="502"/>
      <point x="248" y="538"/>
      <point x="248" y="567" type="curve" smooth="yes"/>
      <point x="248" y="629"/>
      <point x="264" y="722"/>
      <point x="399" y="722" type="curve" smooth="yes"/>
      <point x="437" y="722" type="line"/>
      <point x="439" y="740" type="line"/>
      <point x="403" y="740" type="line" smooth="yes"/>
      <point x="253" y="740"/>
      <point x="228" y="639"/>
      <point x="228" y="567" type="curve" smooth="yes"/>
      <point x="228" y="540"/>
      <point x="231" y="498"/>
      <point x="231" y="456" type="curve" smooth="yes"/>
      <point x="231" y="377"/>
      <point x="214" y="316"/>
      <point x="148" y="316" type="curve" smooth="yes"/>
      <point x="134" y="316" type="line"/>
      <point x="130" y="296" type="line"/>
      <point x="147" y="296" type="line" smooth="yes"/>
      <point x="178" y="296"/>
      <point x="199" y="275"/>
      <point x="199" y="234" type="curve" smooth="yes"/>
      <point x="199" y="137"/>
      <point x="134" y="65"/>
    </contour>
  </outline>
</glyph>
<glyph name="bracketright.sc" format="2">
  <advance width="400"/>
  <outline>
    <contour>
      <point x="-58" y="-107" type="line"/>
      <point x="-60" y="-125" type="line"/>
      <point x="204" y="-125" type="line"/>
      <point x="341" y="740" type="line"/>
      <point x="76" y="740" type="line"/>
      <point x="73" y="720" type="line"/>
      <point x="319" y="720" type="line"/>
      <point x="188" y="-107" type="line"/>
    </contour>
  </outline>
</glyph>
<glyph name="c.superior" format="2">
  <advance width="449"/>
  <outline>
    <contour>
      <point x="71" y="508" type="curve" smooth="yes"/>
      <point x="71" y="416"/>
      <point x="141" y="363"/>
      <point x="265" y="363" type="curve" smooth="yes"/>
      <point x="319" y="363"/>
      <point x="376" y="372"/>
      <point x="417" y="387" type="curve"/>
      <point x="413" y="403" type="line"/>
      <point x="367" y="389"/>
      <point x="314" y="380"/>
      <point x="268" y="380" type="curve" smooth="yes"/>
      <point x="151" y="380"/>
      <point x="89" y="429"/>
      <point x="89" y="504" type="curve" smooth="yes"/>
      <point x="89" y="599"/>
      <point x="179" y="661"/>
      <point x="304" y="661" type="curve" smooth="yes"/>
      <point x="351" y="661"/>
      <point x="399" y="653"/>
      <point x="449" y="639" type="curve"/>
      <point x="455" y="656" type="line"/>
      <point x="406" y="671"/>
      <point x="357" y="678"/>
      <point x="305" y="678" type="curve" smooth="yes"/>
      <point x="168" y="678"/>
      <point x="71" y="609"/>
    </contour>
  </outline>
</glyph>
<glyph name="centsuperior" format="2">
  <advance width="503"/>
  <outline>
    <contour>
      <point x="266" y="307" type="line"/>
      <point x="281" y="307" type="line"/>
      <point x="291" y="362" type="line"/>
      <point x="346" y="364"/>
      <point x="411" y="374"/>
      <point x="451" y="386" type="curve"/>
      <point x="449" y="402" type="line"/>
      <point x="388" y="387"/>
      <point x="324" y="378"/>
      <point x="287" y="378" type="curve" smooth="yes"/>
      <point x="179" y="378"/>
      <point x="122" y="415"/>
      <point x="122" y="486" type="curve" smooth="yes"/>
      <point x="122" y="588"/>
      <point x="205" y="664"/>
      <point x="338" y="664" type="curve" smooth="yes"/>
      <point x="387" y="664"/>
      <point x="434" y="657"/>
      <point x="484" y="641" type="curve"/>
      <point x="489" y="659" type="line"/>
      <point x="438" y="673"/>
      <point x="391" y="680"/>
      <point x="340" y="681" type="curve"/>
      <point x="349" y="735" type="line"/>
      <point x="333" y="735" type="line"/>
      <point x="325" y="680" type="line"/>
      <point x="195" y="674"/>
      <point x="105" y="595"/>
      <point x="105" y="487" type="curve" smooth="yes"/>
      <point x="105" y="407"/>
      <point x="166" y="362"/>
      <point x="274" y="362" type="curve"/>
    </contour>
  </outline>
</glyph>
<glyph name="dcroat.sc" format="2">
  <advance width="968"/>
  <outline>
    <contour>
      <point x="42" y="306" type="line"/>
      <point x="506" y="306" type="line"/>
      <point x="509" y="324" type="line"/>
      <point x="45" y="324" type="line"/>
    </contour>
    <component base="d.sc"/>
  </outline>
</glyph>
<glyph name="dividesuperior" format="2">
  <advance width="377"/>
  <outline>
    <contour>
      <point x="199" y="415" type="curve" smooth="yes"/>
      <point x="199" y="409"/>
      <point x="203" y="408"/>
      <point x="210" y="408" type="curve" smooth="yes"/>
      <point x="222" y="408"/>
      <point x="224" y="411"/>
      <point x="225" y="426" type="curve" smooth="yes"/>
      <point x="225" y="431"/>
      <point x="222" y="433"/>
      <point x="215" y="433" type="curve" smooth="yes"/>
      <point x="203" y="433"/>
      <point x="200" y="433"/>
    </contour>
    <contour>
      <point x="236" y="644" type="curve" smooth="yes"/>
      <point x="236" y="638"/>
      <point x="240" y="637"/>
      <point x="247" y="637" type="curve" smooth="yes"/>
      <point x="259" y="637"/>
      <point x="261" y="640"/>
      <point x="262" y="655" type="curve" smooth="yes"/>
      <point x="262" y="660"/>
      <point x="259" y="662"/>
      <point x="252" y="662" type="curve" smooth="yes"/>
      <point x="240" y="662"/>
      <point x="237" y="662"/>
    </contour>
    <contour>
      <point x="115" y="526" type="line"/>
      <point x="342" y="526" type="line"/>
      <point x="345" y="544" type="line"/>
      <point x="119" y="544" type="line"/>
    </contour>
  </outline>
</glyph>
<glyph name="e.sc" format="2">
  <advance width="803"/>
  <anchor x="402" y="0" name="bottom"/>
  <anchor x="711" y="0" name="ogonek"/>
  <anchor x="482" y="615" name="top"/>
  <anchor x="122" y="615" name="topleft"/>
  <outline>
    <contour>
      <point x="93" y="0" type="line"/>
      <point x="711" y="0" type="line"/>
      <point x="713" y="17" type="line"/>
      <point x="114" y="17" type="line"/>
      <point x="164" y="329" type="line"/>
      <point x="713" y="329" type="line"/>
      <point x="716" y="346" type="line"/>
      <point x="167" y="346" type="line"/>
      <point x="207" y="598" type="line"/>
      <point x="782" y="598" type="line"/>
      <point x="785" y="615" type="line"/>
      <point x="191" y="615" type="line"/>
    </contour>
  </outline>
</glyph>
<glyph name="e.superior" format="2">
  <advance width="440"/>
  <outline>
    <contour>
      <point x="77" y="536" type="curve"/>
      <point x="75" y="519" type="line"/>
      <point x="117" y="510"/>
      <point x="179" y="504"/>
      <point x="231" y="504" type="curve" smooth="yes"/>
      <point x="381" y="504"/>
      <point x="451" y="540"/>
      <point x="451" y="601" type="curve" smooth="yes"/>
      <point x="451" y="650"/>
      <point x="399" y="678"/>
      <point x="309" y="678" type="curve" smooth="yes"/>
      <point x="162" y="678"/>
      <point x="68" y="600"/>
      <point x="68" y="489" type="curve" smooth="yes"/>
      <point x="68" y="408"/>
      <point x="125" y="364"/>
      <point x="231" y="364" type="curve" smooth="yes"/>
      <point x="292" y="364"/>
      <point x="371" y="379"/>
      <point x="426" y="400" type="curve"/>
      <point x="422" y="416" type="line"/>
      <point x="364" y="395"/>
      <point x="288" y="381"/>
      <point x="232" y="381" type="curve" smooth="yes"/>
      <point x="136" y="381"/>
      <point x="84" y="419"/>
      <point x="84" y="489" type="curve" smooth="yes"/>
      <point x="84" y="589"/>
      <point x="172" y="661"/>
      <point x="309" y="661" type="curve" smooth="yes"/>
      <point x="390" y="661"/>
      <point x="434" y="639"/>
      <point x="434" y="599" type="curve" smooth="yes"/>
      <point x="434" y="547"/>
      <point x="362" y="521"/>
      <point x="234" y="521" type="curve" smooth="yes"/>
      <point x="181" y="521"/>
      <point x="121" y="527"/>
    </contour>
  </outline>
</glyph>
<glyph name="eng.sc" format="2">
  <advance width="1009"/>
  <outline>
    <contour>
      <point x="805" y="-7" type="line"/>
      <point x="765" y="-143"/>
      <point x="662" y="-201"/>
      <point x="549" y="-201" type="curve" smooth="yes"/>
      <point x="507" y="-201"/>
      <point x="466" y="-196"/>
      <point x="427" y="-189" type="curve"/>
      <point x="422" y="-208" type="line"/>
      <point x="460" y="-215"/>
      <point x="503" y="-220"/>
      <point x="546" y="-220" type="curve" smooth="yes"/>
      <point x="686" y="-220"/>
      <point x="806" y="-141"/>
      <point x="832" y="25" type="curve" smooth="yes"/>
      <point x="925" y="615" type="line"/>
      <point x="906" y="615" type="line"/>
      <point x="811" y="17" type="line"/>
      <point x="209" y="625" type="line"/>
      <point x="192" y="625" type="line"/>
      <point x="93" y="0" type="line"/>
      <point x="112" y="0" type="line"/>
      <point x="207" y="598" type="line"/>
    </contour>
  </outline>
</glyph>
<glyph name="eurosuperior" format="2">
  <advance width="494"/>
  <outline>
    <contour>
      <point x="357" y="379" type="curve" smooth="yes"/>
      <point x="247" y="379"/>
      <point x="152" y="412"/>
      <point x="152" y="528" type="curve" smooth="yes"/>
      <point x="152" y="692"/>
      <point x="272" y="760"/>
      <point x="418" y="760" type="curve" smooth="yes"/>
      <point x="456" y="760"/>
      <point x="495" y="756"/>
      <point x="529" y="744" type="curve"/>
      <point x="534" y="761" type="line"/>
      <point x="499" y="773"/>
      <point x="461" y="778"/>
      <point x="421" y="778" type="curve" smooth="yes"/>
      <point x="253" y="778"/>
      <point x="135" y="697"/>
      <point x="135" y="525" type="curve" smooth="yes"/>
      <point x="135" y="399"/>
      <point x="237" y="361"/>
      <point x="356" y="361" type="curve" smooth="yes"/>
      <point x="394" y="361"/>
      <point x="434" y="365"/>
      <point x="471" y="377" type="curve"/>
      <point x="469" y="393" type="line"/>
      <point x="432" y="382"/>
      <point x="395" y="379"/>
    </contour>
    <contour>
      <point x="467" y="615" type="line"/>
      <point x="469" y="632" type="line"/>
      <point x="93" y="632" type="line"/>
      <point x="91" y="615" type="line"/>
    </contour>
    <contour>
      <point x="450" y="507" type="line"/>
      <point x="451" y="524" type="line"/>
      <point x="76" y="524" type="line"/>
      <point x="74" y="507" type="line"/>
    </contour>
  </outline>
</glyph>
<glyph name="f_f.liga" format="2">
  <advance width="808"/>
  <outline>
    <contour>
      <point x="-18" y="-220" type="curve" smooth="yes"/>
      <point x="82" y="-220"/>
      <point x="112" y="-129"/>
      <point x="140" y="53" type="curve" smooth="yes"/>
      <point x="204" y="465" type="line"/>
      <point x="530" y="465" type="line"/>
      <point x="465" y="47" type="line" smooth="yes"/>
      <point x="440" y="-111"/>
      <point x="419" y="-203"/>
      <point x="328" y="-203" type="curve" smooth="yes"/>
      <point x="313" y="-203"/>
      <point x="297" y="-200"/>
      <point x="278" y="-193" type="curve"/>
      <point x="272" y="-210" type="line"/>
      <point x="293" y="-217"/>
      <point x="311" y="-220"/>
      <point x="328" y="-220" type="curve" smooth="yes"/>
      <point x="428" y="-220"/>
      <point x="458" y="-129"/>
      <point x="486" y="53" type="curve" smooth="yes"/>
      <point x="550" y="465" type="line"/>
      <point x="848" y="465" type="line"/>
      <point x="851" y="484" type="line"/>
      <point x="553" y="484" type="line"/>
      <point x="579" y="655"/>
      <point x="655" y="731"/>
      <point x="781" y="731" type="curve" smooth="yes"/>
      <point x="861" y="731"/>
      <point x="919" y="717"/>
      <point x="992" y="695" type="curve"/>
      <point x="998" y="713" type="line"/>
      <point x="921" y="739"/>
      <point x="860" y="750"/>
      <point x="791" y="750" type="curve" smooth="yes"/>
      <point x="736" y="750"/>
      <point x="689" y="740"/>
      <point x="649" y="714" type="curve"/>
      <point x="573" y="739"/>
      <point x="513" y="750"/>
      <point x="445" y="750" type="curve" smooth="yes"/>
      <point x="314" y="750"/>
      <point x="223" y="695"/>
      <point x="187" y="484" type="curve"/>
      <point x="60" y="479" type="line"/>
      <point x="58" y="465" type="line"/>
      <point x="184" y="465" type="line"/>
      <point x="119" y="47" type="line" smooth="yes"/>
      <point x="94" y="-111"/>
      <point x="73" y="-203"/>
      <point x="-18" y="-203" type="curve" smooth="yes"/>
      <point x="-33" y="-203"/>
      <point x="-49" y="-200"/>
      <point x="-68" y="-193" type="curve"/>
      <point x="-74" y="-210" type="line"/>
      <point x="-53" y="-217"/>
      <point x="-35" y="-220"/>
    </contour>
    <contour>
      <point x="207" y="484" type="line"/>
      <point x="233" y="655"/>
      <point x="309" y="731"/>
      <point x="435" y="731" type="curve" smooth="yes"/>
      <point x="509" y="731"/>
      <point x="564" y="719"/>
      <point x="630" y="700" type="curve"/>
      <point x="584" y="660"/>
      <point x="551" y="593"/>
      <point x="533" y="484" type="curve"/>
    </contour>
  </outline>
</glyph>
<glyph name="f_f_l.liga" format="2">
  <advance width="1123"/>
  <outline>
    <contour>
      <point x="-18" y="-220" type="curve" smooth="yes"/>
      <point x="82" y="-220"/>
      <point x="112" y="-129"/>
      <point x="140" y="53" type="curve" smooth="yes"/>
      <point x="204" y="465" type="line"/>
      <point x="530" y="465" type="line"/>
      <point x="465" y="47" type="line" smooth="yes"/>
      <point x="440" y="-111"/>
      <point x="419" y="-203"/>
      <point x="328" y="-203" type="curve" smooth="yes"/>
      <point x="313" y="-203"/>
      <point x="297" y="-200"/>
      <point x="278" y="-193" type="curve"/>
      <point x="272" y="-210" type="line"/>
      <point x="293" y="-217"/>
      <point x="311" y="-220"/>
      <point x="328" y="-220" type="curve" smooth="yes"/>
      <point x="428" y="-220"/>
      <point x="458" y="-129"/>
      <point x="486" y="53" type="curve" smooth="yes"/>
      <point x="550" y="465" type="line"/>
      <point x="813" y="465" type="line"/>
      <point x="816" y="484" type="line"/>
      <point x="553" y="484" type="line"/>
      <point x="579" y="655"/>
      <point x="655" y="731"/>
      <point x="781" y="731" type="curve" smooth="yes"/>
      <point x="855" y="731"/>
      <point x="904" y="722"/>
      <point x="972" y="700" type="curve"/>
      <point x="887" y="161" type="line" smooth="yes"/>
      <point x="885" y="148"/>
      <point x="881" y="121"/>
      <point x="881" y="97" type="curve" smooth="yes"/>
      <point x="881" y="40"/>
      <point x="914" y="-10"/>
      <point x="993" y="-10" type="curve" smooth="yes"/>
      <point x="1028" y="-10"/>
      <point x="1063" y="-2"/>
      <point x="1090" y="5" type="curve"/>
      <point x="1085" y="24" type="line"/>
      <point x="1058" y="17"/>
      <point x="1027" y="9"/>
      <point x="996" y="9" type="curve" smooth="yes"/>
      <point x="921" y="9"/>
      <point x="901" y="58"/>
      <point x="901" y="99" type="curve" smooth="yes"/>
      <point x="901" y="127"/>
      <point x="905" y="151"/>
      <point x="907" y="161" type="curve" smooth="yes"/>
      <point x="994" y="713" type="line"/>
      <point x="915" y="739"/>
      <point x="859" y="750"/>
      <point x="791" y="750" type="curve" smooth="yes"/>
      <point x="736" y="750"/>
      <point x="689" y="740"/>
      <point x="649" y="714" type="curve"/>
      <point x="573" y="739"/>
      <point x="513" y="750"/>
      <point x="445" y="750" type="curve" smooth="yes"/>
      <point x="314" y="750"/>
      <point x="223" y="695"/>
      <point x="187" y="484" type="curve"/>
      <point x="60" y="479" type="line"/>
      <point x="58" y="465" type="line"/>
      <point x="184" y="465" type="line"/>
      <point x="119" y="47" type="line" smooth="yes"/>
      <point x="94" y="-111"/>
      <point x="73" y="-203"/>
      <point x="-18" y="-203" type="curve" smooth="yes"/>
      <point x="-33" y="-203"/>
      <point x="-49" y="-200"/>
      <point x="-68" y="-193" type="curve"/>
      <point x="-74" y="-210" type="line"/>
      <point x="-53" y="-217"/>
      <point x="-35" y="-220"/>
    </contour>
    <contour>
      <point x="207" y="484" type="line"/>
      <point x="233" y="655"/>
      <point x="309" y="731"/>
      <point x="435" y="731" type="curve" smooth="yes"/>
      <point x="509" y="731"/>
      <point x="564" y="719"/>
      <point x="630" y="700" type="curve"/>
      <point x="584" y="660"/>
      <point x="551" y="593"/>
      <point x="533" y="484" type="curve"/>
    </contour>
  </outline>
</glyph>
<glyph name="f_f_t.liga" format="2">
  <advance width="1296"/>
  <outline>
    <contour>
      <point x="-18" y="-220" type="curve" smooth="yes"/>
      <point x="82" y="-220"/>
      <point x="112" y="-129"/>
      <point x="140" y="53" type="curve" smooth="yes"/>
      <point x="204" y="465" type="line"/>
      <point x="533" y="465" type="line"/>
      <point x="468" y="47" type="line" smooth="yes"/>
      <point x="443" y="-111"/>
      <point x="422" y="-203"/>
      <point x="331" y="-203" type="curve" smooth="yes"/>
      <point x="316" y="-203"/>
      <point x="300" y="-200"/>
      <point x="281" y="-193" type="curve"/>
      <point x="275" y="-210" type="line"/>
      <point x="296" y="-217"/>
      <point x="314" y="-220"/>
      <point x="331" y="-220" type="curve" smooth="yes"/>
      <point x="431" y="-220"/>
      <point x="461" y="-129"/>
      <point x="489" y="53" type="curve" smooth="yes"/>
      <point x="553" y="465" type="line"/>
      <point x="927" y="465" type="line"/>
      <point x="882" y="175" type="line" smooth="yes"/>
      <point x="879" y="157"/>
      <point x="877" y="135"/>
      <point x="877" y="124" type="curve" smooth="yes"/>
      <point x="877" y="28"/>
      <point x="935" y="-10"/>
      <point x="1027" y="-10" type="curve" smooth="yes"/>
      <point x="1081" y="-10"/>
      <point x="1158" y="1"/>
      <point x="1237" y="31" type="curve"/>
      <point x="1231" y="49" type="line"/>
      <point x="1169" y="26"/>
      <point x="1100" y="9"/>
      <point x="1034" y="9" type="curve" smooth="yes"/>
      <point x="930" y="9"/>
      <point x="897" y="58"/>
      <point x="897" y="128" type="curve" smooth="yes"/>
      <point x="897" y="143"/>
      <point x="898" y="159"/>
      <point x="901" y="175" type="curve" smooth="yes"/>
      <point x="946" y="465" type="line"/>
      <point x="1279" y="465" type="line"/>
      <point x="1282" y="484" type="line"/>
      <point x="949" y="484" type="line"/>
      <point x="990" y="714" type="line"/>
      <point x="917" y="740"/>
      <point x="860" y="750"/>
      <point x="794" y="750" type="curve" smooth="yes"/>
      <point x="738" y="750"/>
      <point x="690" y="740"/>
      <point x="650" y="713" type="curve"/>
      <point x="574" y="740"/>
      <point x="514" y="750"/>
      <point x="445" y="750" type="curve" smooth="yes"/>
      <point x="314" y="750"/>
      <point x="223" y="695"/>
      <point x="187" y="484" type="curve"/>
      <point x="60" y="479" type="line"/>
      <point x="58" y="465" type="line"/>
      <point x="184" y="465" type="line"/>
      <point x="119" y="47" type="line" smooth="yes"/>
      <point x="94" y="-111"/>
      <point x="73" y="-203"/>
      <point x="-18" y="-203" type="curve" smooth="yes"/>
      <point x="-33" y="-203"/>
      <point x="-49" y="-200"/>
      <point x="-68" y="-193" type="curve"/>
      <point x="-74" y="-210" type="line"/>
      <point x="-53" y="-217"/>
      <point x="-35" y="-220"/>
    </contour>
    <contour>
      <point x="207" y="484" type="line"/>
      <point x="233" y="655"/>
      <point x="309" y="731"/>
      <point x="435" y="731" type="curve" smooth="yes"/>
      <point x="510" y="731"/>
      <point x="566" y="719"/>
      <point x="633" y="699" type="curve"/>
      <point x="588" y="660"/>
      <point x="554" y="592"/>
      <point x="536" y="484" type="curve"/>
    </contour>
    <contour>
      <point x="556" y="484" type="line"/>
      <point x="582" y="655"/>
      <point x="658" y="731"/>
      <point x="784" y="731" type="curve" smooth="yes"/>
      <point x="854" y="731"/>
      <point x="906" y="720"/>
      <point x="969" y="700" type="curve"/>
      <point x="930" y="484" type="line"/>
    </contour>
  </outline>
</glyph>
<glyph name="f_t.liga" format="2">
  <advance width="947"/>
  <outline>
    <contour>
      <point x="-18" y="-220" type="curve" smooth="yes"/>
      <point x="82" y="-220"/>
      <point x="112" y="-129"/>
      <point x="140" y="53" type="curve" smooth="yes"/>
      <point x="204" y="465" type="line"/>
      <point x="578" y="465" type="line"/>
      <point x="533" y="175" type="line" smooth="yes"/>
      <point x="530" y="157"/>
      <point x="528" y="135"/>
      <point x="528" y="124" type="curve" smooth="yes"/>
      <point x="528" y="28"/>
      <point x="586" y="-10"/>
      <point x="678" y="-10" type="curve" smooth="yes"/>
      <point x="732" y="-10"/>
      <point x="809" y="1"/>
      <point x="888" y="31" type="curve"/>
      <point x="882" y="49" type="line"/>
      <point x="820" y="26"/>
      <point x="751" y="9"/>
      <point x="685" y="9" type="curve" smooth="yes"/>
      <point x="581" y="9"/>
      <point x="548" y="58"/>
      <point x="548" y="128" type="curve" smooth="yes"/>
      <point x="548" y="143"/>
      <point x="549" y="159"/>
      <point x="552" y="175" type="curve" smooth="yes"/>
      <point x="597" y="465" type="line"/>
      <point x="930" y="465" type="line"/>
      <point x="933" y="484" type="line"/>
      <point x="600" y="484" type="line"/>
      <point x="641" y="714" type="line"/>
      <point x="568" y="740"/>
      <point x="511" y="750"/>
      <point x="445" y="750" type="curve" smooth="yes"/>
      <point x="314" y="750"/>
      <point x="223" y="695"/>
      <point x="187" y="484" type="curve"/>
      <point x="60" y="479" type="line"/>
      <point x="58" y="465" type="line"/>
      <point x="184" y="465" type="line"/>
      <point x="119" y="47" type="line" smooth="yes"/>
      <point x="94" y="-111"/>
      <point x="73" y="-203"/>
      <point x="-18" y="-203" type="curve" smooth="yes"/>
      <point x="-33" y="-203"/>
      <point x="-49" y="-200"/>
      <point x="-68" y="-193" type="curve"/>
      <point x="-74" y="-210" type="line"/>
      <point x="-53" y="-217"/>
      <point x="-35" y="-220"/>
    </contour>
    <contour>
      <point x="207" y="484" type="line"/>
      <point x="233" y="655"/>
      <point x="309" y="731"/>
      <point x="435" y="731" type="curve" smooth="yes"/>
      <point x="505" y="731"/>
      <point x="557" y="720"/>
      <point x="620" y="700" type="curve"/>
      <point x="581" y="484" type="line"/>
    </contour>
  </outline>
</glyph>
<glyph name="g.sc" format="2">
  <advance width="907"/>
  <anchor x="410.444" y="0" name="bottom"/>
  <anchor x="554" y="615" name="top"/>
  <outline>
    <contour>
      <point x="86" y="274" type="curve" smooth="yes"/>
      <point x="86" y="87"/>
      <point x="232" y="-10"/>
      <point x="458" y="-10" type="curve" smooth="yes"/>
      <point x="643" y="-10"/>
      <point x="749" y="29"/>
      <point x="795" y="50" type="curve"/>
      <point x="830" y="272" type="line"/>
      <point x="493" y="272" type="line"/>
      <point x="491" y="253" type="line"/>
      <point x="809" y="253" type="line"/>
      <point x="778" y="64" type="line"/>
      <point x="731" y="46"/>
      <point x="633" y="9"/>
      <point x="462" y="9" type="curve" smooth="yes"/>
      <point x="246" y="9"/>
      <point x="105" y="97"/>
      <point x="105" y="275" type="curve" smooth="yes"/>
      <point x="105" y="476"/>
      <point x="291" y="606"/>
      <point x="542" y="606" type="curve" smooth="yes"/>
      <point x="653" y="606"/>
      <point x="730" y="594"/>
      <point x="833" y="559" type="curve"/>
      <point x="840" y="576" type="line"/>
      <point x="753" y="608"/>
      <point x="651" y="625"/>
      <point x="544" y="625" type="curve" smooth="yes"/>
      <point x="283" y="625"/>
      <point x="86" y="490"/>
    </contour>
  </outline>
</glyph>
<glyph name="g.superior" format="2">
  <advance width="482"/>
  <outline>
    <contour>
      <point x="249" y="263" type="curve" smooth="yes"/>
      <point x="204" y="263"/>
      <point x="153" y="273"/>
      <point x="84" y="304" type="curve"/>
      <point x="77" y="287" type="line"/>
      <point x="152" y="256"/>
      <point x="198" y="247"/>
      <point x="246" y="247" type="curve" smooth="yes"/>
      <point x="314" y="247"/>
      <point x="385" y="262"/>
      <point x="405" y="390" type="curve" smooth="yes"/>
      <point x="446" y="652" type="line"/>
      <point x="410" y="668"/>
      <point x="367" y="678"/>
      <point x="318" y="678" type="curve" smooth="yes"/>
      <point x="199" y="678"/>
      <point x="71" y="627"/>
      <point x="71" y="487" type="curve" smooth="yes"/>
      <point x="71" y="410"/>
      <point x="134" y="364"/>
      <point x="227" y="364" type="curve" smooth="yes"/>
      <point x="285" y="364"/>
      <point x="350" y="386"/>
      <point x="391" y="411" type="curve"/>
      <point x="388" y="393" type="line" smooth="yes"/>
      <point x="369" y="282"/>
      <point x="311" y="263"/>
    </contour>
    <contour>
      <point x="427" y="641" type="curve"/>
      <point x="394" y="433" type="line"/>
      <point x="348" y="404"/>
      <point x="273" y="380"/>
      <point x="230" y="380" type="curve" smooth="yes"/>
      <point x="150" y="380"/>
      <point x="88" y="419"/>
      <point x="88" y="487" type="curve" smooth="yes"/>
      <point x="88" y="621"/>
      <point x="220" y="663"/>
      <point x="312" y="663" type="curve" smooth="yes"/>
      <point x="371" y="663"/>
      <point x="400" y="652"/>
    </contour>
  </outline>
</glyph>
<glyph name="gravecomb.case" format="2">
  <anchor x="-525" y="700" name="_top"/>
  <anchor x="-601" y="890" name="top"/>
  <outline>
    <contour>
      <point x="-524" y="756" type="line"/>
      <point x="-501" y="756" type="line"/>
      <point x="-686" y="950" type="line"/>
      <point x="-712" y="950" type="line"/>
    </contour>
  </outline>
</glyph>
<glyph name="h.sc" format="2">
  <advance width="1007"/>
  <anchor x="460.444" y="0" name="bottom"/>
  <anchor x="508" y="308" name="center"/>
  <anchor x="557" y="615" name="top"/>
  <anchor x="101" y="615" name="topleft"/>
  <outline>
    <contour>
      <point x="93" y="0" type="line"/>
      <point x="112" y="0" type="line"/>
      <point x="152" y="255" type="line"/>
      <point x="847" y="255" type="line"/>
      <point x="807" y="0" type="line"/>
      <point x="826" y="0" type="line"/>
      <point x="924" y="615" type="line"/>
      <point x="905" y="615" type="line"/>
      <point x="850" y="274" type="line"/>
      <point x="155" y="274" type="line"/>
      <point x="210" y="615" type="line"/>
      <point x="191" y="615" type="line"/>
    </contour>
  </outline>
</glyph>
<glyph name="h.superior" format="2">
  <advance width="498"/>
  <outline>
    <contour>
      <point x="436" y="585" type="curve" smooth="yes"/>
      <point x="436" y="534"/>
      <point x="414" y="453"/>
      <point x="414" y="410" type="curve" smooth="yes"/>
      <point x="414" y="380"/>
      <point x="432" y="364"/>
      <point x="460" y="364" type="curve" smooth="yes"/>
      <point x="467" y="364"/>
      <point x="480" y="365"/>
      <point x="491" y="370" type="curve"/>
      <point x="489" y="387" type="line"/>
      <point x="479" y="383"/>
      <point x="468" y="381"/>
      <point x="459" y="381" type="curve" smooth="yes"/>
      <point x="443" y="381"/>
      <point x="431" y="391"/>
      <point x="431" y="411" type="curve" smooth="yes"/>
      <point x="431" y="455"/>
      <point x="453" y="536"/>
      <point x="453" y="584" type="curve" smooth="yes"/>
      <point x="453" y="642"/>
      <point x="418" y="678"/>
      <point x="344" y="678" type="curve" smooth="yes"/>
      <point x="267" y="678"/>
      <point x="209" y="650"/>
      <point x="141" y="618" type="curve"/>
      <point x="169" y="792" type="line"/>
      <point x="152" y="792" type="line"/>
      <point x="84" y="370" type="line"/>
      <point x="101" y="370" type="line"/>
      <point x="138" y="599" type="line"/>
      <point x="210" y="633"/>
      <point x="267" y="661"/>
      <point x="342" y="661" type="curve" smooth="yes"/>
      <point x="409" y="661"/>
      <point x="436" y="630"/>
    </contour>
  </outline>
</glyph>
<glyph name="i.sc" format="2">
  <advance width="293"/>
  <anchor x="102" y="0" name="bottom"/>
  <anchor x="112" y="0" name="ogonek"/>
  <anchor x="200" y="615" name="top"/>
  <outline>
    <contour>
      <point x="93" y="0" type="line"/>
      <point x="112" y="0" type="line"/>
      <point x="210" y="615" type="line"/>
      <point x="191" y="615" type="line"/>
    </contour>
  </outline>
</glyph>
<glyph name="i.sc.loclTRK" format="2">
  <advance width="293"/>
  <outline>
    <contour>
      <point x="229" y="796" type="curve" smooth="yes"/>
      <point x="216" y="796"/>
      <point x="211" y="796"/>
      <point x="210" y="770" type="curve" smooth="yes"/>
      <point x="210" y="763"/>
      <point x="216" y="762"/>
      <point x="221" y="762" type="curve" smooth="yes"/>
      <point x="239" y="762"/>
      <point x="240" y="762"/>
      <point x="242" y="789" type="curve" smooth="yes"/>
      <point x="242" y="795"/>
      <point x="239" y="796"/>
    </contour>
    <component base="i.sc"/>
  </outline>
</glyph>
<glyph name="j.sc" format="2">
  <advance width="696"/>
  <anchor x="274" y="0" name="bottom"/>
  <anchor x="400" y="615" name="top"/>
  <outline>
    <contour>
      <point x="18" y="35" type="line"/>
      <point x="18" y="35"/>
      <point x="150" y="-10"/>
      <point x="279" y="-10" type="curve" smooth="yes"/>
      <point x="429" y="-10"/>
      <point x="539" y="78"/>
      <point x="568" y="267" type="curve" smooth="yes"/>
      <point x="622" y="615" type="line"/>
      <point x="172" y="615" type="line"/>
      <point x="169" y="596" type="line"/>
      <point x="601" y="596" type="line"/>
      <point x="549" y="267" type="line" smooth="yes"/>
      <point x="521" y="89"/>
      <point x="405" y="9"/>
      <point x="282" y="9" type="curve" smooth="yes"/>
      <point x="158" y="9"/>
      <point x="22" y="55"/>
      <point x="22" y="55" type="curve"/>
    </contour>
  </outline>
</glyph>
<glyph name="j.superior" format="2">
  <advance width="163"/>
  <outline>
    <contour>
      <point x="149" y="670" type="line"/>
      <point x="132" y="670" type="line"/>
      <point x="79" y="334" type="line" smooth="yes"/>
      <point x="72" y="289"/>
      <point x="54" y="261"/>
      <point x="22" y="261" type="curve" smooth="yes"/>
      <point x="14" y="261"/>
      <point x="2" y="262"/>
      <point x="-17" y="270" type="curve"/>
      <point x="-19" y="254" type="line"/>
      <point x="-8" y="247"/>
      <point x="16" y="245"/>
      <point x="22" y="245" type="curve" smooth="yes"/>
      <point x="66" y="245"/>
      <point x="86" y="276"/>
      <point x="95" y="332" type="curve" smooth="yes"/>
    </contour>
    <contour>
      <point x="166" y="768" type="curve" smooth="yes"/>
      <point x="166" y="773"/>
      <point x="166" y="775"/>
      <point x="157" y="775" type="curve" smooth="yes"/>
      <point x="146" y="775"/>
      <point x="145" y="775"/>
      <point x="144" y="758" type="curve" smooth="yes"/>
      <point x="144" y="752"/>
      <point x="147" y="750"/>
      <point x="152" y="750" type="curve" smooth="yes"/>
      <point x="164" y="750"/>
      <point x="165" y="750"/>
    </contour>
  </outline>
</glyph>
<glyph name="k.sc" format="2">
  <advance width="867"/>
  <anchor x="408" y="0" name="bottom"/>
  <anchor x="482" y="615" name="top"/>
  <outline>
    <contour>
      <point x="94" y="0" type="line"/>
      <point x="113" y="0" type="line"/>
      <point x="210" y="615" type="line"/>
      <point x="191" y="615" type="line"/>
    </contour>
    <contour>
      <point x="804" y="-10" type="curve" smooth="yes"/>
      <point x="806" y="-10"/>
      <point x="812" y="-10"/>
      <point x="817" y="-9" type="curve"/>
      <point x="818" y="9" type="line"/>
      <point x="814" y="9"/>
      <point x="811" y="9"/>
      <point x="807" y="9" type="curve" smooth="yes"/>
      <point x="745" y="9"/>
      <point x="702" y="38"/>
      <point x="608" y="103" type="curve" smooth="yes"/>
      <point x="166" y="408" type="line"/>
      <point x="164" y="386" type="line"/>
      <point x="558" y="112" type="line" smooth="yes"/>
      <point x="676" y="30"/>
      <point x="730" y="-10"/>
    </contour>
    <contour>
      <point x="321" y="287" type="line"/>
      <point x="471" y="340"/>
      <point x="734" y="457"/>
      <point x="878" y="613" type="curve"/>
      <point x="865" y="626" type="line"/>
      <point x="713" y="466"/>
      <point x="447" y="351"/>
      <point x="303" y="299" type="curve"/>
    </contour>
  </outline>
</glyph>
<glyph name="k.superior" format="2">
  <advance width="443"/>
  <outline>
    <contour>
      <point x="85" y="370" type="line"/>
      <point x="103" y="370" type="line"/>
      <point x="169" y="792" type="line"/>
      <point x="152" y="792" type="line"/>
    </contour>
    <contour>
      <point x="417" y="364" type="curve" smooth="yes"/>
      <point x="423" y="364"/>
      <point x="431" y="367"/>
      <point x="436" y="370" type="curve"/>
      <point x="432" y="384" type="line"/>
      <point x="426" y="381"/>
      <point x="422" y="380"/>
      <point x="417" y="380" type="curve" smooth="yes"/>
      <point x="398" y="380"/>
      <point x="375" y="395"/>
      <point x="267" y="486" type="curve" smooth="yes"/>
      <point x="135" y="598" type="line"/>
      <point x="127" y="583" type="line"/>
      <point x="239" y="488" type="line" smooth="yes"/>
      <point x="376" y="372"/>
      <point x="390" y="364"/>
    </contour>
    <contour>
      <point x="209" y="520" type="line"/>
      <point x="283" y="550"/>
      <point x="389" y="596"/>
      <point x="449" y="668" type="curve"/>
      <point x="438" y="679" type="line"/>
      <point x="368" y="600"/>
      <point x="286" y="570"/>
      <point x="196" y="530" type="curve"/>
    </contour>
  </outline>
</glyph>
<glyph name="l.sc" format="2">
  <advance width="707"/>
  <anchor x="386" y="0" name="bottom"/>
  <anchor x="437" y="308" name="center"/>
  <anchor x="202" y="615" name="top"/>
  <anchor x="537" y="615" name="topright"/>
  <outline>
    <contour>
      <point x="93" y="0" type="line"/>
      <point x="659" y="0" type="line"/>
      <point x="661" y="19" type="line"/>
      <point x="115" y="19" type="line"/>
      <point x="210" y="615" type="line"/>
      <point x="191" y="615" type="line"/>
    </contour>
  </outline>
</glyph>
<glyph name="l.superior" format="2">
  <advance width="216"/>
  <outline>
    <contour>
      <point x="168" y="792" type="line"/>
      <point x="151" y="792" type="line"/>
      <point x="99" y="463" type="line" smooth="yes"/>
      <point x="98" y="455"/>
      <point x="95" y="440"/>
      <point x="95" y="426" type="curve" smooth="yes"/>
      <point x="95" y="392"/>
      <point x="115" y="363"/>
      <point x="162" y="363" type="curve" smooth="yes"/>
      <point x="182" y="363"/>
      <point x="204" y="369"/>
      <point x="221" y="373" type="curve"/>
      <point x="216" y="389" type="line"/>
      <point x="200" y="386"/>
      <point x="180" y="380"/>
      <point x="164" y="380" type="curve" smooth="yes"/>
      <point x="123" y="380"/>
      <point x="113" y="405"/>
      <point x="113" y="427" type="curve" smooth="yes"/>
      <point x="113" y="442"/>
      <point x="115" y="456"/>
      <point x="116" y="462" type="curve" smooth="yes"/>
    </contour>
  </outline>
</glyph>
<glyph name="ldot.sc" format="2">
  <advance width="707"/>
  <outline>
    <contour>
      <point x="495" y="321" type="curve" smooth="yes"/>
      <point x="494" y="312"/>
      <point x="498" y="311"/>
      <point x="508" y="311" type="curve" smooth="yes"/>
      <point x="526" y="311"/>
      <point x="527" y="312"/>
      <point x="530" y="335" type="curve" smooth="yes"/>
      <point x="531" y="344"/>
      <point x="527" y="345"/>
      <point x="517" y="345" type="curve" smooth="yes"/>
      <point x="499" y="345"/>
      <point x="498" y="344"/>
    </contour>
    <component base="l.sc"/>
  </outline>
</glyph>
<glyph name="lslash.sc" format="2">
  <advance width="707"/>
  <outline>
    <contour>
      <point x="15" y="158" type="line"/>
      <point x="127" y="217" type="line"/>
      <point x="93" y="0" type="line"/>
      <point x="659" y="0" type="line"/>
      <point x="661" y="19" type="line"/>
      <point x="115" y="19" type="line"/>
      <point x="148" y="228" type="line"/>
      <point x="515" y="423" type="line"/>
      <point x="517" y="442" type="line"/>
      <point x="151" y="248" type="line"/>
      <point x="210" y="615" type="line"/>
      <point x="191" y="615" type="line"/>
      <point x="130" y="237" type="line"/>
      <point x="16" y="177" type="line"/>
    </contour>
  </outline>
</glyph>
<glyph name="n.sc" format="2">
  <advance width="1008"/>
  <anchor x="462" y="0" name="bottom"/>
  <anchor x="561" y="615" name="top"/>
  <outline>
    <contour>
      <point x="93" y="0" type="line"/>
      <point x="112" y="0" type="line"/>
      <point x="207" y="598" type="line"/>
      <point x="810" y="0" type="line"/>
      <point x="827" y="0" type="line"/>
      <point x="925" y="615" type="line"/>
      <point x="906" y="615" type="line"/>
      <point x="812" y="27" type="line"/>
      <point x="209" y="625" type="line"/>
      <point x="192" y="625" type="line"/>
    </contour>
  </outline>
</glyph>
<glyph name="o.superior" format="2">
  <advance width="477"/>
  <outline>
    <contour>
      <point x="289" y="678" type="curve" smooth="yes"/>
      <point x="144" y="678"/>
      <point x="73" y="626"/>
      <point x="73" y="514" type="curve" smooth="yes"/>
      <point x="73" y="419"/>
      <point x="143" y="364"/>
      <point x="266" y="364" type="curve" smooth="yes"/>
      <point x="411" y="364"/>
      <point x="482" y="416"/>
      <point x="482" y="528" type="curve" smooth="yes"/>
      <point x="482" y="623"/>
      <point x="412" y="678"/>
    </contour>
    <contour>
      <point x="285" y="661" type="curve" smooth="yes"/>
      <point x="400" y="661"/>
      <point x="464" y="611"/>
      <point x="464" y="526" type="curve" smooth="yes"/>
      <point x="464" y="428"/>
      <point x="400" y="381"/>
      <point x="270" y="381" type="curve" smooth="yes"/>
      <point x="155" y="381"/>
      <point x="91" y="431"/>
      <point x="91" y="516" type="curve" smooth="yes"/>
      <point x="91" y="614"/>
      <point x="155" y="661"/>
    </contour>
  </outline>
</glyph>
<glyph name="oslash.sc" format="2">
  <advance width="1043"/>
  <anchor x="562" y="615" name="top"/>
  <outline>
    <contour>
      <point x="1024.0" y="625.0" type="line"/>
      <point x="-7.0" y="-10.0" type="line"/>
      <point x="31.0" y="-10.0" type="line"/>
      <point x="1060.0" y="625.0" type="line"/>
    </contour>
    <contour>
      <point x="496.0" y="-10.0" type="curve" smooth="yes"/>
      <point x="729.0" y="-10.0"/>
      <point x="965.0" y="60.0"/>
      <point x="965.0" y="331.0" type="curve" smooth="yes"/>
      <point x="965.0" y="540.0"/>
      <point x="762.0" y="625.0"/>
      <point x="558.0" y="625.0" type="curve" smooth="yes"/>
      <point x="325.0" y="625.0"/>
      <point x="89.0" y="555.0"/>
      <point x="89.0" y="284.0" type="curve" smooth="yes"/>
      <point x="89.0" y="75.0"/>
      <point x="292.0" y="-10.0"/>
    </contour>
    <contour>
      <point x="500.0" y="9.0" type="curve" smooth="yes"/>
      <point x="301.0" y="9.0"/>
      <point x="108.0" y="90.0"/>
      <point x="108.0" y="289.0" type="curve" smooth="yes"/>
      <point x="108.0" y="546.0"/>
      <point x="351.0" y="606.0"/>
      <point x="554.0" y="606.0" type="curve" smooth="yes"/>
      <point x="753.0" y="606.0"/>
      <point x="946.0" y="525.0"/>
      <point x="946.0" y="326.0" type="curve" smooth="yes"/>
      <point x="946.0" y="69.0"/>
      <point x="703.0" y="9.0"/>
    </contour>
  </outline>
</glyph>
<glyph name="periodsuperior" format="2">
  <advance width="239"/>
  <outline>
    <contour>
      <point x="123" y="374" type="curve" smooth="yes"/>
      <point x="123" y="368"/>
      <point x="127" y="367"/>
      <point x="134" y="367" type="curve" smooth="yes"/>
      <point x="146" y="367"/>
      <point x="148" y="370"/>
      <point x="149" y="385" type="curve" smooth="yes"/>
      <point x="149" y="390"/>
      <point x="146" y="392"/>
      <point x="139" y="392" type="curve" smooth="yes"/>
      <point x="127" y="392"/>
      <point x="124" y="392"/>
    </contour>
  </outline>
</glyph>
<glyph name="q.sc" format="2">
  <advance width="1043"/>
  <outline>
    <contour>
      <point x="485" y="-6" type="curve"/>
      <point x="464" y="-4" type="line"/>
      <point x="509" y="-149"/>
      <point x="620" y="-220"/>
      <point x="735" y="-220" type="curve" smooth="yes"/>
      <point x="799" y="-220"/>
      <point x="846" y="-204"/>
      <point x="888" y="-178" type="curve"/>
      <point x="880" y="-160" type="line"/>
      <point x="831" y="-188"/>
      <point x="786" y="-200"/>
      <point x="734" y="-200" type="curve" smooth="yes"/>
      <point x="614" y="-200"/>
      <point x="517" y="-105"/>
    </contour>
    <contour>
      <point x="496" y="-10" type="curve" smooth="yes"/>
      <point x="729" y="-10"/>
      <point x="965" y="60"/>
      <point x="965" y="331" type="curve" smooth="yes"/>
      <point x="965" y="540"/>
      <point x="762" y="625"/>
      <point x="558" y="625" type="curve" smooth="yes"/>
      <point x="325" y="625"/>
      <point x="89" y="555"/>
      <point x="89" y="284" type="curve" smooth="yes"/>
      <point x="89" y="75"/>
      <point x="292" y="-10"/>
    </contour>
    <contour>
      <point x="500" y="9" type="curve" smooth="yes"/>
      <point x="301" y="9"/>
      <point x="108" y="90"/>
      <point x="108" y="289" type="curve" smooth="yes"/>
      <point x="108" y="546"/>
      <point x="351" y="606"/>
      <point x="554" y="606" type="curve" smooth="yes"/>
      <point x="753" y="606"/>
      <point x="946" y="525"/>
      <point x="946" y="326" type="curve" smooth="yes"/>
      <point x="946" y="69"/>
      <point x="703" y="9"/>
    </contour>
  </outline>
</glyph>
<glyph name="q.superior" format="2">
  <advance width="465"/>
  <outline>
    <contour>
      <point x="308" y="678" type="curve" smooth="yes"/>
      <point x="176" y="678"/>
      <point x="70" y="612"/>
      <point x="70" y="480" type="curve" smooth="yes"/>
      <point x="70" y="412"/>
      <point x="121" y="364"/>
      <point x="212" y="364" type="curve" smooth="yes"/>
      <point x="280" y="364"/>
      <point x="336" y="385"/>
      <point x="395" y="426" type="curve"/>
      <point x="367" y="250" type="line"/>
      <point x="384" y="250" type="line"/>
      <point x="449" y="659" type="line"/>
      <point x="408" y="669"/>
      <point x="359" y="678"/>
    </contour>
    <contour>
      <point x="398" y="446" type="line"/>
      <point x="327" y="398"/>
      <point x="271" y="380"/>
      <point x="213" y="380" type="curve" smooth="yes"/>
      <point x="138" y="380"/>
      <point x="87" y="420"/>
      <point x="87" y="483" type="curve" smooth="yes"/>
      <point x="87" y="599"/>
      <point x="185" y="662"/>
      <point x="307" y="662" type="curve" smooth="yes"/>
      <point x="354" y="662"/>
      <point x="396" y="654"/>
      <point x="430" y="645" type="curve"/>
    </contour>
  </outline>
</glyph>
<glyph name="questiondown.case" format="2">
  <advance width="645"/>
  <outline>
    <contour>
      <point x="390" y="479" type="line"/>
      <point x="372" y="479" type="line"/>
      <point x="361" y="413" type="line"/>
      <point x="134" y="374"/>
      <point x="21" y="300"/>
      <point x="21" y="159" type="curve" smooth="yes"/>
      <point x="21" y="27"/>
      <point x="153" y="-10"/>
      <point x="268" y="-10" type="curve" smooth="yes"/>
      <point x="378" y="-10"/>
      <point x="504" y="19"/>
      <point x="605" y="73" type="curve"/>
      <point x="598" y="88" type="line"/>
      <point x="499" y="39"/>
      <point x="377" y="7"/>
      <point x="271" y="7" type="curve" smooth="yes"/>
      <point x="155" y="7"/>
      <point x="42" y="41"/>
      <point x="42" y="164" type="curve" smooth="yes"/>
      <point x="42" y="269"/>
      <point x="116" y="357"/>
      <point x="377" y="397" type="curve"/>
    </contour>
    <contour>
      <point x="423" y="693" type="curve" smooth="yes"/>
      <point x="423" y="699"/>
      <point x="419" y="700"/>
      <point x="410" y="700" type="curve" smooth="yes"/>
      <point x="394" y="700"/>
      <point x="388" y="699"/>
      <point x="388" y="674" type="curve" smooth="yes"/>
      <point x="388" y="667"/>
      <point x="392" y="666"/>
      <point x="401" y="666" type="curve" smooth="yes"/>
      <point x="417" y="666"/>
      <point x="423" y="667"/>
    </contour>
  </outline>
</glyph>
<glyph name="r.superior" format="2">
  <advance width="328"/>
  <outline>
    <contour>
      <point x="156" y="670" type="line"/>
      <point x="140" y="670" type="line"/>
      <point x="93" y="370" type="line"/>
      <point x="110" y="370" type="line"/>
      <point x="144" y="584" type="line"/>
      <point x="205" y="632"/>
      <point x="272" y="661"/>
      <point x="318" y="661" type="curve" smooth="yes"/>
      <point x="339" y="661"/>
      <point x="367" y="657"/>
      <point x="388" y="650" type="curve"/>
      <point x="393" y="667" type="line"/>
      <point x="376" y="672"/>
      <point x="348" y="678"/>
      <point x="317" y="678" type="curve" smooth="yes"/>
      <point x="269" y="678"/>
      <point x="212" y="654"/>
      <point x="147" y="607" type="curve"/>
    </contour>
  </outline>
</glyph>
<glyph name="t.sc" format="2">
  <advance width="729"/>
  <anchor x="321.444" y="0" name="bottom"/>
  <anchor x="368" y="308" name="center"/>
  <anchor x="419" y="615" name="top"/>
  <outline>
    <contour>
      <point x="749" y="597" type="line"/>
      <point x="751" y="615" type="line"/>
      <point x="85" y="615" type="line"/>
      <point x="83" y="597" type="line"/>
      <point x="407" y="597" type="line"/>
      <point x="312" y="0" type="line"/>
      <point x="331" y="0" type="line"/>
      <point x="426" y="597" type="line"/>
    </contour>
  </outline>
</glyph>
<glyph name="t.superior" format="2">
  <advance width="327"/>
  <outline>
    <contour>
      <point x="162" y="656" type="line"/>
      <point x="353" y="656" type="line"/>
      <point x="355" y="672" type="line"/>
      <point x="166" y="672" type="line"/>
      <point x="178" y="749" type="line"/>
      <point x="166" y="749" type="line"/>
      <point x="148" y="672" type="line"/>
      <point x="56" y="669" type="line"/>
      <point x="55" y="656" type="line"/>
      <point x="145" y="656" type="line"/>
      <point x="116" y="471" type="line" smooth="yes"/>
      <point x="114" y="459"/>
      <point x="113" y="448"/>
      <point x="113" y="442" type="curve" smooth="yes"/>
      <point x="113" y="387"/>
      <point x="147" y="364"/>
      <point x="202" y="364" type="curve" smooth="yes"/>
      <point x="234" y="364"/>
      <point x="279" y="371"/>
      <point x="325" y="388" type="curve"/>
      <point x="320" y="404" type="line"/>
      <point x="283" y="390"/>
      <point x="242" y="381"/>
      <point x="206" y="381" type="curve" smooth="yes"/>
      <point x="148" y="381"/>
      <point x="131" y="407"/>
      <point x="131" y="444" type="curve" smooth="yes"/>
      <point x="131" y="452"/>
      <point x="132" y="461"/>
      <point x="133" y="470" type="curve" smooth="yes"/>
    </contour>
  </outline>
</glyph>
<glyph name="tbar.sc" format="2">
  <advance width="729"/>
  <outline>
    <contour>
      <point x="749" y="597" type="line"/>
      <point x="751" y="615" type="line"/>
      <point x="85" y="615" type="line"/>
      <point x="83" y="597" type="line"/>
      <point x="407" y="597" type="line"/>
      <point x="366" y="337" type="line"/>
      <point x="129" y="337" type="line"/>
      <point x="126" y="319" type="line"/>
      <point x="363" y="319" type="line"/>
      <point x="312" y="0" type="line"/>
      <point x="331" y="0" type="line"/>
      <point x="381" y="319" type="line"/>
      <point x="620" y="319" type="line"/>
      <point x="623" y="337" type="line"/>
      <point x="384" y="337" type="line"/>
      <point x="426" y="597" type="line"/>
    </contour>
  </outline>
</glyph>
<glyph name="thorn.sc" format="2">
  <advance width="870"/>
  <outline>
    <contour>
      <point x="93" y="0" type="line"/>
      <point x="112" y="0" type="line"/>
      <point x="135" y="143" type="line"/>
      <point x="245" y="140"/>
      <point x="306" y="139"/>
      <point x="434" y="139" type="curve" smooth="yes"/>
      <point x="711" y="139"/>
      <point x="823" y="201"/>
      <point x="823" y="358" type="curve" smooth="yes"/>
      <point x="823" y="495"/>
      <point x="722" y="549"/>
      <point x="478" y="549" type="curve" smooth="yes"/>
      <point x="429" y="549"/>
      <point x="368" y="547"/>
      <point x="198" y="541" type="curve"/>
      <point x="210" y="615" type="line"/>
      <point x="191" y="615" type="line"/>
    </contour>
    <contour>
      <point x="432" y="156" type="curve" smooth="yes"/>
      <point x="364" y="156"/>
      <point x="257" y="156"/>
      <point x="138" y="162" type="curve"/>
      <point x="195" y="521" type="line"/>
      <point x="384" y="529"/>
      <point x="426" y="530"/>
      <point x="484" y="530" type="curve" smooth="yes"/>
      <point x="715" y="530"/>
      <point x="805" y="479"/>
      <point x="805" y="355" type="curve" smooth="yes"/>
      <point x="805" y="215"/>
      <point x="707" y="156"/>
    </contour>
  </outline>
</glyph>
<glyph name="tildecomb.loclVIT" format="2">
  <anchor x="-387" y="530" name="_top"/>
  <anchor x="-351" y="762" name="top"/>
  <outline>
    <contour>
      <point x="-586" y="639" type="curve"/>
      <point x="-567" y="639" type="line"/>
      <point x="-567" y="649"/>
      <point x="-565" y="660"/>
      <point x="-564" y="668" type="curve" smooth="yes"/>
      <point x="-557" y="720"/>
      <point x="-517" y="745"/>
      <point x="-479" y="745" type="curve" smooth="yes"/>
      <point x="-396" y="745"/>
      <point x="-349" y="639"/>
      <point x="-247" y="639" type="curve" smooth="yes"/>
      <point x="-194" y="639"/>
      <point x="-145" y="678"/>
      <point x="-138" y="733" type="curve" smooth="yes"/>
      <point x="-137" y="741"/>
      <point x="-135" y="752"/>
      <point x="-135" y="762" type="curve"/>
      <point x="-154" y="762" type="line"/>
      <point x="-154" y="752"/>
      <point x="-156" y="741"/>
      <point x="-157" y="733" type="curve" smooth="yes"/>
      <point x="-163" y="682"/>
      <point x="-206" y="657"/>
      <point x="-244" y="657" type="curve" smooth="yes"/>
      <point x="-343" y="657"/>
      <point x="-385" y="762"/>
      <point x="-476" y="762" type="curve" smooth="yes"/>
      <point x="-524" y="762"/>
      <point x="-575" y="734"/>
      <point x="-583" y="668" type="curve" smooth="yes"/>
      <point x="-584" y="660"/>
      <point x="-586" y="649"/>
    </contour>
  </outline>
</glyph>
<glyph name="two.tosf" format="2">
  <advance width="1034"/>
  <outline>
    <contour>
      <point x="111" y="17" type="curve"/>
      <point x="113" y="0" type="line"/>
      <point x="872" y="0" type="line"/>
      <point x="875" y="20" type="line"/>
      <point x="173" y="20" type="line"/>
      <point x="514" y="144"/>
      <point x="775" y="237"/>
      <point x="775" y="396" type="curve" smooth="yes"/>
      <point x="775" y="491"/>
      <point x="691" y="540"/>
      <point x="530" y="540" type="curve" smooth="yes"/>
      <point x="431" y="540"/>
      <point x="318" y="519"/>
      <point x="237" y="491" type="curve"/>
      <point x="241" y="473" type="line"/>
      <point x="321" y="500"/>
      <point x="430" y="520"/>
      <point x="527" y="520" type="curve" smooth="yes"/>
      <point x="678" y="520"/>
      <point x="757" y="476"/>
      <point x="756" y="395" type="curve" smooth="yes"/>
      <point x="754" y="257"/>
      <point x="507" y="162"/>
    </contour>
  </outline>
</glyph>
<glyph name="uni0163.sc" format="2">
  <advance width="729"/>
  <outline>
    <contour>
      <point x="151" y="-180" type="line"/>
      <point x="194" y="-208"/>
      <point x="233" y="-220"/>
      <point x="291" y="-220" type="curve" smooth="yes"/>
      <point x="374" y="-220"/>
      <point x="423" y="-173"/>
      <point x="423" y="-104" type="curve" smooth="yes"/>
      <point x="423" y="-48"/>
      <point x="387" y="-10"/>
      <point x="326" y="4" type="curve"/>
      <point x="312" y="0" type="line"/>
      <point x="374" y="-22"/>
      <point x="403" y="-51"/>
      <point x="403" y="-106" type="curve" smooth="yes"/>
      <point x="403" y="-166"/>
      <point x="360" y="-202"/>
      <point x="288" y="-202" type="curve" smooth="yes"/>
      <point x="239" y="-202"/>
      <point x="202" y="-188"/>
      <point x="160" y="-163" type="curve"/>
    </contour>
    <component base="t.sc"/>
  </outline>
</glyph>
<glyph name="uni0304.case" format="2">
  <anchor x="-525" y="700" name="_top"/>
  <anchor x="-499" y="863" name="top"/>
  <outline>
    <contour>
      <point x="-693" y="845" type="line"/>
      <point x="-311" y="845" type="line"/>
      <point x="-308" y="863" type="line"/>
      <point x="-690" y="863" type="line"/>
    </contour>
  </outline>
</glyph>
<glyph name="uni0306.case" format="2">
  <anchor x="-525" y="700" name="_top"/>
  <anchor x="-495" y="889" name="top"/>
  <outline>
    <contour>
      <point x="-514" y="776" type="curve" smooth="yes"/>
      <point x="-382" y="776"/>
      <point x="-297" y="808"/>
      <point x="-270" y="934" type="curve"/>
      <point x="-288" y="936" type="line"/>
      <point x="-316" y="825"/>
      <point x="-385" y="794"/>
      <point x="-511" y="794" type="curve" smooth="yes"/>
      <point x="-623" y="794"/>
      <point x="-682" y="816"/>
      <point x="-688" y="906" type="curve"/>
      <point x="-688" y="915"/>
      <point x="-688" y="925"/>
      <point x="-687" y="936" type="curve"/>
      <point x="-705" y="934" type="line"/>
      <point x="-706" y="927"/>
      <point x="-706" y="920"/>
      <point x="-706" y="914" type="curve" smooth="yes"/>
      <point x="-706" y="809"/>
      <point x="-643" y="776"/>
    </contour>
  </outline>
</glyph>
<glyph name="uni030C.alt" format="2">
  <anchor x="-4" y="740" name="_topright"/>
  <outline>
    <contour>
      <point x="-93" y="558" type="curve"/>
      <point x="-71" y="558" type="line"/>
      <point x="-22" y="606"/>
      <point x="13" y="667"/>
      <point x="15" y="740" type="curve"/>
      <point x="-4" y="740" type="line"/>
      <point x="-6" y="675"/>
      <point x="-38" y="613"/>
    </contour>
  </outline>
</glyph>
<glyph name="uni030F.case" format="2">
  <anchor x="-525" y="700" name="_top"/>
  <anchor x="-566" y="950" name="top"/>
  <outline>
    <contour>
      <point x="-585" y="756" type="line"/>
      <point x="-565" y="756" type="line"/>
      <point x="-711" y="950" type="line"/>
      <point x="-736" y="950" type="line"/>
    </contour>
    <contour>
      <point x="-406" y="756" type="line"/>
      <point x="-386" y="756" type="line"/>
      <point x="-532" y="950" type="line"/>
      <point x="-557" y="950" type="line"/>
    </contour>
  </outline>
</glyph>
<glyph name="v.superior" format="2">
  <advance width="374"/>
  <outline>
    <contour>
      <point x="398" y="674" type="line"/>
      <point x="398" y="615"/>
      <point x="284" y="491"/>
      <point x="209" y="383" type="curve"/>
      <point x="99" y="678" type="line"/>
      <point x="85" y="671" type="line"/>
      <point x="200" y="364" type="line"/>
      <point x="213" y="364" type="line"/>
      <point x="382" y="589"/>
      <point x="414" y="626"/>
      <point x="414" y="674" type="curve"/>
    </contour>
  </outline>
</glyph>
<glyph name="x.sc" format="2">
  <advance width="843"/>
  <outline>
    <contour>
      <point x="766" y="-8" type="line"/>
      <point x="779" y="5" type="line"/>
      <point x="442" y="334" type="line"/>
      <point x="574" y="406"/>
      <point x="740" y="493"/>
      <point x="796" y="617" type="curve"/>
      <point x="780" y="626" type="line"/>
      <point x="718" y="501"/>
      <point x="572" y="426"/>
      <point x="429" y="346" type="curve"/>
      <point x="145" y="624" type="line"/>
      <point x="131" y="610" type="line"/>
      <point x="411" y="337" type="line"/>
      <point x="255" y="251"/>
      <point x="98" y="161"/>
      <point x="62" y="0" type="curve"/>
      <point x="83" y="0" type="line"/>
      <point x="124" y="132"/>
      <point x="201" y="201"/>
      <point x="424" y="325" type="curve"/>
    </contour>
  </outline>
</glyph>
<glyph name="x.superior" format="2">
  <advance width="416"/>
  <outline>
    <contour>
      <point x="427" y="670" type="line"/>
      <point x="420" y="640"/>
      <point x="364" y="601"/>
      <point x="250" y="538" type="curve"/>
      <point x="103" y="678" type="line"/>
      <point x="91" y="666" type="line"/>
      <point x="233" y="533" type="line"/>
      <point x="104" y="462"/>
      <point x="61" y="415"/>
      <point x="53" y="370" type="curve"/>
      <point x="69" y="370" type="line"/>
      <point x="76" y="394"/>
      <point x="106" y="443"/>
      <point x="246" y="521" type="curve"/>
      <point x="417" y="362" type="line"/>
      <point x="427" y="374" type="line"/>
      <point x="263" y="527" type="line"/>
      <point x="393" y="598"/>
      <point x="438" y="634"/>
      <point x="444" y="670" type="curve"/>
    </contour>
  </outline>
</glyph>
<glyph name="y.sc" format="2">
  <advance width="735"/>
  <anchor x="324.444" y="0" name="bottom"/>
  <anchor x="425" y="615" name="top"/>
  <anchor x="64" y="615" name="topleft"/>
  <outline>
    <contour>
      <point x="330" y="0" type="line"/>
      <point x="349" y="0" type="line"/>
      <point x="394" y="263" type="line"/>
      <point x="527" y="357"/>
      <point x="675" y="461"/>
      <point x="742" y="579" type="curve" smooth="yes"/>
      <point x="749" y="591"/>
      <point x="753" y="604"/>
      <point x="758" y="617" type="curve"/>
      <point x="742" y="625" type="line"/>
      <point x="737" y="612"/>
      <point x="730" y="597"/>
      <point x="723" y="584" type="curve" smooth="yes"/>
      <point x="654" y="459"/>
      <point x="479" y="346"/>
      <point x="385" y="279" type="curve"/>
      <point x="78" y="625" type="line"/>
      <point x="64" y="612" type="line"/>
      <point x="374" y="263" type="line"/>
    </contour>
  </outline>
</glyph>
<glyph name="z.superior" format="2">
  <advance width="425"/>
  <outline>
    <contour>
      <point x="408" y="370" type="line"/>
      <point x="410" y="387" type="line"/>
      <point x="80" y="387" type="line"/>
      <point x="434" y="656" type="line"/>
      <point x="436" y="670" type="line"/>
      <point x="121" y="670" type="line"/>
      <point x="119" y="653" type="line"/>
      <point x="405" y="653" type="line"/>
      <point x="49" y="384" type="line"/>
      <point x="48" y="370" type="line"/>
    </contour>
  </outline>
</glyph>
<glyph name="zero.opencirc" format="2">
  <advance width="1112"/>
  <outline>
    <contour>
      <point x="84" y="350" type="curve" smooth="yes"/>
      <point x="84" y="69"/>
      <point x="313" y="-10"/>
      <point x="568" y="-10" type="curve" smooth="yes"/>
      <point x="823" y="-10"/>
      <point x="1052" y="69"/>
      <point x="1052" y="350" type="curve" smooth="yes"/>
      <point x="1052" y="631"/>
      <point x="823" y="710"/>
      <point x="568" y="710" type="curve" smooth="yes"/>
      <point x="313" y="710"/>
      <point x="84" y="631"/>
    </contour>
    <contour>
      <point x="104" y="350" type="curve" smooth="yes"/>
      <point x="104" y="615"/>
      <point x="323" y="690"/>
      <point x="568" y="690" type="curve" smooth="yes"/>
      <point x="813" y="690"/>
      <point x="1032" y="615"/>
      <point x="1032" y="350" type="curve" smooth="yes"/>
      <point x="1032" y="85"/>
      <point x="813" y="10"/>
      <point x="568" y="10" type="curve" smooth="yes"/>
      <point x="323" y="10"/>
      <point x="104" y="85"/>
    </contour>
    <contour>
      <point x="292" y="362" type="curve" smooth="yes"/>
      <point x="292" y="201"/>
      <point x="422" y="157"/>
      <point x="569" y="157" type="curve" smooth="yes"/>
      <point x="714" y="157"/>
      <point x="845" y="201"/>
      <point x="845" y="362" type="curve" smooth="yes"/>
      <point x="845" y="524"/>
      <point x="714" y="569"/>
      <point x="569" y="569" type="curve" smooth="yes"/>
      <point x="422" y="569"/>
      <point x="292" y="524"/>
    </contour>
    <contour>
      <point x="313" y="362" type="curve" smooth="yes"/>
      <point x="313" y="506"/>
      <point x="434" y="548"/>
      <point x="569" y="548" type="curve" smooth="yes"/>
      <point x="702" y="548"/>
      <point x="824" y="506"/>
      <point x="824" y="362" type="curve" smooth="yes"/>
      <point x="824" y="218"/>
      <point x="702" y="177"/>
      <point x="569" y="177" type="curve" smooth="yes"/>
      <point x="434" y="177"/>
      <point x="313" y="218"/>
    </contour>
  </outline>
</glyph>
